<svg width="30" height="31" viewBox="0 0 30 31" fill="none" xmlns="http://www.w3.org/2000/svg">
<path d="M30 14.8522V16.6135C29.9815 16.7085 29.963 16.8012 29.9492 16.8962C29.8359 17.6378 29.7851 18.398 29.6003 19.1234C28.2139 24.5812 24.831 28.2197 19.5303 30.0482C18.6707 30.3449 17.7603 30.4863 16.8522 30.7041V18.8592H20.4384C20.621 17.4525 20.7966 16.0781 20.9791 14.6644H16.8291C16.8291 13.6192 16.813 12.6134 16.8291 11.6053C16.8425 11.3128 16.9164 11.0263 17.0463 10.764C17.3167 10.1986 17.8504 10.0132 18.4327 9.98304C19.2114 9.94364 19.9924 9.9529 20.7734 9.94131C20.8751 9.94131 20.9791 9.94132 21.0993 9.9251C21.0993 8.71767 21.0993 7.54269 21.0993 6.37002C21.0851 6.32267 21.0589 6.27981 21.0233 6.24568C20.9876 6.21155 20.9437 6.1873 20.8959 6.17532C19.7175 6.12202 18.5367 6.03166 17.3606 6.05715C16.2259 6.06868 15.1311 6.4787 14.2666 7.21592C13.1113 8.19624 12.6145 9.49867 12.5382 10.9657C12.4781 12.0781 12.5058 13.1975 12.4943 14.3122C12.4943 14.4258 12.4943 14.544 12.4943 14.6876H8.9058V18.8893H12.4781V30.5326C12.4154 30.529 12.3529 30.522 12.291 30.5117C9.93197 30.0785 7.71232 29.0799 5.82105 27.6009C3.55539 25.8682 1.84327 23.5098 0.894699 20.8152C-0.370537 17.341 -0.291397 13.5174 1.11651 10.0989C2.20484 7.41312 4.04277 5.09937 6.40975 3.4353C8.77673 1.77124 11.5722 0.827575 14.4607 0.717551C17.1169 0.603227 19.7537 1.2195 22.0859 2.49972C26.2937 4.84274 28.8678 8.40016 29.7643 13.1604C29.8614 13.7073 29.9122 14.2821 30 14.8522Z" fill="white"/>
</svg>
