<svg width="30" height="31" viewBox="0 0 30 31" fill="none" xmlns="http://www.w3.org/2000/svg">
<path d="M14.0654 0.704102H15.9413C16.1332 0.727222 16.3252 0.752638 16.5195 0.773446C19.6791 1.11794 22.494 2.28553 24.8602 4.41031C28.8178 7.96395 30.5178 12.4309 29.8633 17.7047C29.3567 21.7762 27.3837 25.1033 24.1339 27.5934C20.8495 30.1204 17.1093 31.0869 13.006 30.569C10.2552 30.2313 7.66034 29.1074 5.53273 27.3321C2.72395 25.0738 0.838366 21.8667 0.231301 18.3151C0.129529 17.7602 0.0740163 17.196 0 16.6365V14.766C0.0231301 14.5741 0.0485845 14.3822 0.0694016 14.1903C0.374168 11.0778 1.65947 8.14237 3.74015 5.80681C5.98545 3.21505 9.06702 1.49006 12.4509 0.930679C12.9853 0.835885 13.5265 0.778088 14.0654 0.704102ZM15.0045 24.3634C16.427 24.3102 17.868 24.3172 19.2951 24.1854C21.0044 24.0258 22.3021 23.175 23.063 21.5866C23.388 20.8843 23.5569 20.12 23.558 19.3463C23.5873 17.3348 23.6043 15.3232 23.6089 13.3117C23.6089 12.6782 23.5626 12.0424 23.5002 11.4136C23.2689 9.22172 21.7955 7.58941 19.6351 7.27959C18.5405 7.14233 17.4375 7.08361 16.3345 7.10387C14.4609 7.10387 12.5805 7.10388 10.7139 7.22873C9.9057 7.26336 9.12355 7.52455 8.45685 7.98247C7.79016 8.44038 7.26579 9.07652 6.94366 9.81823C6.62225 10.5118 6.45421 11.2665 6.45099 12.0309C6.42015 14.0609 6.40319 16.0916 6.40011 18.1232C6.40011 18.7382 6.44404 19.3532 6.50418 19.9728C6.73548 22.3149 8.39624 24.0051 10.7463 24.2016C12.1572 24.3102 13.5658 24.3102 15.0045 24.3634Z" fill="white"/>
<path d="M7.9128 15.7048C7.9498 14.3985 7.95441 13.0898 8.03305 11.7743C8.14176 9.9755 9.2844 8.78479 11.0862 8.73623C13.6907 8.66687 16.2959 8.66687 18.9019 8.73623C20.7315 8.78479 21.9088 9.96623 21.9666 11.7835C22.036 14.3869 22.036 16.9918 21.9666 19.5983C21.918 21.4156 20.7268 22.5624 18.9065 22.6641C16.2934 22.8144 13.6739 22.8144 11.0608 22.6641C9.92742 22.597 8.97909 22.1277 8.42628 21.078C8.10935 20.4248 7.95689 19.7041 7.98217 18.9786C7.96366 17.885 7.98217 16.7915 7.98217 15.7002L7.9128 15.7048ZM19.4246 15.7048C19.4252 15.1255 19.3117 14.5517 19.0905 14.0162C18.8692 13.4808 18.5447 12.9941 18.1353 12.5841C17.7259 12.174 17.2397 11.8486 16.7045 11.6263C16.1693 11.4041 15.5956 11.2893 15.016 11.2887C14.4338 11.2863 13.8569 11.399 13.3185 11.6203C12.78 11.8416 12.2906 12.1671 11.8785 12.5782C11.4664 12.9893 11.1397 13.4778 10.9172 14.0155C10.6947 14.5533 10.5808 15.1297 10.582 15.7117C10.5814 16.8819 11.0457 18.0044 11.8728 18.8325C12.6999 19.6606 13.8222 20.1265 14.9929 20.1277C15.5762 20.1302 16.1541 20.0171 16.6934 19.7949C17.2326 19.5727 17.7224 19.2458 18.1345 18.8333C18.5466 18.4207 18.8728 17.9306 19.0943 17.3912C19.3157 16.8518 19.428 16.2739 19.4246 15.6909V15.7048ZM20.6343 11.1223C20.6381 10.8516 20.5347 10.5904 20.3467 10.3955C20.1587 10.2007 19.9012 10.0879 19.6305 10.0818C19.494 10.0772 19.358 10.1 19.2306 10.1488C19.1031 10.1977 18.9867 10.2717 18.8883 10.3663C18.79 10.461 18.7116 10.5744 18.6579 10.6999C18.6042 10.8254 18.5763 10.9604 18.5758 11.0968C18.573 11.231 18.5967 11.3645 18.6456 11.4895C18.6944 11.6146 18.7674 11.7288 18.8604 11.8256C18.9534 11.9224 19.0646 12 19.1876 12.0539C19.3106 12.1078 19.443 12.1369 19.5773 12.1396C19.7144 12.1439 19.8509 12.1207 19.9788 12.0713C20.1067 12.0219 20.2235 11.9474 20.322 11.8521C20.4206 11.7568 20.499 11.6427 20.5527 11.5165C20.6063 11.3904 20.6341 11.2547 20.6343 11.1176V11.1223Z" fill="white"/>
<path d="M14.986 18.574C14.2257 18.5679 13.4987 18.2612 12.9638 17.721C12.429 17.1808 12.1299 16.4509 12.1317 15.6909C12.1341 15.3123 12.2113 14.9379 12.3587 14.5891C12.5061 14.2403 12.7208 13.9241 12.9907 13.6584C13.2606 13.3927 13.5802 13.1829 13.9313 13.0409C14.2824 12.8989 14.6581 12.8275 15.0369 12.8309C15.797 12.8406 16.5223 13.1509 17.0541 13.6938C17.586 14.2367 17.8811 14.968 17.8749 15.7279C17.8676 16.4877 17.5595 17.2136 17.0182 17.747C16.4768 18.2804 15.7461 18.5777 14.986 18.574Z" fill="white"/>
</svg>
