<svg width="241" height="44" viewBox="0 0 241 44" fill="none" xmlns="http://www.w3.org/2000/svg">
<path d="M79.1564 12.7532L74.2284 27.9467H69.6253L66.718 18.7L63.6786 27.9467H59.0789L54.1509 12.7532H58.578L61.6376 22.4569L64.8496 12.7532H68.7995L71.8592 22.5415L75.0509 12.7532H79.1564Z" fill="#3A76F0"/>
<path d="M92.0176 17.2886C92.9077 18.1551 93.3511 19.4649 93.3511 21.2182V27.9468H89.2287V21.8917C89.2287 20.284 88.5856 19.4818 87.296 19.4818C86.5853 19.4818 86.02 19.712 85.5936 20.1757C85.1671 20.6394 84.9539 21.3332 84.9539 22.2606V27.9468H80.8314V11.8428H84.9539V17.2683C85.4007 16.8486 85.932 16.5305 86.5379 16.3138C87.1471 16.0972 87.797 15.9889 88.4908 15.9889C89.9496 15.9889 91.1274 16.4222 92.0176 17.2886Z" fill="#3A76F0"/>
<path d="M105.421 17.3224C106.45 18.2126 106.961 19.5766 106.961 21.4145V27.9468H103.119V26.4271C102.527 27.5711 101.37 28.1431 99.6468 28.1431C98.7363 28.1431 97.9477 27.984 97.2809 27.6658C96.6142 27.3477 96.1132 26.9178 95.7714 26.3729C95.4295 25.8314 95.2603 25.212 95.2603 24.5181C95.2603 23.4046 95.6868 22.5381 96.5397 21.9255C97.3926 21.3095 98.7092 21.0015 100.49 21.0015H102.835C102.764 19.7594 101.931 19.1366 100.337 19.1366C99.772 19.1366 99.2 19.228 98.6212 19.4074C98.0425 19.5868 97.5517 19.8372 97.1455 20.1554L95.7579 17.3563C96.4077 16.9231 97.1997 16.5846 98.1339 16.3477C99.068 16.1074 100.006 15.9889 100.943 15.9889C102.903 15.9889 104.392 16.4323 105.421 17.3224ZM102.057 25.1917C102.419 24.9615 102.679 24.6197 102.838 24.1729V23.1508H101.058C99.8566 23.1508 99.2575 23.5501 99.2575 24.3455C99.2575 24.7077 99.3963 24.9954 99.6705 25.2154C99.9446 25.432 100.32 25.5403 100.798 25.5403C101.275 25.5403 101.694 25.4218 102.057 25.1917Z" fill="#3A76F0"/>
<path d="M117.684 27.4695C117.335 27.6862 116.912 27.852 116.414 27.9671C115.917 28.0822 115.382 28.1397 114.82 28.1397C113.287 28.1397 112.106 27.764 111.283 27.0126C110.458 26.2612 110.048 25.1375 110.048 23.6483V19.6985H108.332V16.6151H110.048V13.5554H114.17V16.6151H116.861V19.6985H114.17V23.6043C114.17 24.024 114.282 24.3523 114.506 24.5926C114.729 24.8329 115.03 24.9514 115.406 24.9514C115.883 24.9514 116.303 24.8295 116.665 24.5825L117.684 27.4695Z" fill="#3A76F0"/>
<path d="M129.838 24.4301H122.243L120.747 27.9467H117.839L124.676 12.7532H127.455L134.312 27.9467H131.361L129.838 24.4301ZM128.903 22.2166L126.04 15.576L123.197 22.2166H128.903Z" fill="#3A76F0"/>
<path d="M145.43 16.9637C146.32 17.4545 147.018 18.1483 147.525 19.0486C148.033 19.9456 148.283 20.9813 148.283 22.1523C148.283 23.3234 148.03 24.3625 147.525 25.2662C147.018 26.1699 146.32 26.8705 145.43 27.3613C144.54 27.852 143.531 28.0991 142.401 28.0991C140.837 28.0991 139.602 27.5779 138.688 26.5354V32.1573H135.974V16.3545H138.556V17.8742C139.003 17.3259 139.558 16.9129 140.218 16.6354C140.878 16.3613 141.602 16.2225 142.398 16.2225C143.531 16.2259 144.54 16.4729 145.43 16.9637ZM144.564 24.7788C145.207 24.112 145.528 23.2388 145.528 22.1523C145.528 21.0659 145.207 20.1926 144.564 19.5259C143.921 18.8591 143.098 18.5274 142.1 18.5274C141.45 18.5274 140.861 18.6763 140.343 18.9742C139.822 19.272 139.409 19.6951 139.104 20.2434C138.8 20.7917 138.647 21.428 138.647 22.1523C138.647 22.8766 138.8 23.5129 139.104 24.0613C139.409 24.6096 139.822 25.036 140.343 25.3305C140.864 25.6283 141.45 25.7739 142.1 25.7739C143.098 25.7773 143.921 25.4422 144.564 24.7788Z" fill="#3A76F0"/>
<path d="M159.063 17.4545C159.967 18.2735 160.421 19.5055 160.421 21.1539V27.9468H157.858V26.5354C157.527 27.0431 157.053 27.4289 156.437 27.6963C155.821 27.9637 155.08 28.0991 154.213 28.0991C153.343 28.0991 152.585 27.9502 151.935 27.6523C151.286 27.3579 150.781 26.9449 150.426 26.4169C150.07 25.8889 149.894 25.2932 149.894 24.6265C149.894 23.584 150.28 22.748 151.055 22.1185C151.83 21.4889 153.049 21.1742 154.714 21.1742H157.71V21.0015C157.71 20.1926 157.466 19.5698 156.982 19.1366C156.498 18.7034 155.777 18.4868 154.822 18.4868C154.173 18.4868 153.53 18.5883 152.9 18.7914C152.27 18.9945 151.739 19.2754 151.306 19.6375L150.243 17.6609C150.852 17.1972 151.58 16.8452 152.436 16.5982C153.289 16.3511 154.193 16.2292 155.151 16.2292C156.853 16.2258 158.156 16.6354 159.063 17.4545ZM156.589 25.6588C157.117 25.3474 157.49 24.904 157.706 24.3252V22.9782H154.907C153.343 22.9782 152.562 23.4926 152.562 24.5182C152.562 25.0089 152.758 25.4015 153.147 25.6892C153.536 25.9769 154.081 26.1225 154.775 26.1225C155.455 26.1225 156.061 25.9668 156.589 25.6588Z" fill="#3A76F0"/>
<path d="M170.598 16.2258V18.8083C170.368 18.7643 170.158 18.744 169.969 18.744C168.913 18.744 168.087 19.052 167.495 19.668C166.902 20.284 166.604 21.1674 166.604 22.3283V27.9501H163.89V16.3612H166.472V18.0535C167.254 16.8351 168.632 16.2258 170.598 16.2258Z" fill="#3A76F0"/>
<path d="M180.299 27.3172C179.981 27.5778 179.595 27.7742 179.138 27.9028C178.681 28.0314 178.2 28.0991 177.696 28.0991C176.423 28.0991 175.438 27.7674 174.745 27.1006C174.051 26.4338 173.702 25.4659 173.702 24.1932V18.6154H171.793V16.4458H173.702V13.7991H176.417V16.4458H179.52V18.6154H176.417V24.1289C176.417 24.6942 176.555 25.124 176.829 25.4218C177.104 25.7197 177.503 25.8686 178.024 25.8686C178.633 25.8686 179.138 25.7095 179.544 25.3914L180.299 27.3172Z" fill="#3A76F0"/>
<path d="M200.637 17.4951C201.49 18.3412 201.916 19.6105 201.916 21.3028V27.9434H199.202V21.648C199.202 20.636 198.978 19.8711 198.528 19.36C198.078 18.8455 197.435 18.5883 196.595 18.5883C195.685 18.5883 194.954 18.8895 194.402 19.4886C193.85 20.0877 193.576 20.9474 193.576 22.0609V27.9434H190.862V21.648C190.862 20.636 190.638 19.8711 190.188 19.36C189.738 18.8455 189.095 18.5883 188.256 18.5883C187.328 18.5883 186.594 18.8861 186.052 19.4785C185.511 20.0708 185.237 20.9338 185.237 22.0609V27.9434H182.522V16.3545H185.105V17.8301C185.538 17.3089 186.083 16.9129 186.733 16.6354C187.382 16.3612 188.107 16.2224 188.902 16.2224C189.772 16.2224 190.54 16.3849 191.214 16.7098C191.887 17.0348 192.419 17.5154 192.808 18.1517C193.285 17.5458 193.901 17.0686 194.653 16.7301C195.404 16.3917 196.237 16.2191 197.147 16.2191C198.626 16.2258 199.784 16.6489 200.637 17.4951Z" fill="#3A76F0"/>
<path d="M216.351 23.0188H207.257C207.416 23.8717 207.832 24.5486 208.506 25.0496C209.179 25.5471 210.015 25.7975 211.014 25.7975C212.286 25.7975 213.336 25.3779 214.161 24.5385L215.617 26.2105C215.096 26.8332 214.439 27.3037 213.64 27.6219C212.845 27.94 211.948 28.0991 210.949 28.0991C209.677 28.0991 208.553 27.8452 207.585 27.3409C206.614 26.8332 205.866 26.1292 205.338 25.2255C204.81 24.3219 204.546 23.2963 204.546 22.1557C204.546 21.0286 204.803 20.0099 205.317 19.1062C205.832 18.2025 206.543 17.4951 207.457 16.9908C208.367 16.4831 209.396 16.2326 210.54 16.2326C211.667 16.2326 212.679 16.4831 213.569 16.9806C214.459 17.4782 215.153 18.1822 215.654 19.0859C216.155 19.9895 216.402 21.0354 216.402 22.2234C216.395 22.4062 216.382 22.6735 216.351 23.0188ZM208.33 19.1671C207.731 19.6816 207.365 20.3652 207.233 21.2182H213.809C213.694 20.3788 213.339 19.6985 212.747 19.1772C212.154 18.656 211.417 18.3954 210.533 18.3954C209.667 18.3988 208.932 18.6526 208.33 19.1671Z" fill="#3A76F0"/>
<path d="M229.091 17.5052C229.975 18.3581 230.415 19.624 230.415 21.3028V27.9434H227.7V21.648C227.7 20.636 227.46 19.8711 226.983 19.36C226.505 18.8455 225.825 18.5883 224.942 18.5883C223.943 18.5883 223.155 18.8895 222.576 19.4886C221.997 20.0877 221.706 20.9541 221.706 22.0812V27.94H218.992V16.3511H221.574V17.8471C222.021 17.3123 222.586 16.9061 223.266 16.632C223.947 16.3578 224.712 16.2191 225.568 16.2191C227.037 16.2258 228.208 16.6523 229.091 17.5052Z" fill="#3A76F0"/>
<path d="M240.836 27.3172C240.518 27.5778 240.132 27.7742 239.675 27.9028C239.218 28.0314 238.737 28.0991 238.233 28.0991C236.96 28.0991 235.976 27.7674 235.282 27.1006C234.588 26.4338 234.239 25.4659 234.239 24.1932V18.6154H232.33V16.4458H234.239V13.7991H236.954V16.4458H240.057V18.6154H236.954V24.1289C236.954 24.6942 237.092 25.124 237.367 25.4218C237.641 25.7197 238.04 25.8686 238.561 25.8686C239.171 25.8686 239.675 25.7095 240.081 25.3914L240.836 27.3172Z" fill="#3A76F0"/>
<path d="M33.4674 19.3905V30.1772C33.4674 31.4431 32.4385 32.472 31.1726 32.472H25.4357V29.0298C25.4357 28.0788 25.0498 27.2191 24.4305 26.5963C23.8043 25.9701 22.9446 25.5877 21.9935 25.5877C20.0948 25.5877 18.5514 27.1311 18.5514 29.0298V32.472H12.8178C11.552 32.472 10.5231 31.4465 10.5231 30.1772V19.3905C10.5231 18.6729 10.8581 17.9994 11.4301 17.5661L20.6092 10.5871C21.4283 9.96092 22.5655 9.96092 23.388 10.5871L32.5671 17.5661C33.1323 17.9994 33.4674 18.6729 33.4674 19.3905Z" fill="#3A76F0"/>
<path d="M21.9932 44C18.3175 44 14.6757 43.0692 11.4603 41.3126C11.0372 41.0825 10.5735 41.0182 10.1471 41.1332L4.41015 42.6698C3.56062 42.8966 2.64677 42.6529 2.024 42.0302C1.40123 41.4074 1.15754 40.4935 1.38431 39.644L2.91415 33.9375C3.02923 33.5077 2.96493 33.0406 2.73139 32.6175C0.94431 29.3818 0 25.7095 0 22C0 9.86954 9.86954 0 22 0C34.1305 0 44 9.86954 44 22C44 34.1305 34.1271 44 21.9932 44ZM10.5735 37.5455C11.4603 37.5455 12.3437 37.7723 13.156 38.2157C15.8535 39.6914 18.9099 40.4698 21.9966 40.4698C32.1809 40.4698 40.4665 32.1843 40.4665 22C40.4665 11.8157 32.1809 3.53015 21.9966 3.53015C11.8123 3.53015 3.52677 11.8157 3.52677 22C3.52677 25.1138 4.31877 28.1938 5.81816 30.9083C6.49508 32.1335 6.67447 33.5348 6.32246 34.848L5.26646 38.7843L9.23323 37.7215C9.67323 37.6031 10.1234 37.5455 10.5735 37.5455Z" fill="#3A76F0"/>
</svg>
