<svg width="33" height="31" viewBox="0 0 33 31" fill="none" xmlns="http://www.w3.org/2000/svg">
<circle cx="14.7337" cy="14.734" r="14.734" fill="white"/>
<path d="M21.3671 12.7043V18.6375C21.3671 19.3338 20.8012 19.8998 20.1049 19.8998H16.9493V18.0064C16.9493 17.4833 16.7371 17.0104 16.3964 16.6679C16.052 16.3234 15.5791 16.1131 15.056 16.1131C14.0115 16.1131 13.1626 16.962 13.1626 18.0064V19.8998H10.0089C9.3126 19.8998 8.74664 19.3357 8.74664 18.6375V12.7043C8.74664 12.3096 8.93095 11.9391 9.24558 11.7008L14.2945 7.86201C14.745 7.51759 15.3706 7.51759 15.823 7.86201L20.8719 11.7008C21.1828 11.9391 21.3671 12.3096 21.3671 12.7043Z" fill="#3A76F0"/>
<path d="M15.0563 26.2408C13.0345 26.2408 11.0313 25.7288 9.26271 24.7626C9.03 24.636 8.77495 24.6006 8.54037 24.6639L5.38478 25.5091C4.9175 25.6339 4.41484 25.4998 4.07229 25.1573C3.72973 24.8147 3.59569 24.3121 3.72042 23.8448L4.56191 20.7059C4.62521 20.4695 4.58984 20.2126 4.46138 19.9799C3.4784 18.2001 2.95898 16.1801 2.95898 14.1397C2.95898 7.46736 8.38771 2.03864 15.0601 2.03864C21.7324 2.03864 27.1611 7.46736 27.1611 14.1397C27.1611 20.812 21.7305 26.2408 15.0563 26.2408ZM8.77495 22.6905C9.26271 22.6905 9.74862 22.8152 10.1954 23.0591C11.6792 23.8708 13.3603 24.299 15.0582 24.299C20.6601 24.299 25.2175 19.7416 25.2175 14.1397C25.2175 8.53784 20.6601 3.98039 15.0582 3.98039C9.45633 3.98039 4.89888 8.53784 4.89888 14.1397C4.89888 15.8525 5.33452 17.5466 6.15925 19.0397C6.53159 19.7136 6.63027 20.4844 6.43665 21.2067L5.85579 23.3719L8.03771 22.7873C8.27973 22.7222 8.52734 22.6905 8.77495 22.6905Z" fill="#3A76F0"/>
<rect x="18.1611" y="16.7832" width="14" height="14" rx="3.11719" fill="url(#paint0_linear_13_56)"/>
<g clip-path="url(#clip0_13_56)">
<path d="M24.9426 19.3368C27.2529 19.3368 29.1258 21.2096 29.1258 23.52C29.1258 25.8304 27.2529 27.7033 24.9426 27.7033C24.2306 27.7043 23.5302 27.5228 22.9083 27.1762L22.7807 27.1017L21.5123 27.4749C21.4433 27.4952 21.3702 27.4976 21.3 27.4817C21.2298 27.4659 21.1648 27.4325 21.1112 27.3845C21.0576 27.3365 21.0171 27.2756 20.9936 27.2076C20.9701 27.1396 20.9643 27.0667 20.9769 26.9959L20.9877 26.9503L21.3609 25.6819C20.9664 25.0299 20.7583 24.2821 20.7593 23.52C20.7593 21.2096 22.6322 19.3368 24.9426 19.3368ZM24.9426 20.1735C24.3434 20.1734 23.7551 20.3341 23.2393 20.639C22.7234 20.9438 22.2989 21.3816 22.01 21.9065C21.7211 22.4315 21.5785 23.0244 21.597 23.6233C21.6155 24.2222 21.7944 24.8052 22.1151 25.3113C22.198 25.4418 22.2335 25.6024 22.2055 25.7618L22.1892 25.83L22.0047 26.4579L22.6326 26.2734C22.8137 26.2199 23.002 26.2525 23.1513 26.3475C23.5898 26.6252 24.087 26.797 24.6034 26.8495C25.1198 26.9019 25.6413 26.8336 26.1267 26.6497C26.6121 26.4659 27.0481 26.1717 27.4003 25.7904C27.7524 25.409 28.011 24.951 28.1556 24.4525C28.3003 23.954 28.327 23.4287 28.2336 22.9181C28.1402 22.4075 27.9294 21.9256 27.6177 21.5106C27.3061 21.0955 26.9021 20.7586 26.4378 20.5266C25.9735 20.2945 25.4616 20.1736 24.9426 20.1735ZM23.7303 21.5054C23.7766 21.4853 23.8273 21.4777 23.8775 21.4832C23.9277 21.4887 23.9755 21.5072 24.0164 21.5368C24.2272 21.6907 24.3946 21.8974 24.5385 22.099L24.6753 22.2973L24.7393 22.3914C24.7762 22.4454 24.7943 22.5101 24.7908 22.5754C24.7874 22.6407 24.7625 22.7031 24.72 22.7528L24.6886 22.7846L24.3021 23.0716C24.2835 23.0851 24.2704 23.1048 24.2653 23.1272C24.2601 23.1496 24.2632 23.1731 24.2741 23.1933C24.3619 23.3523 24.5171 23.5895 24.6953 23.7677C24.874 23.9459 25.122 24.1115 25.2919 24.209C25.3287 24.2299 25.373 24.2232 25.4031 24.196L25.419 24.1772L25.6704 23.7945C25.7166 23.733 25.7848 23.6917 25.8606 23.6794C25.9365 23.6671 26.0142 23.6846 26.0775 23.7284L26.3046 23.8869C26.5305 24.048 26.7476 24.2211 26.9195 24.4408C26.9515 24.482 26.9718 24.531 26.9784 24.5827C26.9849 24.6344 26.9775 24.687 26.9568 24.7348C26.7911 25.1214 26.3715 25.4506 25.9357 25.4347L25.8691 25.4305L25.7892 25.423C25.7742 25.4212 25.7591 25.4192 25.7441 25.4171L25.6445 25.4004C25.258 25.3276 24.6384 25.1084 23.9963 24.4667C23.3546 23.8246 23.1354 23.205 23.0626 22.8185L23.0459 22.719L23.0354 22.6319L23.03 22.5587C23.0293 22.5483 23.0288 22.5378 23.0283 22.5274C23.0124 22.0906 23.3433 21.6711 23.7303 21.5054Z" fill="white"/>
</g>
<defs>
<linearGradient id="paint0_linear_13_56" x1="25.1611" y1="16.7832" x2="25.1611" y2="30.7832" gradientUnits="userSpaceOnUse">
<stop stop-color="#5CF777"/>
<stop offset="1" stop-color="#0EBC29"/>
</linearGradient>
<clipPath id="clip0_13_56">
<rect width="10.0397" height="10.0397" fill="white" transform="translate(19.9229 18.5002)"/>
</clipPath>
</defs>
</svg>
