<svg width="34" height="26" viewBox="0 0 34 26" fill="none" xmlns="http://www.w3.org/2000/svg">
<path d="M15.8337 1.90576L13.5958 2.37716e-06C5.17082 4.90052 1.22162 10.4817 0.168496 16.7435C-0.621345 21.9162 1.35326 26 6.35558 26C9.90986 26 13.3325 23.5497 14.1223 19.466C14.7805 14.7016 12.1477 11.8429 8.85674 11.1623C10.1731 6.53404 15.702 1.90576 15.8337 1.90576ZM27.1547 10.8901C28.6028 6.39792 33.8684 1.90576 34 1.90576L31.7621 5.55347e-06C23.3372 4.90053 19.388 10.4817 18.3348 16.7435C17.545 21.9162 19.5196 26 24.5219 26C28.0762 26 31.4988 23.5497 32.157 19.466C32.9469 14.7016 30.4457 11.5707 27.1547 10.8901Z" fill="#757B8A"/>
</svg>
