<svg width="116" height="20" viewBox="0 0 116 20" fill="none" xmlns="http://www.w3.org/2000/svg">
<rect width="20" height="20" fill="#219653"/>
<path d="M10 13.6761L13.0417 12.8616L14.3125 17L10 13.6761ZM17 8.32704H11.6458L10 3L8.35417 8.32704H3L7.33334 11.6289L5.6875 16.956L10.0208 13.6541L12.6875 11.6289L17 8.32704Z" fill="white"/>
<rect width="20" height="20" transform="translate(24)" fill="#219653"/>
<path d="M34 13.6761L37.0417 12.8616L38.3125 17L34 13.6761ZM41 8.32704H35.6458L34 3L32.3542 8.32704H27L31.3333 11.6289L29.6875 16.956L34.0208 13.6541L36.6875 11.6289L41 8.32704Z" fill="white"/>
<rect width="20" height="20" transform="translate(48)" fill="#219653"/>
<path d="M58 13.6761L61.0417 12.8616L62.3125 17L58 13.6761ZM65 8.32704H59.6458L58 3L56.3542 8.32704H51L55.3333 11.6289L53.6875 16.956L58.0208 13.6541L60.6875 11.6289L65 8.32704Z" fill="white"/>
<rect width="20" height="20" transform="translate(72)" fill="#219653"/>
<path d="M82 13.6761L85.0417 12.8616L86.3125 17L82 13.6761ZM89 8.32704H83.6458L82 3L80.3542 8.32704H75L79.3333 11.6289L77.6875 16.956L82.0208 13.6541L84.6875 11.6289L89 8.32704Z" fill="white"/>
<rect width="20" height="20" transform="translate(96)" fill="#219653"/>
<path d="M106 13.6761L109.042 12.8616L110.313 17L106 13.6761ZM113 8.32704H107.646L106 3L104.354 8.32704H99L103.333 11.6289L101.687 16.956L106.021 13.6541L108.687 11.6289L113 8.32704Z" fill="white"/>
</svg>
