<svg width="30" height="31" viewBox="0 0 30 31" fill="none" xmlns="http://www.w3.org/2000/svg">
<path d="M14.0389 0.704102H15.9131C15.9909 0.724767 16.07 0.740554 16.1497 0.751393C18.4571 0.904389 20.6927 1.61541 22.6643 2.82326C26.538 5.20497 28.9233 8.63443 29.7634 13.1164C29.8651 13.6604 29.9195 14.2138 30 14.772V16.6452C29.955 17.0023 29.9196 17.3547 29.8675 17.7166C29.2735 21.7373 27.3994 25.0486 24.1882 27.5461C20.8919 30.11 17.127 31.0938 12.9954 30.5664C9.54535 30.1489 6.36221 28.5002 4.03163 25.9237C0.841779 22.4587 -0.447875 18.3552 0.136615 13.6817C0.498014 10.7435 1.76022 7.98899 3.75004 5.79624C5.99427 3.21643 9.06759 1.49868 12.4417 0.938249C12.9575 0.836547 13.4994 0.777421 14.0389 0.704102ZM11.8406 19.6773C10.4253 20.7653 8.64804 21.2728 6.87125 21.0964C6.87125 21.1248 6.87127 21.1484 6.89257 21.1579C6.93824 21.1937 6.98648 21.2261 7.03691 21.2548C10.1132 22.9767 13.2959 23.1754 16.4313 21.6025C19.9951 19.8121 21.6728 16.7303 21.8148 12.7876C21.8067 12.6609 21.8311 12.5341 21.8858 12.4195C21.9404 12.3048 22.0235 12.206 22.1272 12.1325C22.6544 11.7267 23.1102 11.2359 23.476 10.6803L21.7083 11.1533L21.6728 11.0729C22.2996 10.6601 22.7741 10.0537 23.024 9.34633C22.3945 9.56865 21.7651 9.78626 21.1309 10.0157C21.0552 10.0457 20.9719 10.0511 20.8929 10.0311C20.8139 10.0112 20.7432 9.96686 20.6908 9.9045C19.6614 8.98682 18.4688 8.72192 17.1791 9.19495C16.5705 9.39779 16.0349 9.77498 15.639 10.2796C15.2431 10.7842 15.0043 11.394 14.9524 12.0331C14.9286 12.423 14.9286 12.814 14.9524 13.2039C12.1127 13.0052 9.78189 11.8014 7.8959 9.59941C7.07004 11.4158 7.42263 12.9106 8.89686 14.1854L8.85426 14.2469L7.43444 13.8472C7.33506 15.2521 8.26267 16.4489 10.0374 17.253H8.61762C9.21394 18.7407 10.248 19.5188 11.8406 19.6773Z" fill="white"/>
</svg>
