<svg xmlns="http://www.w3.org/2000/svg" width="348" height="232" fill="none"><path fill="#E0E0E0" d="m50.33 93.45 76.639.542 24.685 30.397H25.947l24.383-30.94Z"/><path fill="#F5F5F5" d="M31.413 217.825h111.485v-93.436H31.413v93.436ZM89.863 107.133l-5.883 9.8H57.43v-9.8l11.586-21.029 14.963 20.848 5.884.181Z"/><path fill="#E0E0E0" d="M21.706 217.825h4.245v-32.986h-4.245v32.986ZM56.311 217.825h11.577v-27.418H56.31v27.418Z"/><path fill="#fff" d="M73.139 106.501a4.329 4.329 0 1 0-6.122-6.122 4.329 4.329 0 0 0 6.122 6.122Z"/><path fill="#E0E0E0" d="M70.459 217.825h4.245v-32.986H70.46v32.986Z"/><path fill="#FAFAFA" d="M57.569 205.635a.6.6 0 1 0 1.199 0 .6.6 0 0 0-1.2 0Z"/><path fill="#E0E0E0" d="M31.408 165.11c0 .06 24.898.106 55.606.106 30.708 0 55.606-.046 55.606-.106 0-.061-24.894-.103-55.606-.103-30.712 0-55.606.047-55.606.103ZM31.408 168.432c0 .06 24.898.107 55.606.107 30.708 0 55.606-.047 55.606-.107s-24.894-.102-55.606-.102c-30.712 0-55.606.023-55.606.102ZM31.408 171.708c0 .06 24.898.106 55.606.106 30.708 0 55.606-.046 55.606-.106 0-.061-24.894-.102-55.606-.102-30.712 0-55.606.046-55.606.102ZM31.408 175.007c0 .055 24.898.102 55.606.102 30.708 0 55.606-.047 55.606-.102 0-.056-24.894-.079-55.606-.079-30.712 0-55.606.023-55.606.079ZM31.408 178.306c0 .056 24.898.102 55.606.102 30.708 0 55.606-.046 55.606-.102 0-.056-24.894-.107-55.606-.107-30.712 0-55.606.051-55.606.107ZM31.408 181.605c0 .055 24.898.102 55.606.102 30.708 0 55.606-.047 55.606-.102 0-.056-24.894-.107-55.606-.107-30.712 0-55.606.046-55.606.107ZM31.408 184.904c0 .056 24.898.102 55.606.102 30.708 0 55.606-.046 55.606-.102 0-.056-24.894-.107-55.606-.107-30.712 0-55.606.047-55.606.107ZM31.408 188.198c0 .061 24.898.107 55.606.107 30.708 0 55.606-.046 55.606-.107 0-.06-24.894-.102-55.606-.102-30.712 0-55.606.047-55.606.102Z"/><path fill="#fff" d="M54.474 159.723h27.881v-28.917H54.474v28.917Z"/><path fill="#E0E0E0" d="M54.478 159.718v-7.99c0-5.062.028-12.277.047-20.926l-.088.092h27.877l-.102-.106v28.916l.088-.088-20.194.046-5.67.024h-1.498 1.48l5.651.023 20.25.046h.087v-29.111H54.33v.088c0 8.672.037 15.906.046 20.987v7.8c0 .092.102.199.102.199Z"/><path fill="#E0E0E0" d="M67.888 159.324c.055 0 .102-6.343.102-14.166s-.046-14.171-.102-14.171c-.056 0-.107 6.343-.107 14.171 0 7.827.046 14.166.107 14.166Z"/><path fill="#E0E0E0" d="M54.785 146.188c0 .055 6.101.102 13.632.102 7.53 0 13.637-.047 13.637-.102 0-.056-6.106-.102-13.637-.102-7.53 0-13.633.046-13.633.102Z"/><path fill="#FAFAFA" d="M38.466 153.867h8.607V137h-8.607v16.867Z"/><path fill="#E0E0E0" d="M38.47 153.867a.68.68 0 0 0 0-.088v-1.17c0-.825 0-2.013.028-3.498 0-2.993.028-7.192.047-12.097l-.098.098h8.603c.027 0-.195-.195-.102-.098V153.872l.074-.079-6.269.041-1.721.024h-.622a.864.864 0 0 0 .144 0H40.72l6.315.041h.079v-16.936c.092.089-.126-.134-.107-.111h-8.635v.097c0 4.933.032 9.155.046 12.162 0 1.475 0 2.654.028 3.475v1.165c.019.093.019.121.023.116Z"/><path fill="#E0E0E0" d="M42.744 153.858c.055 0 .102-3.796.102-8.478 0-4.681-.047-8.477-.102-8.477-.056 0-.102 3.796-.102 8.477 0 4.682.046 8.478.102 8.478Z"/><path fill="#E0E0E0" d="M38.568 146.021c0 .055 1.944.102 4.347.102 2.404 0 4.343-.047 4.343-.102 0-.056-1.944-.107-4.343-.107s-4.347.046-4.347.107Z"/><path fill="#fff" d="M90.216 153.867h8.607V137h-8.607v16.867Z"/><path fill="#E0E0E0" d="M90.22 153.867a.68.68 0 0 0 0-.088v-1.17c0-.825 0-2.013.028-3.498 0-2.993.028-7.192.046-12.097l-.097.098h8.635c.028 0-.195-.195-.102-.098V153.872l.079-.079-6.273.041-1.722.024h-.622a.863.863 0 0 0 .144 0h2.144l6.32.041h.074V137.01c.093.088-.125-.135-.107-.112H90.067v.098c0 4.932.033 9.155.047 12.161 0 1.476 0 2.654.027 3.476V153.797c0 .061.075.075.08.07Z"/><path fill="#E0E0E0" d="M94.494 153.858c.055 0 .102-3.796.102-8.478 0-4.681-.047-8.477-.102-8.477-.056 0-.103 3.796-.103 8.477 0 4.682.047 8.478.103 8.478Z"/><path fill="#E0E0E0" d="M90.318 146.021c0 .055 1.944.102 4.347.102 2.404 0 4.343-.047 4.343-.102 0-.056-1.944-.107-4.343-.107s-4.347.046-4.347.107Z"/><path fill="#FAFAFA" d="M78.082 207.974h8.607v-16.867h-8.607v16.867Z"/><path fill="#E0E0E0" d="M78.087 207.974a.68.68 0 0 0 0-.088v-1.174c0-.831 0-2.014.028-3.499 0-2.992.027-7.192.046-12.096l-.097.097h8.602l-.102-.102V207.979l.074-.079-6.268.042h-2.186a1.038 1.038 0 0 0-.158 0 .863.863 0 0 0 .144 0H80.337l6.315.041h.116v-16.945l-.107-.107H77.961v.098c0 4.927.033 9.154.047 12.161 0 1.476 0 2.654.028 3.476V207.83c0 .065.046.144.05.144Z"/><path fill="#E0E0E0" d="M82.36 207.965c.056 0 .102-3.796.102-8.478 0-4.681-.046-8.477-.102-8.477-.056 0-.102 3.796-.102 8.477 0 4.682.046 8.478.102 8.478Z"/><path fill="#E0E0E0" d="M78.184 200.128c0 .055 1.944.102 4.348.102 2.403 0 4.343-.047 4.343-.102 0-.056-1.944-.107-4.343-.107-2.4 0-4.348.046-4.348.107Z"/><path fill="#FAFAFA" d="M41.101 207.974h8.607v-16.867h-8.607v16.867Z"/><path fill="#E0E0E0" d="M41.097 207.974a.36.36 0 0 0 0-.088v-1.174c0-.831 0-2.014.023-3.499 0-2.992.028-7.192.046-12.096l-.097.097h8.607l-.102-.102V207.979l.079-.079-6.269.042h-2.348 2.292l6.315.041h.08V191.038l-.107-.107H40.91v.098c0 4.927.037 9.154.051 12.161v4.64c.134.121.135.144.135.144Z"/><path fill="#E0E0E0" d="M45.374 207.965c.056 0 .103-3.796.103-8.478 0-4.681-.047-8.477-.102-8.477-.056 0-.107 3.796-.107 8.477 0 4.682.046 8.478.106 8.478Z"/><path fill="#E0E0E0" d="M41.199 200.128c0 .055 1.944.102 4.343.102 2.398 0 4.347-.047 4.347-.102 0-.056-1.944-.107-4.348-.107-2.403 0-4.342.046-4.342.107ZM107.917 217.825c.061 0 .107-7.67.107-17.136 0-9.465-.046-17.131-.107-17.131-.06 0-.102 7.67-.102 17.131s.047 17.136.102 17.136ZM102.386 159.323a1.497 1.497 0 0 0 0-.232v-.644c0-.576.023-1.365.037-2.32l-.069.069c2.143 0 5.229.033 8.653.033l-.102-.102V159.323l.098-.097c-2.478 0-4.64.028-6.172.046l-1.809.028h-.673a.56.56 0 0 0 .153 0h.464l1.791.028c1.536 0 3.712.042 6.236.047h.102v-3.309l-.106-.107c-3.425 0-6.496 0-8.654.033h-.074v.07c0 .988.028 1.795.037 2.38v.631c.019.087.048.171.088.25ZM48.256 133.678a2.005 2.005 0 0 0 0-.222v-.604c0-.543 0-1.271.042-2.157l-.08.074 6.242.028-.102-.102v2.974l.102-.102c-1.8 0-3.346.032-4.455.051l-1.285.014a3.6 3.6 0 0 0-.464.028c.154.008.31.008.464 0l1.285.028c1.1 0 2.677.037 4.52.046h.097v-3.072l-.107-.106-6.26.06h-.078v.074c0 .905.028 1.647.042 2.204v.585a.937.937 0 0 0 .037.199Z"/><path fill="#E0E0E0" d="M96.846 162.381h8.375v-3.057h-8.375v3.057ZM86.564 136.908h8.375v-3.058h-8.375v3.058ZM46.14 159.597h8.375v-3.057H46.14v3.057ZM31.413 148.322h6.974v-3.058h-6.974v3.058ZM107.917 185.006h-91.78l19.971-16.491H85.78l22.137 16.491ZM89.863 107.133h4.802L78.04 84.04l-10.5.11 16.44 22.802 5.883.181Z"/><path fill="#EBEBEB" d="M57.43 107.133h-3.207L67.54 84.151l1.475 1.953-11.586 21.029ZM83.98 116.933v-9.967h5.883l-5.884 9.967ZM85.78 168.515l-17.382 16.491h39.649L85.78 168.515Z"/><path fill="#F5F5F5" d="M213.848 217.713h57.727V34.763h-57.727v182.95Z"/><path fill="#EBEBEB" d="M213.848 217.208h28.866V34.763h-28.866v182.445Z"/><path fill="#F5F5F5" d="M244.602 34.763h20.384V16.8h-20.384v17.962Z"/><path fill="#EBEBEB" d="M244.602 34.763h4.858V16.8h-4.858v17.962Z"/><path fill="#E0E0E0" d="M276.386 34.767V33.72h-64.227v1.048"/><path fill="#FAFAFA" d="M255.297 52.9h4.886V42.6h-4.886v10.3Z"/><path fill="#E0E0E0" d="M242.714 56.947c0 .106 6.459.194 14.43.194 7.972 0 14.431-.088 14.431-.194 0-.107-6.459-.2-14.431-.2-7.971 0-14.43.088-14.43.2ZM226.177 52.9h4.886V42.6h-4.886v10.3ZM213.598 56.947c0 .106 6.463.194 14.43.194s14.431-.088 14.431-.194c0-.107-6.459-.2-14.431-.2-7.971 0-14.43.088-14.43.2ZM226.177 73.358h4.886V63.053h-4.886v10.305ZM213.598 77.4c0 .111 6.463.2 14.43.2s14.431-.089 14.431-.2c0-.112-6.459-.195-14.431-.195-7.971 0-14.43.088-14.43.195ZM226.177 94.433h4.886V84.128h-4.886v10.305ZM213.598 98.475c0 .111 6.463.195 14.43.195s14.431-.084 14.431-.195c0-.112-6.459-.195-14.431-.195-7.971 0-14.43.088-14.43.195ZM226.177 115.503h4.886v-10.305h-4.886v10.305ZM213.598 119.549c0 .107 6.463.195 14.43.195s14.431-.088 14.431-.195c0-.106-6.459-.199-14.431-.199-7.971 0-14.43.088-14.43.199ZM226.177 135.975h4.886V125.67h-4.886v10.305ZM213.598 140.016c0 .112 6.463.2 14.43.2s14.431-.088 14.431-.2c0-.111-6.459-.194-14.431-.194-7.971 0-14.43.088-14.43.194ZM226.177 156.53h4.886v-10.305h-4.886v10.305ZM226.177 177.35h4.886v-10.305h-4.886v10.305ZM213.598 160.572c0 .106 6.463.195 14.43.195s14.431-.089 14.431-.195c0-.107-6.459-.195-14.431-.195-7.971 0-14.43.088-14.43.195Z"/><path fill="#FAFAFA" d="M255.297 73.67h4.886V63.363h-4.886v10.305Z"/><path fill="#E0E0E0" d="M242.714 77.715c0 .107 6.459.195 14.43.195 7.972 0 14.431-.088 14.431-.195 0-.106-6.459-.2-14.431-.2-7.971 0-14.43.089-14.43.2Z"/><path fill="#FAFAFA" d="M255.297 94.438h4.886V84.132h-4.886v10.306Z"/><path fill="#E0E0E0" d="M242.714 98.484c0 .107 6.459.195 14.43.195 7.972 0 14.431-.088 14.431-.195 0-.107-6.459-.2-14.431-.2-7.971 0-14.43.084-14.43.2Z"/><path fill="#FAFAFA" d="M255.297 115.206h4.886v-10.305h-4.886v10.305Z"/><path fill="#E0E0E0" d="M242.714 119.248c0 .107 6.459.195 14.43.195 7.972 0 14.431-.088 14.431-.195 0-.107-6.459-.2-14.431-.2-7.971 0-14.43.093-14.43.2Z"/><path fill="#FAFAFA" d="M255.297 135.975h4.886V125.67h-4.886v10.305Z"/><path fill="#E0E0E0" d="M242.714 140.016c0 .112 6.459.2 14.43.2 7.972 0 14.431-.088 14.431-.2 0-.111-6.459-.194-14.431-.194-7.971 0-14.43.088-14.43.194Z"/><path fill="#FAFAFA" d="M255.297 156.744h4.886v-10.306h-4.886v10.306Z"/><path fill="#E0E0E0" d="M242.714 160.785c0 .112 6.459.2 14.43.2 7.972 0 14.431-.088 14.431-.2 0-.111-6.459-.195-14.431-.195-7.971 0-14.43.088-14.43.195Z"/><path fill="#FAFAFA" d="M255.297 177.512h4.886v-10.305h-4.886v10.305Z"/><path fill="#EBEBEB" d="M251.688 217.713h66.713l.293-105.434H251.98l-.292 105.434Z"/><path fill="#E0E0E0" d="M251.98 217.718h33.357V112.283H251.98v105.435Z"/><path fill="#EBEBEB" d="M287.518 112.279h23.557V91.524h-23.557v20.755Z"/><path fill="#E0E0E0" d="M287.518 112.279h5.614V91.524h-5.614v20.755Z"/><path fill="#E0E0E0" d="M250.026 112.279h74.227v-1.211h-74.227v1.211Z"/><path fill="#fff" d="M299.879 133.242h5.647v-11.906h-5.647v11.906Z"/><path fill="#E0E0E0" d="M285.36 137.915c0 .125 7.466.222 16.676.222 9.211 0 16.704-.097 16.704-.222 0-.126-7.465-.228-16.704-.228-9.238 0-16.676.121-16.676.228Z"/><path fill="#F5F5F5" d="M266.234 133.242h5.647v-11.906h-5.647v11.906Z"/><path fill="#EBEBEB" d="M251.688 137.915c0 .125 7.47.222 16.704.222 9.233 0 16.676-.097 16.676-.222 0-.126-7.466-.228-16.676-.228-9.211 0-16.704.121-16.704.228Z"/><path fill="#F5F5F5" d="M266.234 156.878h5.647v-11.906h-5.647v11.906Z"/><path fill="#EBEBEB" d="M251.688 161.551c0 .125 7.47.227 16.704.227 9.233 0 16.676-.102 16.676-.227 0-.126-7.466-.228-16.676-.228-9.211 0-16.704.102-16.704.228Z"/><path fill="#F5F5F5" d="M266.234 181.234h5.647v-11.907h-5.647v11.907Z"/><path fill="#EBEBEB" d="M251.688 185.906c0 .125 7.47.227 16.704.227 9.233 0 16.676-.102 16.676-.227s-7.466-.227-16.676-.227c-9.211 0-16.704.102-16.704.227Z"/><path fill="#F5F5F5" d="M266.234 205.589h5.647v-11.906h-5.647v11.906Z"/><path fill="#EBEBEB" d="M251.688 210.261c0 .126 7.47.228 16.704.228 9.233 0 16.676-.102 16.676-.228 0-.125-7.466-.227-16.676-.227-9.211 0-16.704.102-16.704.227Z"/><path fill="#fff" d="M299.879 157.24h5.647v-11.906h-5.647v11.906Z"/><path fill="#E0E0E0" d="M285.36 161.936c0 .125 7.466.227 16.676.227 9.211 0 16.704-.102 16.704-.227s-7.465-.228-16.704-.228c-9.238 0-16.676.079-16.676.228Z"/><path fill="#fff" d="M299.879 181.238h5.647v-11.906h-5.647v11.906Z"/><path fill="#E0E0E0" d="M285.36 185.915c0 .126 7.466.228 16.676.228 9.211 0 16.704-.102 16.704-.228 0-.125-7.465-.227-16.704-.227-9.238 0-16.676.102-16.676.227Z"/><path fill="#fff" d="M299.879 205.246h5.647v-11.907h-5.647v11.907Z"/><path fill="#E0E0E0" d="M285.36 209.918c0 .125 7.466.227 16.676.227 9.211 0 16.704-.102 16.704-.227s-7.465-.227-16.704-.227c-9.238 0-16.676.102-16.676.227Z"/><path fill="#3A76F0" d="M274.846 191.474a4.918 4.918 0 0 1 2.552 2.896 8.612 8.612 0 0 1 .339 3.92c-.288 2.543-1.731 5.104-3.29 7.146-2.139-1.856-2.636-5.132-2.784-6.802-.232-2.64.956-7.554 3.178-7.16M276.938 209.635a4.218 4.218 0 0 1 .141-2.183 4.218 4.218 0 0 1 1.219-1.817 5.584 5.584 0 0 1 4.12-1.289 2.36 2.36 0 0 1 1.81.812 1.814 1.814 0 0 1 .028 1.823 3.692 3.692 0 0 1-1.35 1.332c-1.856 1.164-3.87 1.949-5.968 1.322Z"/><path fill="#263238" d="M274.192 217.435c.007-.177.032-.352.074-.524.07-.367.158-.84.26-1.392.24-1.573.732-3.098 1.457-4.515a9.073 9.073 0 0 1 3.248-3.443 6.263 6.263 0 0 1 1.318-.584c.162-.051.292-.075.38-.098a.437.437 0 0 1 .135 0c-.615.213-1.207.485-1.768.812a9.343 9.343 0 0 0-3.146 3.42 16.04 16.04 0 0 0-1.49 4.45c-.13.593-.236 1.071-.315 1.392a2.904 2.904 0 0 1-.153.482Z"/><path fill="#263238" d="M274.27 195.293a.73.73 0 0 1 .028.227c0 .172.024.39.037.659.033.571.065 1.392.098 2.413a224.311 224.311 0 0 1-.07 15.938 105.335 105.335 0 0 1-.116 2.413c0 .265-.032.464-.046.654a.763.763 0 0 1-.028.228 1.284 1.284 0 0 1 0-.232v-.654c0-.594.037-1.392.06-2.413.051-2.042.107-4.854.121-7.967.014-3.114 0-5.925-.051-7.962 0-1.003-.028-1.824-.037-2.418v-.654a1.285 1.285 0 0 1 .004-.232Z"/><path fill="#3A76F0" d="M273.231 211.18a9.834 9.834 0 0 0-5.373-7.206c-.714-.343-1.647-.566-2.236-.032-.59.534-.464 1.489-.172 2.227a8.395 8.395 0 0 0 7.73 5.22"/><path fill="#263238" d="M268.192 206.387c.16.053.316.12.464.2.178.08.35.171.515.273.19.121.422.237.654.409.232.171.492.343.747.566.279.225.546.465.799.719.572.592 1.08 1.244 1.512 1.944.417.711.751 1.468.993 2.255.106.345.191.695.255 1.049.06.307.102.616.126.928.027.256.039.513.037.77.013.193.013.387 0 .58-.004.165-.021.33-.051.492-.047 0 .028-.705-.098-1.828a8.297 8.297 0 0 0-.148-.928 8.878 8.878 0 0 0-.265-1.026 11.029 11.029 0 0 0-.993-2.208 11.23 11.23 0 0 0-1.475-1.921 10.963 10.963 0 0 0-.77-.724 8.982 8.982 0 0 0-.729-.575c-.933-.645-1.573-.938-1.573-.975Z"/><path fill="#FFBE9D" d="m210.99 112.822-18.402-1.829-3.011 3.36s18.425 6.324 19.413 6.278c.989-.047 3.865-4.288 3.865-4.288l-1.865-3.521Z"/><path fill="#3A76F0" d="m212.846 205.696.631 7.971s-7.86 3.146-7.888 4.64l15.465-.491-.464-12.463-7.744.343Z"/><path fill="#E0E0E0" d="M218.136 212.823a.637.637 0 0 1 .464.71.61.61 0 0 1-.696.464.67.67 0 0 1-.497-.752.632.632 0 0 1 .78-.413"/><path fill="#263238" d="m221.054 217.806-.037-.993-15.001.803a1.186 1.186 0 0 0-.501.793l15.539-.603ZM213.338 213.723c0 .079.385.098.77.325s.603.543.668.506c.065-.037-.06-.464-.533-.738-.474-.274-.928-.163-.905-.093ZM211.728 214.47c0 .074.32.19.594.501.273.311.362.65.436.645.074-.004.107-.441-.237-.821-.343-.381-.793-.394-.793-.325ZM210.883 216.47c.07 0 .158-.371-.055-.78-.214-.408-.576-.561-.608-.496-.033.065.199.278.371.617.172.339.214.654.292.659ZM213.394 211.876c.037.07.38-.051.812-.037.431.014.775.13.812.065.037-.065-.297-.325-.808-.334-.51-.009-.853.251-.816.306ZM213.046 210.192c.258.059.528.046.779-.037a3.509 3.509 0 0 0 1.248-.543.925.925 0 0 0 .228-.195.334.334 0 0 0 0-.404.43.43 0 0 0-.344-.162c-.099.003-.197.02-.292.051-.16.05-.315.114-.464.19-.259.13-.496.301-.701.506-.348.348-.464.64-.431.654.032.014.199-.222.557-.515a3.03 3.03 0 0 1 .682-.427c.142-.062.29-.114.441-.153.167-.051.306-.06.352 0 .047.061 0 .037 0 .088a.862.862 0 0 1-.167.14c-.35.251-.739.446-1.15.575a5.097 5.097 0 0 0-.738.232Z"/><path fill="#3A76F0" d="m232.376 205.696.626 7.971s-7.86 3.146-7.888 4.64l15.47-.491-.464-12.463-7.744.343Z"/><path fill="#E0E0E0" d="M237.666 212.823a.638.638 0 0 1 .464.71.608.608 0 0 1-.696.464.673.673 0 0 1-.497-.752.635.635 0 0 1 .78-.413"/><path fill="#263238" d="m240.584 217.806-.037-.993-15.006.803a1.2 1.2 0 0 0-.501.793l15.544-.603ZM232.863 213.723c0 .079.39.098.775.325s.598.543.668.506c.07-.037-.065-.464-.538-.738-.473-.274-.924-.163-.905-.093ZM231.253 214.47c0 .074.32.19.594.501.274.311.362.65.441.645.079-.004.102-.441-.242-.821-.343-.381-.793-.394-.793-.325ZM230.409 216.47c.069 0 .157-.371-.056-.78-.214-.408-.575-.561-.608-.496-.032.065.204.278.371.617.167.339.214.654.293.659ZM232.928 211.876c.033.07.376-.051.812-.037.436.014.77.13.807.065.038-.065-.297-.325-.807-.334-.51-.009-.858.251-.812.306ZM232.571 210.192c.258.059.528.046.779-.037.28-.06.552-.155.808-.283.161-.075.316-.162.464-.26a.92.92 0 0 0 .227-.195.324.324 0 0 0 0-.404.42.42 0 0 0-.343-.162c-.1.003-.198.02-.293.051-.159.05-.315.114-.464.19a2.774 2.774 0 0 0-.7.506c-.348.348-.464.64-.432.654.033.014.2-.222.557-.515a3.15 3.15 0 0 1 .682-.427c.151-.062.306-.113.464-.153.167-.051.306-.06.353 0 .046.061 0 .037 0 .088a.659.659 0 0 1-.167.14 3.925 3.925 0 0 1-.404.255 4.55 4.55 0 0 1-.742.32 5.137 5.137 0 0 0-.789.232ZM220.915 136.583c-.728.928-15.46 35.264-15.46 38.739 0 3.476 5.507 35.687 5.507 35.687l10.115-.348s.747-17.335-.162-22.425c-.909-5.091-1.573-11.916-1.573-11.916l14.486-25.552s1.633-9.823 0-12.733c-1.633-2.909-12.913-1.452-12.913-1.452Z"/><path fill="#263238" d="M220.006 163.138c0 .362 5.261 15.075 6.12 19.622.858 4.548 4.723 28.629 4.723 28.629l10.069-.728s-.928-25.52-2.543-32.429c-1.614-6.909-2.913-12.733-2.913-16.732 0-4 1.243-4.009.714-9.744-.529-5.735-6.533-7.54-6.533-7.54l-9.637 18.922Z"/><path fill="#455A64" d="M227.207 161.064a2.92 2.92 0 0 1-.186.649c-.13.418-.343 1.012-.626 1.736a52.97 52.97 0 0 1-5.693 10.732c-.464.64-.817 1.151-1.086 1.494a2.943 2.943 0 0 1-.436.515c.098-.203.217-.395.352-.575l1.012-1.536a70.414 70.414 0 0 0 3.081-5.225 68.672 68.672 0 0 0 2.598-5.475c.279-.682.515-1.248.705-1.698.074-.214.167-.421.279-.617Z"/><path fill="#263238" d="M220.21 81.395a3.585 3.585 0 0 1-.989-3.712.45.45 0 0 0 .082-.198.454.454 0 0 0-.124-.397.462.462 0 0 0-.18-.115 2.672 2.672 0 0 1-1.142-1.75 2.067 2.067 0 0 1 .738-1.915c-.998-.465-1.29-1.922-.696-2.859a2.783 2.783 0 0 1 2.914-1.08 1.572 1.572 0 0 1 .431-1.83 3.112 3.112 0 0 1 1.856-.677c.901-.07 1.954.144 2.381.928a1.393 1.393 0 0 1 1.248-.928 3.031 3.031 0 0 1 3.276 2.376 2.748 2.748 0 0 1 1.614-.464 1.302 1.302 0 0 1 1.198 1.035 1.65 1.65 0 0 1 1.484-.622c.408-.016.811.092 1.156.311a1 1 0 0 1 .417 1.063 1.59 1.59 0 0 1 1.879 1.005 1.588 1.588 0 0 1-.816 1.969 2.024 2.024 0 0 1 .847 1.78 2.023 2.023 0 0 1-1.065 1.658.558.558 0 0 1 .274.826 1.094 1.094 0 0 1-.891.418c0 1.183.023 2.361.037 3.54a7.14 7.14 0 0 1-.218 2.264 2.434 2.434 0 0 1-1.457 1.643"/><path fill="#FFBE9D" d="M220.201 77.984c.12-2.853 3.122-5.767 5.962-5.53l9.215 1.563v1.536l.116 19.818-10.709 4.732.148-7.424s-3.642-.529-4.486-5.266c-.423-2.371-.386-6.255-.246-9.428Z"/><path fill="#263238" d="M221.296 81.237a.606.606 0 0 0 .598.603.583.583 0 0 0 .613-.561.604.604 0 0 0-.594-.603.579.579 0 0 0-.617.561ZM221.077 79.984c.075.08.529-.273 1.184-.283.654-.009 1.136.307 1.206.223.07-.083-.042-.176-.255-.325a1.661 1.661 0 0 0-.956-.255 1.595 1.595 0 0 0-.928.325c-.223.14-.288.283-.251.315ZM227.184 81.455a.606.606 0 0 0 .598.603.588.588 0 0 0 .563-.337.581.581 0 0 0 .054-.224.606.606 0 0 0-.598-.603.588.588 0 0 0-.563.337.581.581 0 0 0-.054.224ZM227.49 80.114c.074.08.529-.273 1.183-.287.654-.014 1.137.306 1.207.227.069-.079-.042-.181-.256-.33a1.626 1.626 0 0 0-1.897.051c-.209.158-.274.302-.237.34ZM225.23 84.912a4.424 4.424 0 0 0-1.067-.167c-.167 0-.325-.046-.357-.158a.89.89 0 0 1 .102-.5c.148-.41.306-.836.464-1.286.65-1.856 1.114-3.336 1.039-3.364a22.578 22.578 0 0 0-1.304 3.248l-.459 1.3a.975.975 0 0 0-.074.658.43.43 0 0 0 .283.241c.093.021.188.032.283.033.362.046.729.045 1.09-.005Z"/><path fill="#EB996E" d="M224.933 92.665a12.006 12.006 0 0 0 6.306-1.856s-1.582 3.383-6.329 3.04l.023-1.184ZM225.537 86.466a1.186 1.186 0 0 1 1.048-.464 1.088 1.088 0 0 1 .747.386.685.685 0 0 1 .07.784.79.79 0 0 1-.854.232 2.45 2.45 0 0 1-.844-.464.75.75 0 0 1-.191-.19.224.224 0 0 1 0-.241"/><path fill="#263238" d="M227.161 85.302c-.107 0-.093.71-.692 1.23-.598.519-1.35.463-1.355.556-.004.093.172.135.492.135a1.772 1.772 0 0 0 1.132-.422c.303-.263.494-.632.534-1.03.019-.298-.06-.474-.111-.47ZM227.244 77.771c.07.181.719.079 1.489.158.771.079 1.392.274 1.49.111.042-.079-.065-.246-.32-.413a2.478 2.478 0 0 0-1.114-.362 2.44 2.44 0 0 0-1.155.163c-.274.116-.418.26-.39.343ZM221.277 78.082c.121.144.566 0 1.109-.037s1.002.079 1.104-.08c.042-.078-.032-.222-.236-.361a1.584 1.584 0 0 0-1.777.093c-.191.158-.251.31-.2.385Z"/><path fill="#263238" d="M222.043 72.463a2.31 2.31 0 0 0-.007 1.33 2.32 2.32 0 0 0 3.255 1.426.9.9 0 0 0 .051 1.188c.318.303.743.47 1.183.464a3.183 3.183 0 0 0 2.454-1.03 2.322 2.322 0 0 0 3.341 1.75 2.215 2.215 0 0 0-.422 2.454 2.183 2.183 0 0 0 2.171 1.197 2.205 2.205 0 0 0 1.856-1.67 2.407 2.407 0 0 0 1.346-2.735 2.414 2.414 0 0 0-.482-.978 1.437 1.437 0 0 0 .89-1.123c.07-.499.008-1.008-.181-1.475a4.56 4.56 0 0 0-2.32-2.72 3.066 3.066 0 0 0-3.401.553.652.652 0 0 1-.329.241.598.598 0 0 1-.464-.246c-.589-.598-1.202-1.243-2.014-1.447a2.245 2.245 0 0 0-2.538 1.21 2.62 2.62 0 0 0-2.877-1.224c-1.076.334-1.758 1.698-1.234 2.691"/><path fill="#263238" d="M233.601 80.541c.069.964.274 1.914.608 2.821.144.385.366.812.765.891a.872.872 0 0 0 .896-.524 2.32 2.32 0 0 0 .153-1.1 30.657 30.657 0 0 0-.487-3.949"/><path fill="#FFBE9D" d="M234.65 81.27c.06-.028 2.375-.887 2.463 1.54.089 2.427-2.357 2.014-2.361 1.944-.005-.07-.102-3.484-.102-3.484Z"/><path fill="#EB996E" d="M235.452 83.808s.047.027.116.06c.102.04.214.04.316 0a1.059 1.059 0 0 0 .464-.956 1.48 1.48 0 0 0-.139-.603.499.499 0 0 0-.33-.311.213.213 0 0 0-.246.125c-.028.07 0 .116-.023.121-.023.005-.056-.037-.037-.14a.251.251 0 0 1 .088-.157.339.339 0 0 1 .232-.07.588.588 0 0 1 .464.362c.112.205.171.435.172.668a1.104 1.104 0 0 1-.576 1.072.46.46 0 0 1-.389-.05c-.103-.061-.116-.117-.112-.121Z"/><path fill="#fff" d="m229.109 75.358-.074.023-.223.038c-.283.037-.57.037-.853 0a2.195 2.195 0 0 1-.599-.144 1.803 1.803 0 0 1-.617-.395 1.748 1.748 0 0 1-.432-.71 1.304 1.304 0 0 1 .056-.927l.079.064a3.179 3.179 0 0 1-1.916.627 3.08 3.08 0 0 1-1.105-.204 2.018 2.018 0 0 1-.515-.283 1.116 1.116 0 0 1-.357-.492 1.572 1.572 0 0 1-.074-.7c.024-.227.066-.45.125-.669.045-.218.125-.428.237-.622a.77.77 0 0 1 .524-.39l.028.112c-.403.14-.841.14-1.244 0a2.043 2.043 0 0 1-.928-.659 1.71 1.71 0 0 1-.376-.928c-.02-.292.023-.585.126-.858.141-.391.403-.728.747-.96.119-.086.253-.149.394-.187a3.29 3.29 0 0 0-.371.219 1.987 1.987 0 0 0-.807 1.781c.03.325.156.633.362.887.233.285.542.498.89.617.379.13.791.13 1.17 0l.028.116a.646.646 0 0 0-.441.334 2.077 2.077 0 0 0-.223.589c-.14.42-.158.87-.051 1.3a1.258 1.258 0 0 0 .803.704 3 3 0 0 0 1.058.195 3.044 3.044 0 0 0 1.856-.593l.176-.126-.098.195a1.224 1.224 0 0 0-.055.85c.08.253.218.485.403.677.164.168.362.3.58.385.185.076.378.127.576.153.282.032.567.032.849 0l.292-.019ZM221.625 74.454a.466.466 0 0 1-.162.078 1.34 1.34 0 0 1-.488.065 1.252 1.252 0 0 1-.686-.25.608.608 0 0 1-.232-.4.458.458 0 0 1 .208-.463l.051.111h-.041a1.903 1.903 0 0 1-1.596-.232 1.633 1.633 0 0 1-.376-.334.555.555 0 0 1-.098-.153c.161.152.335.29.52.413a1.895 1.895 0 0 0 1.513.19h.037l.589-.167-.524.283a.34.34 0 0 0-.149.334c.017.126.082.241.181.32.18.142.398.23.627.25.209.016.421 0 .626-.045Z"/><path fill="#EB996E" d="M223.741 79.836s-.144-.107-.395-.241a2.315 2.315 0 0 0-1.044-.297c-.366-.01-.73.067-1.062.222-.255.121-.395.232-.408.214a1.02 1.02 0 0 1 .371-.293 2.126 2.126 0 0 1 2.19.08c.139.076.258.184.348.315ZM230.144 79.687a2.795 2.795 0 0 1-.32-.19c-.26-.14-.549-.22-.845-.232a1.854 1.854 0 0 0-.853.172c-.209.093-.325.18-.339.162-.014-.018.088-.12.297-.241a1.711 1.711 0 0 1 1.782.065c.204.134.278.255.278.264ZM227.745 85.538l-.107-.097a.698.698 0 0 0-.269-.162c-.246-.065-.464-.065-.464-.107a.698.698 0 0 1 .511 0 .58.58 0 0 1 .301.223c.042.074.042.139.028.144ZM228.209 85.882c-.032 0-.088-.177-.185-.38-.098-.205-.2-.367-.177-.39.023-.024.181.111.288.338.107.228.107.427.074.432ZM179.87 110.469c-.084 0-.344-3.248-.344-3.248s1.183.265 1.392 1.109c.209.845.371 1.564.371 1.564l2.961.872 3.132-.956-1.318 2.042s-1.694.232-1.823.227c-.13-.004-4.371-1.61-4.371-1.61Z"/><path fill="#FFBE9D" d="m189.925 114.455-6.882-.729s-5.173-3.21-5.758-3.609a.516.516 0 0 1-.232-.362.654.654 0 0 1 .254-.581.65.65 0 0 1 .628-.088l6.083 2.204a1.334 1.334 0 0 0 1.104-.111l2.585-1.517s-1.044-1.012-1.703-1.791a1.23 1.23 0 0 1-.167-1.485c.826.121 4.992 3.248 4.992 3.248l1.74 1.364-2.644 3.457Z"/><path fill="#EB996E" d="m181.257 109.968.951-2.687a.926.926 0 0 1 .724 1.137c-.097 1.03-.083 1.903-.083 1.903l1.392.575-2.989-.858"/><path fill="#455A64" d="M237.016 84.476c.152.059.289.153.399.274.328.3.57.683.701 1.109a2.251 2.251 0 0 1-.302 1.916 2.173 2.173 0 0 1-2.171.89 1.988 1.988 0 0 1-1.114-.612c-.27-.291-.47-.64-.585-1.02a2.274 2.274 0 0 1 .246-1.926 2.021 2.021 0 0 1 1.053-.784.93.93 0 0 1 .464-.056s-.167.032-.464.144c-.384.16-.708.435-.928.789a2.12 2.12 0 0 0-.176 1.767 2.052 2.052 0 0 0 1.527 1.462 1.967 1.967 0 0 0 1.948-.78 2.088 2.088 0 0 0 .321-1.744 2.66 2.66 0 0 0-.608-1.09c-.181-.223-.32-.325-.311-.34Z"/><path fill="#3A76F0" d="M235.452 93.872c2.362 2.645 4.176 8.551 4.64 12.064.497 3.944.33 4.965.631 8.199.311 3.359.432 26.202-.839 27.97-1.272 1.767-2.279 2.023-2.279 2.023s-.167 1.772-.338 5.396c-.172 3.624-5.824 13.062-5.824 13.062s-1.095 1.6-3.368-1.012c-1.666-1.907-4.408-8.352-5.763-11.702a17.038 17.038 0 0 0-2.19-3.86 1.183 1.183 0 0 0-.411-.336 1.187 1.187 0 0 0-1.034 0 1.165 1.165 0 0 0-.411.336l-3.606 4.788s-1.92-1.188-2.088-2.455c-.167-1.266 1.012-4.718 2.107-8.593 1.095-3.874 2.83-17.168 2.83-17.168s-.051-13.275 0-13.456c.464-1.721 3.105-5.104 4.872-8.064a24.194 24.194 0 0 0 2.492-5.833l10.579-1.327v-.032Z"/><path fill="#000" d="M217.37 121.429c3.814.181 11.02-3.22 11.772-3.759 2-1.443 4.45-4.667 4.25-7.665a17.09 17.09 0 0 1-7.489 7.461 19.455 19.455 0 0 1-3.076 1.504" opacity=".3"/><path fill="#3A76F0" d="M216.688 109.838a43.497 43.497 0 0 0 7.146-8.222c1.577-2.431 4.663-1.694 8.704.58 1.518.854 1.778 2.677 1.513 4.64a12.531 12.531 0 0 1-6.227 9.03c-4.863 2.784-12.56 6.676-13.873 7.256-1.068.464-3.434.525-5.448-.617l.673-12.129s4.065-1.192 5.679-.371l.65.413 1.216-.58"/><path fill="#263238" d="M233.392 99.964s-.204-.236-.645-.566a4.782 4.782 0 0 0-2.13-.835 5.49 5.49 0 0 0-3.313.561 10.102 10.102 0 0 0-3.164 2.729c-.464.584-.877 1.197-1.29 1.781a23.103 23.103 0 0 1-1.271 1.634 30.17 30.17 0 0 1-2.427 2.515 33.805 33.805 0 0 1-1.777 1.54c-.214.176-.385.306-.501.395-.116.088-.181.129-.191.12.197-.211.406-.409.627-.594.408-.371 1.007-.928 1.717-1.596a30.12 30.12 0 0 0 2.366-2.538 22.43 22.43 0 0 0 1.244-1.624c.403-.585.821-1.202 1.294-1.8.461-.585.976-1.125 1.541-1.61a7.885 7.885 0 0 1 1.726-1.17 5.603 5.603 0 0 1 3.447-.529 4.64 4.64 0 0 1 2.167.928c.17.138.326.294.464.464.047.06.086.125.116.195ZM221.161 119.656c.265-.152.541-.285.826-.399.533-.241 1.308-.589 2.25-1.053a45.963 45.963 0 0 0 3.248-1.758 12.68 12.68 0 0 0 3.383-2.905c.499-.592.964-1.211 1.392-1.856a16.13 16.13 0 0 0 1.113-1.856 13.379 13.379 0 0 0 1.179-3.457 8.898 8.898 0 0 0 .148-2.459c-.055-.58-.153-.891-.125-.9a.678.678 0 0 1 .079.222c.065.219.115.443.149.669a8.357 8.357 0 0 1-.065 2.501 13.063 13.063 0 0 1-1.146 3.535c-.334.653-.71 1.282-1.128 1.884a21.465 21.465 0 0 1-1.392 1.893 12.695 12.695 0 0 1-3.461 2.947c-1.202.7-2.32 1.271-3.281 1.716a38.58 38.58 0 0 1-2.297.979 17.09 17.09 0 0 1-.635.237 1.084 1.084 0 0 1-.237.06Z"/><path fill="#263238" d="M225.602 157.356c.014-.144.041-.287.078-.427.056-.278.172-.682.265-1.215.283-1.496.45-3.012.501-4.533.084-1.926-.028-4.223-.134-6.78a45.888 45.888 0 0 1 .255-8.319 79.242 79.242 0 0 1 1.754-8.134 51.262 51.262 0 0 0 1.308-6.644c.183-1.511.214-3.036.093-4.552-.028-.539-.116-.951-.139-1.235a2.394 2.394 0 0 1-.042-.431c.044.138.075.279.093.422.042.283.148.692.19 1.234a21.25 21.25 0 0 1 0 4.58 48.44 48.44 0 0 1-1.257 6.682c-.594 2.487-1.327 5.201-1.731 8.115a47.213 47.213 0 0 0-.274 8.278c.098 2.547.19 4.858.079 6.793a26.984 26.984 0 0 1-.585 4.547c-.111.529-.241.928-.311 1.206-.035.142-.083.28-.143.413ZM215.514 118.288a5.583 5.583 0 0 1 0-1.156c0-.71.046-1.693.051-2.784.005-1.09 0-2.065-.023-2.784a6.366 6.366 0 0 1 0-1.155c.095.375.147.759.153 1.146.06.715.102 1.703.097 2.784a32.953 32.953 0 0 1-.125 2.784 4.874 4.874 0 0 1-.153 1.165ZM220.98 117.039a9.632 9.632 0 0 1-1.545-1.489 9.343 9.343 0 0 1-1.369-1.652 9.81 9.81 0 0 1 1.545 1.49 9.38 9.38 0 0 1 1.369 1.651ZM221.653 112.288a4.856 4.856 0 0 1 0-1.522 4.98 4.98 0 0 1 .236-1.503 4.683 4.683 0 0 1 0 1.522 4.949 4.949 0 0 1-.236 1.503ZM225.815 113.109a5.548 5.548 0 0 1-.464-1.605 5.774 5.774 0 0 1-.232-1.652c.23.509.386 1.048.464 1.601.154.539.232 1.096.232 1.656ZM227.708 103.695a4.43 4.43 0 0 1-1.452.181 4.323 4.323 0 0 1-1.457-.065 8.966 8.966 0 0 1 2.909-.116ZM229.805 109.968c.151-1.504.463-2.988.928-4.427a10.516 10.516 0 0 1-.348 2.237c-.115.748-.31 1.482-.58 2.19ZM232.71 103.208a4.327 4.327 0 0 1-1.332-.529 4.434 4.434 0 0 1-1.229-.752c.471.105.922.285 1.336.534.447.178.862.431 1.225.747ZM210.549 114.088a7 7 0 0 1 1.392-1.178c.47-.395.99-.727 1.545-.989a7.04 7.04 0 0 1-1.392 1.184c-.471.392-.99.723-1.545.983ZM213.51 116.928a4.533 4.533 0 0 1-1.392-.464 4.427 4.427 0 0 1-1.29-.696c.486.079.955.236 1.392.464.465.16.9.395 1.29.696ZM211.992 120.9c.051.037-.153.404-.561.705-.408.302-.812.404-.835.344-.024-.061.315-.251.691-.534.376-.283.65-.557.705-.515ZM236.803 99.7a5.634 5.634 0 0 1-1.198-1.137 5.781 5.781 0 0 1-1.02-1.304c.855.7 1.602 1.522 2.218 2.44ZM237.823 105.764c-.175.379-.421.72-.724 1.007-.464.515-.858.896-.928.849.181-.376.428-.718.729-1.007.469-.515.872-.895.923-.849ZM234.807 116.464c-.247-.361-.47-.738-.668-1.128a9.644 9.644 0 0 1-.728-1.085c.396.222.719.556.928.96.277.362.44.798.468 1.253ZM238.413 112.636a8.604 8.604 0 0 1-.812 2.784c.017-.489.115-.972.292-1.429.101-.476.276-.933.52-1.355ZM234.575 124.278a4.791 4.791 0 0 1-.784-1.267c-.263-.43-.454-.9-.566-1.392a8.941 8.941 0 0 1 1.35 2.64v.019ZM238.997 122.19c-.471.06-.95.042-1.415-.056a4.184 4.184 0 0 1-1.392-.297 4.2 4.2 0 0 1 1.392.056 4.14 4.14 0 0 1 1.415.297ZM231.494 131.345c.407-.94.861-1.858 1.36-2.752a3.782 3.782 0 0 1-.497 1.466 3.704 3.704 0 0 1-.863 1.286ZM237.447 132.328a7.59 7.59 0 0 1-1.085-1.568 7.448 7.448 0 0 1-.877-1.698 7.7 7.7 0 0 1 1.085 1.573c.36.527.655 1.095.877 1.693ZM233.091 140.128a10.841 10.841 0 0 1 .051-2.32c.017-.782.117-1.559.297-2.32.059.773.04 1.551-.056 2.32-.02.781-.118 1.558-.292 2.32ZM229.481 143.376a8.582 8.582 0 0 1-.85-2.784c.254.42.436.88.539 1.36.179.455.284.936.311 1.424ZM232 150.002a5.55 5.55 0 0 1-1.216 1.072 5.339 5.339 0 0 1-1.364.881 5.594 5.594 0 0 1 1.216-1.071 5.68 5.68 0 0 1 1.364-.882ZM234.923 147.673a7.866 7.866 0 0 1-.181-1.917 7.52 7.52 0 0 1 .065-1.925c.136.629.195 1.272.177 1.916a7.91 7.91 0 0 1-.061 1.926ZM233.216 155.055c.042.051-.241.348-.631.663-.39.316-.747.525-.789.464-.042-.06.246-.348.636-.663.389-.316.742-.515.784-.464ZM238.111 139.882a6.203 6.203 0 0 1 .158-1.712 6.273 6.273 0 0 1 .394-1.67 6.203 6.203 0 0 1-.158 1.712 6.273 6.273 0 0 1-.394 1.67ZM224.664 126.732a5.059 5.059 0 0 1-.904-1.225 4.847 4.847 0 0 1-.701-1.35c.365.356.67.768.905 1.22.303.412.54.87.7 1.355ZM227.824 121.717c.037.055-.297.357-.747.682-.45.324-.845.533-.886.464-.042-.07.297-.362.747-.682.45-.321.844-.52.886-.464ZM219.133 125.22c-.012-.473.06-.945.214-1.392.079-.461.236-.905.464-1.313.01.465-.063.928-.214 1.368a4.106 4.106 0 0 1-.464 1.337ZM221.727 133.73a7.364 7.364 0 0 1-1.035-1.573 7.626 7.626 0 0 1-.821-1.689 7.121 7.121 0 0 1 1.035 1.573c.343.526.619 1.094.821 1.689ZM224.678 136.5c.047.051-.362.464-.928.96a3.71 3.71 0 0 1-1.067.784c-.046-.051.362-.464.928-.965a3.725 3.725 0 0 1 1.067-.779ZM218.048 138.592c-.075 0 .023-.789 0-1.744-.024-.956-.172-1.731-.107-1.745a3.83 3.83 0 0 1 .348 1.735 3.883 3.883 0 0 1-.241 1.754ZM216.298 143.715c.042.055-.399.436-.974.853-.329.287-.708.51-1.118.659-.042-.051.399-.436.974-.853a3.58 3.58 0 0 1 1.118-.659ZM221.889 145.812a3.164 3.164 0 0 1 0-1.234c.001-.415.082-.826.237-1.211.079.407.079.826 0 1.234a3.285 3.285 0 0 1-.237 1.211ZM224.688 152.095a5.015 5.015 0 0 1-.39-1.903 4.936 4.936 0 0 1 .134-1.939c.068.638.104 1.279.107 1.921.065 1.058.213 1.907.149 1.921ZM226.544 120.436a6.85 6.85 0 0 1 0-2.561c.16.846.16 1.715 0 2.561ZM225.012 98.308a4.33 4.33 0 0 1-.775 1.178c-.262.398-.59.748-.969 1.035.192-.435.455-.835.779-1.183.258-.398.585-.746.965-1.03ZM230.961 97.408a14.382 14.382 0 0 1-3.61-.808 7.04 7.04 0 0 1 1.833.288c.612.096 1.209.27 1.777.52ZM235.03 95.046c.028.06-.339.288-.821.51-.483.223-.9.358-.928.297-.028-.06.343-.292.826-.515.482-.222.895-.352.923-.292Z"/><path fill="#000" d="M215.663 111.309c-.158 2.835-.191 6.153-.348 8.983a.291.291 0 0 0 .002.128c.011.041.031.08.058.113.097.084.246 0 .343-.065.984-.807 1.239-2.204 1.244-3.475a13.115 13.115 0 0 0-1.299-5.684Z" opacity=".3"/><path fill="#263238" d="M160.215 94.888a1.735 1.735 0 0 0-.916-1.594 1.73 1.73 0 1 0-1.279 3.195v.464l.464.357-.496.274-.024.603.464.357-.496.274v.52l.288.213-.302.172v.301l.357.409.715-.427.134-3.582a1.732 1.732 0 0 0 1.091-1.536Zm-1.68-1.327a.498.498 0 0 1 .313.865.496.496 0 0 1-.828-.401.498.498 0 0 1 .161-.34.493.493 0 0 1 .354-.124Z"/><path fill="#263238" d="M158.535 93.561h-.121a.457.457 0 0 0-.363.444.462.462 0 0 0 .605.45.465.465 0 0 0-.005-.885c-.074 0-.121 0-.116-.028h.121c.111.03.209.097.278.19a.519.519 0 0 1-.13.725.51.51 0 0 1-.311.088.532.532 0 0 1-.301-.112.525.525 0 0 1-.189-.348.508.508 0 0 1 .407-.552.337.337 0 0 1 .093 0l.032.028Z"/><path fill="#263238" d="M160.215 94.888v.134a2.166 2.166 0 0 1-.088.39c-.075.201-.183.388-.321.552-.189.22-.43.389-.7.492l-.13 3.582-.715.427-.357-.403v-.302l.302-.167v.032l-.288-.218v-.52l.496-.273v.032l-.464-.352v-.631l.497-.274v.032l-.464-.352v-.464.023a1.763 1.763 0 0 1-1.16-1.053 1.737 1.737 0 0 1 1.041-2.302 1.744 1.744 0 0 1 2.249 1.151v.13c0 .042 0 .079.023.116.023.037 0 .135 0 .18v-.18l-.028-.116v-.125a1.728 1.728 0 0 0-.334-.604 1.763 1.763 0 0 0-.756-.51 1.714 1.714 0 0 0-2.235 1.289 1.718 1.718 0 0 0 1.218 1.982v.464l.464.358h.028-.032l-.492.273v.622l.464.357h.028-.033l-.491.274v.52l.287.218h-.028l-.301.172v.301l.357.408h-.028l.715-.426c.055-1.43.102-2.66.139-3.582a1.725 1.725 0 0 0 1.109-1.411v-.102a.147.147 0 0 0 .028-.144Z"/><path fill="#3A76F0" d="M160.034 94.79a1.737 1.737 0 0 0-.916-1.595 1.73 1.73 0 1 0-1.274 3.196v.464l.464.353-.492.278v.603l.464.353-.492.279-.023.52.288.213-.302.171v.302l.357.404.715-.423.134-3.582a1.733 1.733 0 0 0 1.077-1.535Zm-1.68-1.331a.498.498 0 0 1 .313.865.5.5 0 0 1-.549.078.497.497 0 0 1-.279-.479.503.503 0 0 1 .515-.464Z"/><path fill="#263238" d="M158.354 93.459s-.046 0-.12.023a.465.465 0 0 0-.27.172.466.466 0 1 0 .812.464.489.489 0 0 0-.306-.65c-.074 0-.116 0-.116-.028h.121a.463.463 0 0 1 .278.19.5.5 0 0 1 .061.464.524.524 0 0 1-.497.325.516.516 0 0 1-.451-.305c-.039-.088-.053-.185-.039-.28a.517.517 0 0 1 .114-.26.465.465 0 0 1 .288-.166.22.22 0 0 1 .093 0l.032.05Z"/><path fill="#263238" d="M160.034 94.79v.135a1.86 1.86 0 0 1-.088.39 1.78 1.78 0 0 1-1.021 1.044c-.033.928-.074 2.153-.125 3.582l-.715.427-.362-.404v-.302l.302-.171v.037l-.288-.218v-.515l.497-.279v.038l-.464-.353v-.636l.496-.278v.037l-.464-.353v-.464a1.796 1.796 0 0 1-.974-.705 1.777 1.777 0 0 1-.186-.348 1.748 1.748 0 0 1 1.072-2.288 1.722 1.722 0 0 1 1.884.525c.152.177.266.384.334.608v.134c0 .042 0 .08.023.116.004.06.004.121 0 .181v.116a.115.115 0 0 1 0 .037V94.475c0-.074 0-.074-.023-.116v-.13a1.724 1.724 0 0 0-1.091-1.109 1.714 1.714 0 0 0-1.787.44 1.72 1.72 0 0 0-.361 1.806c.097.241.246.458.436.636.201.182.44.315.701.39v.463l.464.358-.497.278v.622l.464.357-.496.279v.52l.288.217-.307.172v.302l.358.403h-.024l.715-.427c.056-1.424.107-2.654.139-3.577.267-.095.506-.254.696-.464.227-.261.371-.585.413-.928v-.102a.187.187 0 0 0-.009-.075Z"/><path fill="#263238" d="M159.83 94.805a3.306 3.306 0 0 0-.042-.372 1.428 1.428 0 0 0-.158-.408 1.513 1.513 0 0 0-.366-.44 1.515 1.515 0 0 0-2.135.231 1.494 1.494 0 0 0-.065 1.773c.04.065.087.125.139.18a1.392 1.392 0 0 0 .539.371 1.497 1.497 0 0 0 1.429-.157c.158-.112.295-.252.403-.413a1.48 1.48 0 0 0 .186-.394 3.12 3.12 0 0 0 .07-.371v.217c-.01.054-.022.106-.037.158a1.503 1.503 0 0 1-.585.826 1.452 1.452 0 0 1-.659.265 1.539 1.539 0 0 1-1.503-.654 1.546 1.546 0 0 1 .807-2.339c.263-.082.543-.093.812-.033a1.519 1.519 0 0 1 1.155 1.193c.012.053.019.108.024.162.002.039.002.078 0 .116v.098l-.014-.01Z"/><path fill="#263238" d="M158.911 93.983v-.139a.593.593 0 0 0-.204-.32.57.57 0 0 0-.232-.112.588.588 0 0 0-.297 0 .544.544 0 0 0-.269.19.553.553 0 0 0-.023.659.567.567 0 0 0 .25.21.558.558 0 0 0 .538-.06.543.543 0 0 0 .223-.302c.028-.089.028-.14.033-.14.004 0 0 0 0 .037a.634.634 0 0 1 0 .107.584.584 0 0 1-.5.43.579.579 0 0 1-.568-.258.603.603 0 0 1 .316-.91.564.564 0 0 1 .315 0 .566.566 0 0 1 .464.464.477.477 0 0 1 0 .107c-.041.028-.041.037-.046.037ZM158.563 100.006s0-.817.051-1.819.074-1.823.088-1.823c.014 0 0 .816-.046 1.823-.047 1.007-.079 1.819-.093 1.819Z"/><path fill="#E0E0E0" d="M158.503 93.63a.236.236 0 0 1-.232 0v-2.194h.232v2.195Z"/><path fill="#263238" d="M158.387 93.668a.29.29 0 0 1-.121-.028v-2.232h.25v2.195a.284.284 0 0 1-.129.065Zm-.107-.042a.246.246 0 0 0 .213 0v-2.162h-.213v2.162Z"/><path fill="#896360" d="m155.607 87.538 4.014 2.218a1.1 1.1 0 0 1-1.142.653 1.099 1.099 0 0 1-.44-.152c-1.16-.515-3.248-1.786-3.248-1.786l-1.596.645-1.221-1.476 3.633-.102Z"/><path fill="#BD8C83" d="M147.371 95.463a4.034 4.034 0 0 0 3.749-.357c1.829-1.248 1.963-1.661 2.715-1.888.547-.168 3.099-.516 4.102-.752a.588.588 0 0 0 .438-.435.584.584 0 0 0-.197-.586 6.25 6.25 0 0 0-1.731-.353 7.27 7.27 0 0 0-1.587.168c-1.021.19-2.259-.465-2.259-.465l.027-.64 2.539-.464a10.16 10.16 0 0 0 2.784 1.569 3.316 3.316 0 0 0 1.665-.219v-.143l-3.591-2.571-3.35-.57-1.03-.172-8.649 5.164 2.246 3.981 2.129-1.267Z"/><path fill="#3A76F0" d="m120.993 201.487-1.717 9.188s8.76 4.83 8.612 6.556l-17.92-2.687 2.088-14.421 8.937 1.364Z"/><path fill="#000" d="m120.993 201.487-1.717 9.188s8.76 4.83 8.612 6.556l-17.92-2.687 2.088-14.421 8.937 1.364Z" opacity=".3"/><path fill="#E0E0E0" d="M113.852 209.064a.75.75 0 0 0-.636.761.712.712 0 0 0 .752.631.774.774 0 0 0 .663-.807.743.743 0 0 0-.853-.571"/><path fill="#263238" d="m109.968 214.544.269-1.447 17.075 3.127s.748.464.576 1.016l-17.92-2.696ZM119.582 210.628c0 .084-.464.06-.928.279-.464.218-.756.547-.835.501-.079-.047.135-.534.71-.784.575-.251 1.086-.075 1.053.004ZM121.345 211.686c0 .088-.394.181-.747.506-.352.325-.496.705-.584.687-.088-.019-.065-.52.38-.928.446-.409.961-.367.951-.265ZM122.079 214.099c-.084 0-.139-.464.157-.896.297-.431.734-.575.761-.496.028.079-.269.297-.505.663-.237.367-.325.734-.413.729ZM119.74 208.489c-.046.074-.431-.107-.928-.148-.496-.042-.928.06-.928-.024 0-.083.385-.338.97-.283.584.056.942.395.886.455Z"/><path fill="#3A76F0" d="m115.142 203.696-.167 9.34s9.442 3.309 9.577 5.039l-18.124.33-.344-14.57 9.058-.139Z"/><path fill="#E0E0E0" d="M109.356 212.345a.744.744 0 0 0-.497.854.71.71 0 0 0 .84.501.783.783 0 0 0 .524-.928.743.743 0 0 0-.928-.422"/><path fill="#263238" d="M106.428 218.396v-1.471l17.372.232s.812.338.729.928l-18.101.311ZM115.267 212.93c0 .088-.464.139-.872.431-.409.292-.659.668-.738.636-.079-.033.037-.548.566-.891.529-.343 1.063-.255 1.044-.176ZM117.184 213.681c0 .088-.362.246-.655.627-.292.38-.371.775-.464.775-.093 0-.157-.502.218-.97.376-.469.896-.515.901-.432ZM118.32 215.941c-.079 0-.209-.422 0-.928s.631-.691.668-.617c.038.074-.213.339-.385.742-.171.404-.213.789-.283.803ZM115.072 210.8c-.037.079-.464-.037-.928 0s-.886.209-.928.13c-.042-.079.325-.395.928-.441.603-.047.965.237.928.311Z"/><path fill="#455A64" d="M111.128 133.511a1.46 1.46 0 0 1-.037.427 6.226 6.226 0 0 1-.301 1.123 7.36 7.36 0 0 1-5.624 4.765 6.02 6.02 0 0 1-1.16.107 1.33 1.33 0 0 1-.422-.032c0-.037.608 0 1.554-.223a7.645 7.645 0 0 0 5.512-4.654c.358-.928.437-1.522.478-1.513Z"/><path fill="#263238" d="m102.354 131.14.241 9.243 2.733 28.699s-.872 13.98-1.424 21.873c-.464 6.853.928 18.731.928 18.731l11.535-.301 3.09-39.816 1.921-24.829 3.893-12.992-22.917-.608Z"/><path fill="#263238" d="m130.848 133.242.743 37.51a15.769 15.769 0 0 1-.928 5.619l-9.911 27.613-.492 1.819-6.932-1.485 3.364-73.196 14.156 2.12Z"/><path fill="#455A64" d="M121.197 139.873V142.624c0 1.768-.051 4.32-.135 7.475-.181 6.311-.607 15.02-1.368 24.592-.761 9.573-1.624 18.263-2.265 24.537l-.779 7.424c-.093.867-.167 1.545-.223 2.018-.023.218-.046.394-.06.524-.014.13-.028.177-.028.177a.783.783 0 0 1 0-.181c0-.13.023-.302.042-.525.041-.464.102-1.155.181-2.023.171-1.767.413-4.306.71-7.424.603-6.273 1.456-14.945 2.204-24.541.747-9.595 1.206-18.295 1.429-24.592.106-3.155.181-5.707.204-7.47 0-.872.037-1.554.046-2.032v-.529a.933.933 0 0 1 .042-.181ZM121.8 134.982a.589.589 0 0 1-.354.557.59.59 0 0 1-.65-.113.59.59 0 0 1-.143-.644.592.592 0 0 1 1.147.2ZM131.159 139.418a3.736 3.736 0 0 1-.83-.742 9.069 9.069 0 0 1-1.513-2.232 9.167 9.167 0 0 1-.793-2.575 3.787 3.787 0 0 1-.056-1.114c.037 0 .069.422.204 1.09a10.735 10.735 0 0 0 2.269 4.733c.436.52.742.812.719.84Z"/><path fill="#F5F5F5" d="M96.183 143.965c0-.464-2.562-7.888-2.562-7.888l17.512-9.308 9.117 15.108-19.372 9.995-4.695-7.907Z"/><path fill="#263238" d="M105.231 75.929c.162.538-.339 1.063-.859 1.285-.519.223-1.123.302-1.549.673-.873.756-.631 2.357-1.583 3.02-.464.32-1.081.316-1.596.539a2.556 2.556 0 0 0-1.34 2.348c.049.954.28 1.89.681 2.756.082.292.242.555.464.76a1.662 1.662 0 0 0 1.262.168 61.46 61.46 0 0 0 6.784-1.327c.273-.036.522-.177.691-.394.078-.175.105-.368.079-.557l-.195-4.52a8.88 8.88 0 0 0-.413-2.784 3.015 3.015 0 0 0-1.911-1.925"/><path fill="#455A64" d="M106.15 74.737c-.395-.362-1.077.139-1.077.672.077.536.356 1.023.78 1.36l1.081 1.104a.846.846 0 0 0 .589.339c.427-.023.543-.613.464-1.03a3.765 3.765 0 0 0-1.884-2.524"/><path fill="#263238" d="M126.306 62.886c-.432-.98-1.601-1.708-1.68-2.019-.209-.816.501-1.698.237-2.496-.617-1.856-2.149-1.629-2.149-1.629-.696-.844-1.638-1.962-3.169-2.357-1.661-.431-4.102-.747-5.568.121-1.466.868-2.556 1.452-3.034 3.095l10.458 18.393c1.193-.557 1.944-1.782 2.385-3.025.441-1.244.64-2.566 1.132-3.791.367-.928-.037-2.367.784-2.91 1.012-.682.998-2.482.604-3.382Z"/><path fill="#BD8C83" d="M122.9 64.542a8.072 8.072 0 0 0-7.911-7.553h-.418c-4.505.185-6.862 4.115-6.552 8.611l-.371 14.77 3.304 2.217c2.575 1.93 7.911 3.3 7.911 1.392v-4.217s4.338-.599 4.468-4.923c.038-2.088-.185-6.399-.431-10.297Z"/><path fill="#263238" d="M121.935 68.124a.623.623 0 0 1-.608.613.592.592 0 0 1-.627-.566.624.624 0 0 1 .604-.617.594.594 0 0 1 .631.57ZM122 66.867c-.079.079-.539-.278-1.202-.288-.664-.009-1.16.316-1.23.232-.069-.083.047-.18.26-.33.29-.195.634-.296.984-.287.347.004.684.12.96.33.2.157.26.292.228.343ZM115.583 68.124a.622.622 0 0 1-.608.613.59.59 0 0 1-.627-.566.623.623 0 0 1 .604-.617.595.595 0 0 1 .574.342c.034.072.053.15.057.228ZM115.564 66.964c-.074.08-.547-.264-1.211-.255-.663.01-1.151.344-1.225.265-.074-.08.042-.181.255-.339.284-.204.625-.313.975-.31.345-.005.683.1.965.3.213.154.278.302.241.34ZM117.722 71.623a4.497 4.497 0 0 1 1.086-.176c.167 0 .329-.047.361-.163a.85.85 0 0 0-.106-.5l-.464-1.305c-.668-1.856-1.146-3.373-1.072-3.4.074-.029.677 1.456 1.341 3.308.164.454.318.89.464 1.308.102.207.13.443.079.668a.443.443 0 0 1-.283.242 1.202 1.202 0 0 1-.293.037c-.37.04-.744.034-1.113-.019ZM115.564 64.626c-.088.171-.733 0-1.517 0-.784 0-1.443.12-1.522-.056-.037-.083.097-.236.371-.376a2.545 2.545 0 0 1 1.165-.24c.401.002.796.102 1.15.291.27.14.395.297.353.38ZM122.055 64.644c-.134.149-.649 0-1.276-.037-.626-.037-1.15.084-1.271-.079-.051-.074.037-.227.269-.366.319-.17.679-.248 1.04-.227.36.009.711.12 1.011.32.204.162.288.315.227.39ZM111.249 57.29a3.277 3.277 0 0 0 3.865 3.248c.733-.134 1.536-.506 2.167-.116.631.39.696 1.415 1.285 1.926.845.733 2.186.046 3.248.361.826.246 1.346 1.04 1.893 1.703.548.664 1.392 1.3 2.2 1.054a9.815 9.815 0 0 0-.325-2.209 3.245 3.245 0 0 0-1.258-1.796c-.338-.227-.737-.361-1.057-.617-.687-.556-.845-1.522-1.267-2.32a3.603 3.603 0 0 0-2.738-1.814c-.928-.093-1.911.19-2.83-.042-.678-.171-1.272-.612-1.958-.742-1.341-.255-2.585.705-3.554 1.661"/><path fill="#263238" d="M115.536 59.197c-.603-.172-1.828-.561-2.153-1.081a3.651 3.651 0 0 0-3.192-1.856 3.024 3.024 0 0 0-2.724 2.394 4.351 4.351 0 0 0-3.744 2.408 5.053 5.053 0 0 0 .139 4.696c.25.34.41.737.464 1.156 0 .533-.385.955-.664 1.391a4.527 4.527 0 0 0-.116 4.176c.585 1.309.998 1.768 1.833 2.028 1.634.515 1.592 2.784 2.223 3.42l1.053-9.354c.08.043.166.074.255.092 1.61.362 1.819-2.784 1.462-3.68a9.508 9.508 0 0 0 1.615-1.693 6.769 6.769 0 0 0 .737-3.248c.604.042 3.077-.775 2.812-.849Z"/><path fill="#BD8C83" d="M108.906 68.672c-.075-.032-2.961-.928-2.914 2.032.046 2.96 3.006 2.32 3.006 2.218 0-.102-.092-4.25-.092-4.25Z"/><path fill="#896360" d="M108.08 71.79s-.051.037-.14.079a.505.505 0 0 1-.385 0 1.293 1.293 0 0 1-.608-1.137c-.01-.253.036-.505.135-.738a.606.606 0 0 1 .385-.403.27.27 0 0 1 .306.139c.038.079 0 .14.038.144.037.004.06-.051.037-.172a.33.33 0 0 0-.121-.18.368.368 0 0 0-.283-.075.725.725 0 0 0-.534.464 1.72 1.72 0 0 0-.167.826 1.337 1.337 0 0 0 .771 1.267.57.57 0 0 0 .464-.084c.097-.056.134-.125.102-.13ZM118.84 79.762s-3.939-.603-6.236-2.353c0 0 1.211 3.605 6.231 3.712l.005-1.36Z"/><path fill="#263238" d="M116 72.036c.107 0 .098.728.715 1.257.617.53 1.392.464 1.392.566 0 .103-.176.14-.506.144a1.813 1.813 0 0 1-1.169-.431 1.592 1.592 0 0 1-.552-1.053c-.01-.307.074-.488.12-.483Z"/><path fill="#3A76F0" d="M107.602 80.37s-9.034 4.458-10.923 7.103c-2.292 3.207 4.056 13.456 4.538 15.999.232 1.22 1.745 10.398 1.035 17.632a123.693 123.693 0 0 0-.543 14.481l29.139-2.343c0-5.104-1.318-9.011-2.19-15.465l-2.19-21.066-3.169-10.825-4.487-1.902-11.21-3.615Z"/><path fill="#455A64" d="m87.501 138.328 9.239 16.648 23.028-11.994-9.039-14.872-15.525 8.436-2.167-1.188-5.536 2.97Z"/><path fill="#3A76F0" d="M123.317 85.886s3.248 2.525 4.538 5.383 3.787 7.916 3.787 7.916l12.528-7.707 3.647 7.071s-9.368 8.375-10.631 9.433c-1.712 1.439-2.849 2.167-4.607 2.167-1.759 0-3.081-.246-4.64-2.538l-2.134-3.851-2.488-17.874Z"/><path fill="#263238" d="M125.948 93.157a.66.66 0 0 1 .051.223l.103.64c.083.562.199 1.392.329 2.371.264 2.005.599 4.78.928 7.847.329 3.067.571 5.851.728 7.864.079 1.012.14 1.824.172 2.39 0 .26.023.464.033.65a.785.785 0 0 1 0 .227 1.413 1.413 0 0 1-.042-.223c0-.171-.042-.385-.074-.645-.061-.598-.144-1.392-.242-2.38-.208-2.042-.487-4.807-.798-7.86-.311-3.053-.631-5.81-.849-7.846l-.26-2.38c-.023-.26-.041-.465-.06-.65a1.238 1.238 0 0 1-.019-.228ZM103.992 95.301c-.042 0 0-.603-.204-1.545a7.585 7.585 0 0 0-4.543-5.568c-.886-.376-1.49-.464-1.48-.506.142-.008.284.007.422.042.38.071.752.175 1.114.31a7.304 7.304 0 0 1 4.635 5.694c.062.382.09.769.084 1.155.013.14.004.281-.028.418ZM123.605 119.805a2.855 2.855 0 0 1-.566-.084 13.327 13.327 0 0 1-1.522-.38c-.744-.226-1.472-.5-2.181-.822a19.906 19.906 0 0 1-2.496-1.392 19.765 19.765 0 0 1-2.26-1.744 17.865 17.865 0 0 1-1.619-1.671 13.856 13.856 0 0 1-.956-1.243 2.782 2.782 0 0 1-.301-.492c.037-.023.501.65 1.392 1.629a20.745 20.745 0 0 0 1.638 1.624 22.529 22.529 0 0 0 2.245 1.707c.789.516 1.611.981 2.46 1.392.696.325 1.41.612 2.139.859 1.234.417 2.037.57 2.027.617Z"/><path fill="#BD8C83" d="m103.686 137.581.222 2.542s1.954 1.021 2.654 1.736c.701.714 2.747 4.51 2.747 4.51a1.075 1.075 0 0 1-1.392.097 16.823 16.823 0 0 1-1.438-2.018 1.09 1.09 0 0 0-1.268.778 1.11 1.11 0 0 0-.013.54c.265 1.136.566 2.463.571 2.64.005.176 1.141 1.267 1.995 2.051a.721.721 0 0 1 .234.395.73.73 0 0 1-.814.876.31.31 0 0 1-.172-.088s.098 1.211-1.568.246c0 0-1.475.357-2.199-.464 0 0-1.819-.251-2.464-.775s-2.093-6.032-2.093-6.032l-.83-5.879 5.828-1.155Z"/><path fill="#896360" d="M103.537 146.392c-.042.332-.034.668.023.998.054.819.3 1.614.72 2.32a4.636 4.636 0 0 0 1.856 1.503c.288.168.601.29.928.362a4.518 4.518 0 0 0-.826-.52 5.222 5.222 0 0 1-1.726-1.494 5.84 5.84 0 0 1-.752-2.181 4.65 4.65 0 0 0-.223-.988ZM102.284 147.06a1.93 1.93 0 0 0-.023.928c.036.329.098.655.186.975.095.404.272.785.52 1.118.276.299.588.563.928.789l.784.556c.23.191.486.347.761.464.023-.032-.228-.259-.65-.612-.213-.176-.464-.385-.752-.603a5.702 5.702 0 0 1-.858-.77 3.092 3.092 0 0 1-.487-1.021 10.278 10.278 0 0 1-.237-.928c-.13-.552-.134-.896-.172-.896ZM100.902 147.946c-.102 0 .153 1.007.538 2.163a.996.996 0 0 0 .278.413c.099.101.206.194.321.278.184.149.383.28.593.39.362.19.618.232.627.199.009-.032-.209-.134-.529-.357a5.48 5.48 0 0 1-.831-.691.799.799 0 0 1-.218-.316c-.185-.589-.38-1.104-.519-1.48a2.92 2.92 0 0 0-.26-.599Z"/><path fill="#3A76F0" d="M96.68 87.473s-3.513 4.362-3.541 7.925c-.028 3.564-.761 26.564-.761 26.564l4.918 19.173 7.842-1.986-2.784-20.198.269-17.539-5.944-13.939Z"/><path fill="#263238" d="M97.296 141.135a.427.427 0 0 1 .135-.047l.404-.116 1.559-.417 5.721-1.49-.065.098c-.59-4.042-1.392-9.401-2.223-15.266-.199-1.392-.399-2.761-.584-4.069.092-5.508.181-10.357.241-13.841.037-1.722.069-3.109.093-4.083 0-.464.027-.831.037-1.1v-.381 1.481c0 .974 0 2.361-.023 4.083-.042 3.489-.103 8.352-.167 13.846.185 1.308.385 2.672.584 4.069l2.172 15.275v.074h-.075l-5.74 1.415-1.568.371-.412.093-.089.005Z"/><path fill="#000" d="M115.643 120.501a25.833 25.833 0 0 0 9.637 1.953c-.501.756-1.447.928-2.352 1.002a7.386 7.386 0 0 1-2.65-.255c-1.661-.51-3.614-1.285-4.64-2.7M131.642 99.185a13.824 13.824 0 0 0-.121 5.308c.014.266.106.523.265.738a.46.46 0 0 0 .535.15.449.449 0 0 0 .165-.109.707.707 0 0 0 0-.645c-.663-2.19-.956-3.159-.854-5.442M102.623 101.412c-1.048 11.345.204 22.485 1.963 33.946l.552 3.791c.603-11.312-.32-26.62-2.515-37.737Z" opacity=".3"/><path fill="#fff" d="M102.735 102.219a2.005 2.005 0 0 1-.33-.376 7.391 7.391 0 0 0-.928-.993 2.683 2.683 0 0 0-1.768-.71c-.38.015-.746.147-1.048.376-.33.228-.627.534-.975.822-.336.3-.746.505-1.188.593-.415.068-.84.026-1.234-.12a2.977 2.977 0 0 1-1.568-1.323 4.449 4.449 0 0 1-.501-1.29 1.395 1.395 0 0 1-.056-.5c.062.15.112.305.148.463.128.43.314.841.553 1.221.345.561.872.987 1.494 1.206.36.128.746.162 1.123.098a2.28 2.28 0 0 0 1.076-.553c.334-.273.64-.58.993-.826a2.075 2.075 0 0 1 1.179-.403c.707.02 1.381.308 1.883.807.335.318.631.675.882 1.063.109.135.198.285.265.445ZM101.941 118.153s-.083.121-.269.302c-.262.258-.539.5-.831.723a12.568 12.568 0 0 1-6.69 2.59 8.588 8.588 0 0 1-1.1.023 1.342 1.342 0 0 1-.4-.042c0-.042.572-.042 1.486-.153a14.173 14.173 0 0 0 6.602-2.557c.752-.529 1.174-.918 1.202-.886ZM103.732 131.4c0 .042-.524-.037-1.35 0a8.653 8.653 0 0 0-1.434.19 9.696 9.696 0 0 0-1.675.562 9.753 9.753 0 0 0-1.531.891 9.023 9.023 0 0 0-1.09.951c-.571.598-.854 1.035-.892 1.011-.037-.023.047-.125.172-.324.174-.285.373-.554.594-.803a7.572 7.572 0 0 1 1.086-1.012 8.515 8.515 0 0 1 1.559-.928 8.7 8.7 0 0 1 1.731-.561 7.5 7.5 0 0 1 1.48-.144c.332-.005.665.022.993.079.123.009.244.038.357.088ZM126.343 98.168s-.311.293-.747.928a18.315 18.315 0 0 0-1.448 2.905c-.295.7-.665 1.366-1.104 1.986a3.91 3.91 0 0 1-2.139 1.48 4.952 4.952 0 0 1-1.42.116 11.256 11.256 0 0 1-1.462-.195 14.948 14.948 0 0 0-3.006-.417c-.503.009-1 .117-1.462.315a3.698 3.698 0 0 0-1.169.868 14.68 14.68 0 0 0-1.578 2.32 7.698 7.698 0 0 1-1.619 2.046c-.598.483-1.3.818-2.051.979a5.106 5.106 0 0 1-3.248-.334 3.416 3.416 0 0 1-1.002-.659c.33.221.677.413 1.039.576.999.412 2.103.5 3.155.25a4.787 4.787 0 0 0 1.963-.965 7.724 7.724 0 0 0 1.554-2.004c.451-.85.986-1.652 1.596-2.395a3.92 3.92 0 0 1 1.239-.928 4.165 4.165 0 0 1 1.559-.338 14.95 14.95 0 0 1 3.058.426c.471.095.946.162 1.425.2.454.028.91-.007 1.355-.107a3.74 3.74 0 0 0 2.036-1.392 10.17 10.17 0 0 0 1.105-1.93c.413-1.012.926-1.98 1.531-2.89.237-.32.52-.603.84-.84ZM123.758 86.578c.04.07.066.147.079.227.04.232.04.469 0 .7a3.064 3.064 0 0 1-1.447 2.05c-.928.595-2.293.72-3.712.656-.706 0-1.444-.07-2.204-.028a5.1 5.1 0 0 0-2.232.575 6.912 6.912 0 0 0-1.74 1.54c-.468.58-.979 1.125-1.527 1.63a5.424 5.424 0 0 1-3.522 1.266 5.497 5.497 0 0 1-2.473-.575 4.165 4.165 0 0 1-.589-.367c-.125-.093-.19-.144-.186-.153.005-.01.279.186.817.436.767.331 1.597.49 2.431.464a5.301 5.301 0 0 0 3.378-1.266 15.19 15.19 0 0 0 1.494-1.61 6.905 6.905 0 0 1 1.801-1.601 5.331 5.331 0 0 1 2.32-.599 21.803 21.803 0 0 1 2.227.046c1.392.075 2.696-.037 3.601-.584a3.017 3.017 0 0 0 1.443-1.921c.061-.291.075-.59.041-.886ZM129.015 121.438a2.511 2.511 0 0 0-.872-.645 3.207 3.207 0 0 0-2.835.316c-.58.368-1.11.809-1.578 1.313a22.655 22.655 0 0 1-1.702 1.693 4.507 4.507 0 0 1-2.413 1.146 5.496 5.496 0 0 1-2.784-.617c-.896-.403-1.722-.867-2.575-1.178a11.794 11.794 0 0 0-2.539-.617 12.403 12.403 0 0 0-4.412.218c-.976.226-1.921.572-2.812 1.03-.631.32-.96.543-.974.519.071-.064.149-.122.232-.171.225-.157.459-.301.7-.432a11.243 11.243 0 0 1 2.817-1.109 12.208 12.208 0 0 1 4.477-.278 12.04 12.04 0 0 1 2.594.617c.872.316 1.712.784 2.589 1.183a5.268 5.268 0 0 0 2.677.599 4.254 4.254 0 0 0 2.293-1.081c.645-.529 1.169-1.133 1.707-1.661a7.789 7.789 0 0 1 1.633-1.323 3.243 3.243 0 0 1 2.961-.25 1.9 1.9 0 0 1 .793.663c0 .042.028.06.023.065Z"/><path fill="#3A76F0" d="M107.412 81.117s-.59-1.276-.297-2.023c.292-.747.566-.799.566-.799l11.744 3.898a1.86 1.86 0 0 1 0 2.046c-.673 1.211-3.954 1.211-3.954 1.211l-8.059-4.334Z"/><path fill="#263238" d="M119.425 84.24a1.76 1.76 0 0 1-.497.19 6.081 6.081 0 0 1-1.443.208 12.7 12.7 0 0 1-4.682-.928 21.883 21.883 0 0 1-4.245-2.2c-.511-.329-.928-.607-1.202-.802a2.255 2.255 0 0 1-.418-.33c.164.067.319.151.464.251l1.244.738a25.883 25.883 0 0 0 4.236 2.116c1.461.6 3.016.94 4.594 1.007a10.719 10.719 0 0 0 1.949-.25Z"/><path fill="#fff" d="M140.402 105.008c.099-.501.13-1.013.093-1.522a3.489 3.489 0 0 0-2.074-2.784c-.645-.278-1.392-.339-1.954-.677a2.368 2.368 0 0 1-1.053-1.36 2.322 2.322 0 0 1-.06-1.155.927.927 0 0 1 .157-.395 2.22 2.22 0 0 1-.065.413c-.039.367.005.738.13 1.086.173.513.528.946.998 1.216.533.301 1.243.352 1.944.649a3.684 3.684 0 0 1 1.601 1.392c.313.488.499 1.046.543 1.624.032.387-.002.776-.102 1.151-.03.129-.083.252-.158.362ZM127.062 102.544c.254-.13.481-.308.668-.524.343-.395.51-1.142.9-1.893a7.698 7.698 0 0 1 1.23-1.759c.186-.233.414-.43.673-.58a16.482 16.482 0 0 0-1.689 2.45c-.372.714-.571 1.475-.989 1.893-.417.418-.798.413-.793.413Z"/><path fill="#000" d="M127.633 107.147c.296-2.098.418-4.216.366-6.334a13.42 13.42 0 0 0-1.628-6.073c.198 4.117.519 8.223.965 12.319M119.016 84.578c-.037-.227-.464-.097-.696-.084-3.512.19-7.86-1.526-10.695-3.874 1.791 2.19 4.176 4.176 6.858 5.048a5.973 5.973 0 0 0 2.38.348 2.748 2.748 0 0 0 2.056-1.127.428.428 0 0 0 .097-.311Z" opacity=".3"/><path fill="#263238" d="M327.76 217.825c0 .065-68.848.12-153.751.12-84.902 0-153.77-.055-153.77-.12s68.835-.121 153.77-.121c84.936 0 153.751.056 153.751.121Z"/><path fill="#fff" d="m95.551 73.359-2.988-5.267a14.129 14.129 0 1 0-3.383 3.759l6.371 1.508Z"/><path fill="#263238" d="m95.551 73.359-6.389-1.439a.052.052 0 0 1-.033-.024.05.05 0 0 1-.004-.04l.074.074a14.023 14.023 0 0 1-6.77 2.858c-.739.105-1.486.143-2.231.116-.386 0-.775-.033-1.17-.065l-1.192-.181a14.222 14.222 0 0 1-8.816-5.661 14.054 14.054 0 0 1-2.39-5.452 14.445 14.445 0 0 1 .167-6.278 13.892 13.892 0 0 1 3.026-5.805 14.153 14.153 0 0 1 5.438-3.883 14.421 14.421 0 0 1 6.329-.975c2.038.141 4.021.727 5.809 1.717a14.333 14.333 0 0 1 6.695 8.245 15.31 15.31 0 0 1 .613 4.594 14.026 14.026 0 0 1-2.111 6.993V68.1l2.946 5.295-3.035-5.243a.051.051 0 0 1 0-.052c1.282-2.1 1.99-4.5 2.051-6.96a15.237 15.237 0 0 0-.621-4.538A14.166 14.166 0 0 0 87.3 48.48a13.749 13.749 0 0 0-5.725-1.68 14.208 14.208 0 0 0-6.236.96 13.961 13.961 0 0 0-5.355 3.829A13.752 13.752 0 0 0 67 57.304a14.185 14.185 0 0 0-.167 6.19 13.885 13.885 0 0 0 2.343 5.378 14.096 14.096 0 0 0 8.696 5.605l1.174.185c.39.033.78.042 1.16.065.738.032 1.477-.002 2.209-.102a14.04 14.04 0 0 0 6.74-2.796.05.05 0 0 1 .057.012.056.056 0 0 1 0 .065l-.028-.088 6.366 1.54Z"/><path fill="#3A76F0" d="m73.01 61.002 2.028-2.027 3.902 3.47 7.665-7.373 1.884 2.023-9.837 9.257-5.642-5.35Z"/></svg>