<svg xmlns="http://www.w3.org/2000/svg" width="294" height="294" fill="none"><g clip-path="url(#a)"><path fill="#EBEBEB" d="M294 224.851H0v.147h294v-.147ZM264.541 234.312h-19.475v.147h19.475v-.147ZM194.757 235.912h-5.11v.147h5.11v-.147ZM244.478 228.855h-11.283v.147h11.283v-.147ZM56.242 229.843H30.848v.147h25.395v-.147ZM65.203 229.843h-3.722v.147h3.722v-.147ZM132.389 232.325H77.305v.147h55.084v-.147ZM139.356 198.626H25.819a3.353 3.353 0 0 1-3.352-3.357v-159.6a3.358 3.358 0 0 1 3.352-3.329h113.537a3.358 3.358 0 0 1 3.357 3.358v159.571a3.357 3.357 0 0 1-3.357 3.357ZM25.819 32.458a3.21 3.21 0 0 0-3.205 3.21V195.27a3.21 3.21 0 0 0 3.205 3.21h113.537a3.21 3.21 0 0 0 2.268-.942 3.21 3.21 0 0 0 .942-2.268v-159.6a3.213 3.213 0 0 0-3.21-3.211H25.819ZM266.546 198.626H153.003a3.36 3.36 0 0 1-3.357-3.357v-159.6a3.364 3.364 0 0 1 3.357-3.329h113.543a3.355 3.355 0 0 1 3.346 3.328V195.27a3.358 3.358 0 0 1-3.346 3.357ZM153.003 32.458a3.216 3.216 0 0 0-3.21 3.21V195.27a3.212 3.212 0 0 0 3.21 3.21h113.543a3.215 3.215 0 0 0 3.211-3.21v-159.6a3.218 3.218 0 0 0-3.211-3.21H153.003Z"/><path fill="#F5F5F5" d="m162.559 207.305 54.531-10.837a2.636 2.636 0 0 1 1.986.393 2.625 2.625 0 0 1 1.124 1.683l1.87 9.408.988 4.969.382 1.928-2.311-1.546-55.201 10.972a2.64 2.64 0 0 1-3.111-2.082l-2.352-11.76a2.657 2.657 0 0 1 .392-2.002 2.632 2.632 0 0 1 1.702-1.126Z"/><path fill="#E6E6E6" d="M119.952 141.12H58.03a12.158 12.158 0 0 0-12.166 12.148v48.34h86.224v-48.34a12.158 12.158 0 0 0-12.136-12.148Z"/><path fill="#E0E0E0" d="M150.387 176.935h-11.078a7.228 7.228 0 0 0-5.108 2.117 7.242 7.242 0 0 0-1.565 2.344 7.249 7.249 0 0 0-.548 2.765v39.984h25.525v-39.984a7.225 7.225 0 0 0-7.226-7.226Z"/><path fill="#EBEBEB" d="M150.387 176.935h-.229a7.226 7.226 0 0 0-7.227 7.226v39.984h14.7v-39.984a7.23 7.23 0 0 0-7.244-7.226Z"/><path fill="#E6E6E6" d="M139.844 205.771H54.89v18.363h84.954v-18.363Z"/><path fill="#F5F5F5" d="M139.962 188.977H58.03a7.344 7.344 0 0 0-7.344 7.345v4.574a7.344 7.344 0 0 0 7.344 7.344h81.932a7.344 7.344 0 0 0 7.344-7.344v-4.574a7.344 7.344 0 0 0-7.344-7.345Z"/><path fill="#E0E0E0" d="M68.326 188.977h-10.16a7.344 7.344 0 0 0-7.345 7.345v4.574a7.344 7.344 0 0 0 7.344 7.344h10.16a7.344 7.344 0 0 0 7.345-7.344v-4.574a7.344 7.344 0 0 0-7.344-7.345Z"/><path fill="#E0E0E0" d="M57.071 176.935H45.993a7.224 7.224 0 0 0-7.226 7.226v39.984h25.525v-39.984a7.222 7.222 0 0 0-7.22-7.226Z"/><path fill="#F0F0F0" d="M57.071 176.935h-.235a7.224 7.224 0 0 0-7.226 7.226v39.984h14.7v-39.984a7.221 7.221 0 0 0-7.239-7.226Z"/><path fill="#E0E0E0" d="M45.476 86.742v16.188h22.908V86.742H45.476Z"/><path fill="#EBEBEB" d="M46.552 87.8v14.077h20.756V87.8H46.552Z"/><path fill="#E0E0E0" d="M53.42 66.403V82.59h22.908V66.403H53.42Z"/><path fill="#EBEBEB" d="M54.496 67.461v14.077h20.756V67.461H54.496Z"/><path fill="#E0E0E0" d="M87.306 86.742H72.73v20.627h14.576V86.742Z"/><path fill="#EBEBEB" d="M86.354 87.712H73.677v18.687h12.677V87.712Z"/><path fill="#E0E0E0" d="M95.597 59.682H79.409v22.909h16.188V59.682Z"/><path fill="#EBEBEB" d="M94.539 60.758H80.462v20.757h14.077V60.758Z"/><path fill="#E0E0E0" d="M110.191 99.42V86.741h-17.94v12.677h17.94Z"/><path fill="#EBEBEB" d="M109.35 98.59V87.565H93.098V98.59h16.252ZM172.578 135.199h78.145V54.455h-78.145v80.744Z"/><path fill="#F0F0F0" d="M169.844 135.199h78.145V54.455h-78.145v80.744Z"/><path fill="#E0E0E0" d="M246.019 56.371h-74.1v76.952h74.1V56.371Z"/><path fill="#F5F5F5" d="M246.019 56.371h-72.248v76.952h72.248V56.371Z"/><path fill="#EBEBEB" d="M209.151 133.323h1.465V56.372h-1.465v76.951Z"/><path fill="#fff" d="m200.731 56.371-20.591 76.952h-1.976l20.592-76.952h1.975Z"/><path fill="#F0F0F0" d="M208.516 134.799h1.258V55.184h-1.258v79.615Z"/><path fill="#fff" d="m193.258 56.371-19.487 72.824v-40.03l8.773-32.794h10.714ZM246.019 63.351v7.386l-16.746 62.586h-1.976l18.722-69.972ZM246.019 78.269v40.025l-4.016 15.029h-10.707l14.723-55.054Z"/><path fill="#E0E0E0" d="m197.309 207.258 55.572-1.493a2.625 2.625 0 0 1 1.894.723 2.637 2.637 0 0 1 .823 1.852l.258 9.561.136 5.068.052 1.964-2.028-1.911-56.254 1.512a2.661 2.661 0 0 1-2.723-2.576l-.317-11.983a2.653 2.653 0 0 1 .729-1.896 2.634 2.634 0 0 1 1.858-.821Z"/><path fill="#EBEBEB" d="m185.391 181.475 55.354 5.18a2.643 2.643 0 0 1 2.283 1.853c.102.333.137.682.104 1.028l-.876 9.526-.476 5.045-.182 1.958-1.764-2.141-56.037-5.245a2.65 2.65 0 0 1-2.387-2.887l1.117-11.93a2.64 2.64 0 0 1 2.864-2.387Z"/><path fill="#E0E0E0" d="m196.727 173.842 55.313-5.598a2.649 2.649 0 0 1 2.899 2.352l.965 9.514.511 5.045.2 1.958-2.158-1.764-55.989 5.669a2.649 2.649 0 0 1-2.899-2.352l-1.205-11.925a2.646 2.646 0 0 1 2.363-2.899Z"/><path fill="#F5F5F5" d="M147 251.405c62.964 0 114.007-2.98 114.007-6.656 0-3.676-51.043-6.656-114.007-6.656-62.965 0-114.008 2.98-114.008 6.656 0 3.676 51.043 6.656 114.008 6.656Z"/><path fill="#0A8072" d="M146.835 68.667V242.99a2.562 2.562 0 0 1-.759 1.817 2.552 2.552 0 0 1-1.828.735H63.104a2.257 2.257 0 0 1-1.623-.659 2.312 2.312 0 0 1-.694-1.681V68.455a2.058 2.058 0 0 1 1.982-2.134h23.08a1.623 1.623 0 0 1 1.48 1.034l.96 2.352a1.616 1.616 0 0 0 1.481 1.03h28.224a1.603 1.603 0 0 0 1.482-1.012l.958-2.352a1.626 1.626 0 0 1 1.482-1.04h22.709a2.35 2.35 0 0 1 2.21 2.334Z"/><path fill="#fff" d="M71.501 73.341h1.2v-1.6h-1.2v1.6ZM69.548 73.341h1.2v-2.128h-1.2v2.128ZM67.597 73.341h1.2v-2.663h-1.2v2.663ZM65.638 73.341h1.2v-3.198h-1.2v3.198ZM135.852 71.16h-.712v1.6h.712v-1.6ZM136.339 73.335h5.663v-2.763h-5.663v2.763Z" opacity=".6"/><g fill="#fff" opacity=".1"><path d="m99.507 70.73-24.76 92.763-.277 1.041-.447 1.676-.282 1.047-12.936 48.439v-58.624l24.232-90.77h.811a1.629 1.629 0 0 1 1.482 1.042l.952 2.352a1.622 1.622 0 0 0 1.482 1.029l9.743.006ZM146.835 118.106v58.624l-15.446 57.859-.377 1.405-2.546 9.543H112.82l2.546-9.537.405-1.535 2.047-7.661.405-1.535.824-3.064.411-1.534.812-3.07.411-1.528 12.877-48.228v-.006l.594-2.229v-.005l12.683-47.499ZM107.992 70.73l-24.614 92.187-.147.553-1.346 5.051-.147.547-20.24 75.852a2.358 2.358 0 0 1-.687-1.688v-8.949l17.393-65.215.153-.547 1.346-5.051.147-.553 24.608-92.186h3.534Z"/></g><path fill="#fff" d="M146.83 77.68H60.805v160.143h86.025V77.681Z" opacity=".4"/><path fill="#000" d="M146.83 190.189H60.805v47.634h86.025v-47.634Z" opacity=".3"/><path fill="#fff" d="M125.814 177.688H69.913a3.669 3.669 0 1 0 0 7.338h55.901a3.669 3.669 0 1 0 0-7.338Z"/><path fill="#0A8072" d="M138.421 176.618h-.006a4.74 4.74 0 0 0-4.739 4.739v.006a4.739 4.739 0 0 0 4.739 4.739h.006a4.739 4.739 0 0 0 4.739-4.739v-.006a4.74 4.74 0 0 0-4.739-4.739Z"/><path fill="#fff" d="M124.485 102.97H68.89a2.645 2.645 0 0 0-2.646 2.646v16.6l1.964-1.97h56.277a2.634 2.634 0 0 0 2.446-1.633c.133-.321.201-.665.2-1.013v-11.984a2.63 2.63 0 0 0-.773-1.872 2.649 2.649 0 0 0-1.873-.774Z"/><path fill="#000" d="M121.251 106.963H72.324a.806.806 0 0 0-.746 1.116.803.803 0 0 0 .746.501h48.939a.809.809 0 1 0-.012-1.617ZM121.251 110.826H72.324a.803.803 0 0 0-.746.502.805.805 0 0 0 .746 1.115h48.939a.802.802 0 0 0 .811-.805.817.817 0 0 0-.241-.578.807.807 0 0 0-.582-.234ZM103.611 114.695H72.324a.806.806 0 0 0-.746 1.116.803.803 0 0 0 .746.501h31.299a.812.812 0 0 0 .748-1.124.798.798 0 0 0-.446-.437.823.823 0 0 0-.314-.056ZM107.774 114.889c0-.247-.199-.417-.546-.417a.808.808 0 0 0-.688.306l-.277-.2a1.179 1.179 0 0 1 .994-.43c.547 0 .906.253.906.683 0 .64-.677.682-.677 1.176h-.388c0-.594.676-.683.676-1.118Zm-.729 1.764a.242.242 0 0 1 .253-.241.226.226 0 0 1 .093.017.234.234 0 0 1 .148.224.251.251 0 0 1-.016.094.255.255 0 0 1-.052.081.244.244 0 0 1-.173.072.243.243 0 0 1-.185-.076.254.254 0 0 1-.054-.087.266.266 0 0 1-.014-.101v.017Z" opacity=".3"/><g fill="#fff" opacity=".7"><path d="M75.352 194.975h-5.35a.97.97 0 0 0-.97.97v5.351c0 .536.434.97.97.97h5.35a.97.97 0 0 0 .97-.97v-5.351a.97.97 0 0 0-.97-.97ZM84.278 194.975h-5.35a.97.97 0 0 0-.97.97v5.351c0 .536.434.97.97.97h5.35a.97.97 0 0 0 .97-.97v-5.351a.97.97 0 0 0-.97-.97ZM93.198 194.975h-5.351a.97.97 0 0 0-.97.97v5.351c0 .536.434.97.97.97h5.35a.97.97 0 0 0 .971-.97v-5.351a.97.97 0 0 0-.97-.97ZM102.123 194.975h-5.35a.97.97 0 0 0-.97.97v5.351c0 .536.434.97.97.97h5.35a.97.97 0 0 0 .971-.97v-5.351a.971.971 0 0 0-.971-.97ZM111.05 194.975h-5.351a.97.97 0 0 0-.97.97v5.351c0 .536.434.97.97.97h5.351a.97.97 0 0 0 .97-.97v-5.351a.97.97 0 0 0-.97-.97ZM119.97 194.975h-5.351a.97.97 0 0 0-.97.97v5.351c0 .536.434.97.97.97h5.351a.97.97 0 0 0 .97-.97v-5.351a.97.97 0 0 0-.97-.97ZM128.895 194.975h-5.351a.97.97 0 0 0-.97.97v5.351c0 .536.435.97.97.97h5.351a.97.97 0 0 0 .97-.97v-5.351a.97.97 0 0 0-.97-.97ZM137.815 194.975h-5.35a.971.971 0 0 0-.971.97v5.351c0 .536.435.97.971.97h5.35a.97.97 0 0 0 .971-.97v-5.351a.971.971 0 0 0-.971-.97ZM79.815 204.577h-5.351a.97.97 0 0 0-.97.97v5.351c0 .536.434.97.97.97h5.35a.97.97 0 0 0 .971-.97v-5.351a.97.97 0 0 0-.97-.97ZM88.741 204.577h-5.35a.97.97 0 0 0-.971.97v5.351c0 .536.434.97.97.97h5.351a.97.97 0 0 0 .97-.97v-5.351a.97.97 0 0 0-.97-.97ZM97.66 204.577h-5.35a.97.97 0 0 0-.97.97v5.351c0 .536.434.97.97.97h5.35a.97.97 0 0 0 .97-.97v-5.351a.97.97 0 0 0-.97-.97ZM106.587 204.577h-5.351a.97.97 0 0 0-.97.97v5.351c0 .536.434.97.97.97h5.351a.97.97 0 0 0 .97-.97v-5.351a.97.97 0 0 0-.97-.97ZM115.507 204.577h-5.351a.97.97 0 0 0-.97.97v5.351c0 .536.434.97.97.97h5.351a.97.97 0 0 0 .97-.97v-5.351a.97.97 0 0 0-.97-.97ZM124.432 204.577h-5.35a.971.971 0 0 0-.971.97v5.351c0 .536.435.97.971.97h5.35a.97.97 0 0 0 .971-.97v-5.351a.971.971 0 0 0-.971-.97ZM133.353 204.577h-5.351a.97.97 0 0 0-.97.97v5.351c0 .536.434.97.97.97h5.351a.97.97 0 0 0 .97-.97v-5.351a.97.97 0 0 0-.97-.97ZM84.278 214.179h-5.35a.97.97 0 0 0-.97.97v5.351c0 .536.434.97.97.97h5.35a.97.97 0 0 0 .97-.97v-5.351a.97.97 0 0 0-.97-.97ZM93.198 214.179h-5.351a.97.97 0 0 0-.97.97v5.351c0 .536.434.97.97.97h5.35a.97.97 0 0 0 .971-.97v-5.351a.97.97 0 0 0-.97-.97ZM102.123 214.179h-5.35a.97.97 0 0 0-.97.97v5.351c0 .536.434.97.97.97h5.35a.97.97 0 0 0 .971-.97v-5.351a.971.971 0 0 0-.971-.97ZM111.05 214.179h-5.351a.97.97 0 0 0-.97.97v5.351c0 .536.434.97.97.97h5.351a.97.97 0 0 0 .97-.97v-5.351a.97.97 0 0 0-.97-.97ZM119.97 214.179h-5.351a.97.97 0 0 0-.97.97v5.351c0 .536.434.97.97.97h5.351a.97.97 0 0 0 .97-.97v-5.351a.97.97 0 0 0-.97-.97ZM128.895 214.179h-5.351a.97.97 0 0 0-.97.97v5.351c0 .536.435.97.97.97h5.351a.97.97 0 0 0 .97-.97v-5.351a.97.97 0 0 0-.97-.97ZM75.352 223.787h-5.35a.97.97 0 0 0-.97.97v5.351c0 .536.433.97.97.97h5.35a.97.97 0 0 0 .97-.97v-5.351a.97.97 0 0 0-.97-.97ZM84.278 223.787h-5.35a.97.97 0 0 0-.97.97v5.351c0 .536.434.97.97.97h5.35a.97.97 0 0 0 .97-.97v-5.351a.97.97 0 0 0-.97-.97ZM119.952 223.787h-32.1a.973.973 0 0 0-.9.598.97.97 0 0 0-.075.372v5.345a.977.977 0 0 0 .976.976h32.099a.968.968 0 0 0 .97-.976v-5.345a.97.97 0 0 0-.97-.97ZM128.895 223.787h-5.351a.97.97 0 0 0-.97.97v5.351c0 .536.435.97.97.97h5.351a.97.97 0 0 0 .97-.97v-5.351a.97.97 0 0 0-.97-.97ZM137.815 223.787h-5.35a.971.971 0 0 0-.971.97v5.351c0 .536.435.97.971.97h5.35a.97.97 0 0 0 .971-.97v-5.351a.971.971 0 0 0-.971-.97Z" opacity=".7"/></g><path fill="#000" d="M146.83 77.68H60.805v16.647h86.025V77.681Z" opacity=".3"/><path fill="#fff" d="M70.148 81.262a4.74 4.74 0 0 0-4.74 4.745 4.74 4.74 0 0 0 6.555 4.38 4.738 4.738 0 0 0 2.93-4.38 4.745 4.745 0 0 0-4.745-4.745ZM97.36 85.137H80.557a1.088 1.088 0 1 1 0-2.176h16.799a1.081 1.081 0 0 1 1.082 1.088 1.082 1.082 0 0 1-1.076 1.088ZM108.086 89.323H80.021a.547.547 0 0 1-.547-.546.546.546 0 0 1 .547-.541h28.065a.549.549 0 0 1 .547.54.549.549 0 0 1-.547.547ZM142.237 83.525h-6.315a.542.542 0 0 1-.383-.925.547.547 0 0 1 .383-.162h6.315a.549.549 0 0 1 .541.547.54.54 0 0 1-.541.54ZM142.237 89.406h-6.315a.542.542 0 0 1-.383-.926.547.547 0 0 1 .383-.162h6.315a.549.549 0 0 1 .541.547.539.539 0 0 1-.541.54ZM142.237 86.466h-6.315a.542.542 0 0 1-.383-.926.546.546 0 0 1 .383-.162h6.315a.548.548 0 0 1 .541.546.539.539 0 0 1-.541.541Z" opacity=".6"/><path fill="#E4897B" d="m185.702 141.284-.918.718a90.85 90.85 0 0 1-4.839 3.422c-2.734 1.764-5.756 3.44-7.379 3.34-2.258-.147-12.536-7.344-12.536-7.344s-5.104 2.722-6.116 1.946c-1.011-.776-2.352-3.469-2.422-3.804-.071-.336 5.057-2.94 6.362-2.94 1.305 0 3.258 2.734 3.258 2.734s10.501 5.75 11.654 5.609c1.152-.141 6.503-4.951 8.82-7.115l4.116 3.434Z"/><path fill="#000" d="M184.784 142.002a90.85 90.85 0 0 1-4.839 3.422c.288-2.499 3.075-5.445 3.075-5.445l1.764 2.023Z" opacity=".2"/><path fill="#263238" d="M200.555 109.609s.4-1.511-.588-4.116l.659-.358c.232.623.429 1.259.588 1.905a6.69 6.69 0 0 0 .688-2.876h.958c-.013.99-.133 1.976-.359 2.94 0 0 1.176-1.905 2.982-2.263v1.146a4.959 4.959 0 0 0-1.388.882 5.462 5.462 0 0 1 2.428-.229v1.435s-1.434.288-1.905.934a2.856 2.856 0 0 1 2.229.759l-.535.823s-1.623-.47-2.699 0a2.81 2.81 0 0 1 1.764 1.082l-.435.535a4.988 4.988 0 0 0-3.417-.87c-1.828.323-.97-1.729-.97-1.729Z"/><path fill="#3A76F0" d="m194.945 113.995 5.492-4.351s1.394.97 1.706 1.882l-5.357 5.174-1.841-2.705Z"/><path fill="#263238" d="M182.527 123.333s-3.417-5.621 1.276-9.732c4.692-4.11 11.348-2.84 14.229.394 3.493 3.911 4.116 12.654-5.356 16.329-10.943 4.251-10.149-6.991-10.149-6.991ZM224.41 152.492h-2.534l-7.056 41.407h2.534l7.056-41.407ZM215.002 152.492h-2.534l-7.056 41.407h2.534l7.056-41.407ZM205.594 152.492h-2.534l-7.056 41.407h2.534l7.056-41.407Z"/><path fill="#fff" d="M224.41 152.492h-2.534l-7.056 41.407h2.534l7.056-41.407ZM215.002 152.492h-2.534l-7.056 41.407h2.534l7.056-41.407ZM205.594 152.492h-2.534l-7.056 41.407h2.534l7.056-41.407Z" opacity=".4"/><path fill="#263238" d="m202.748 194.975-.211 9.155-.965 41.413h-3.181l-.958-41.413-.206-9.155h5.521Z"/><path fill="#fff" d="m202.748 194.975-.211 9.155-.965 41.413h-3.181l-.958-41.413-.206-9.155h5.521Z" opacity=".4"/><path fill="#000" d="m202.748 194.975-.211 9.408h-5.104l-.206-9.408h5.521Z" opacity=".2"/><path fill="#263238" d="m220.024 245.396-2.935-49.774h-4.804l4.111 49.774h3.628Z"/><path fill="#fff" d="M216.39 245.396h3.628l-2.664-45.306-.265-4.527h-4.804l.371 4.527 3.734 45.306Z" opacity=".4"/><path fill="#000" d="m212.285 195.563.371 4.704h4.698l-.265-4.704h-4.804Z" opacity=".2"/><path fill="#263238" d="m183.573 245.396 4.116-49.774h-4.804l-2.94 49.774h3.628Z"/><path fill="#fff" d="m183.585 245.396 3.734-45.306.37-4.527h-4.804l-.264 4.527-2.67 45.306h3.634Z" opacity=".4"/><path fill="#000" d="m187.69 195.563-.371 4.704h-4.698l.265-4.704h4.804Z" opacity=".2"/><path fill="#3A76F0" d="M183.25 190.465h33.469a2.94 2.94 0 0 1 2.94 2.94v3.934H180.31v-3.934a2.94 2.94 0 0 1 2.94-2.94ZM220.029 157.272c-4.08-2.469-9.743-2.469-15.158 0-2.735 1.176-5.969 1.541-7.403-.188-2.44-2.54 1.864-10.084 10.06-12.436 5.88-1.688 11.707-1.688 16.676 0 6.933 2.387 7.144 9.92 3.334 12.46-2.37 1.705-5.415 1.364-7.509.164Z"/><path fill="#000" d="M183.25 190.465h33.469a2.94 2.94 0 0 1 2.94 2.94v3.934H180.31v-3.934a2.94 2.94 0 0 1 2.94-2.94Z" opacity=".4"/><path fill="#263238" d="M220.365 193.899H179.61c-.652 0-1.182.529-1.182 1.182v1.07c0 .653.53 1.182 1.182 1.182h40.755c.652 0 1.182-.529 1.182-1.182v-1.07c0-.653-.53-1.182-1.182-1.182Z"/><path fill="#fff" d="M220.365 193.899H179.61c-.652 0-1.182.529-1.182 1.182v1.07c0 .653.53 1.182 1.182 1.182h40.755c.652 0 1.182-.529 1.182-1.182v-1.07c0-.653-.53-1.182-1.182-1.182Z" opacity=".6"/><path fill="#000" d="M220.029 157.272c-4.08-2.469-9.743-2.469-15.158 0-2.735 1.176-5.969 1.541-7.403-.188-2.44-2.54 1.864-10.084 10.06-12.436 5.88-1.688 11.707-1.688 16.676 0 6.933 2.387 7.144 9.92 3.334 12.46-2.37 1.705-5.415 1.364-7.509.164Z" opacity=".4"/><path fill="#E4897B" d="m148.064 224.616 3.869.929 1.958-5.339 1.776-4.851-4.404-1.882-1.694 5.892-1.505 5.251Z"/><path fill="#263238" d="M152.88 225.286c.094-.429-5.228-1.358-5.228-1.358s-4.01 2.505-7.314 2.487c-3.305-.017-2.011 2.282 1.487 3.123l8.65 2.087c2.481.594 1.44-1.893 2.405-6.339Z"/><path fill="#263238" d="M144.136 224.369a.507.507 0 0 1 0-.588.58.58 0 0 1 .365-.288 2.213 2.213 0 0 1 1.176.153c-.37-.329-.682-.694-.629-.97.035-.183.182-.306.453-.359a.838.838 0 0 1 .682.141c.635.471.782 1.794.788 1.852a.236.236 0 0 1 0 .065v.035l-.042.036a.075.075 0 0 1-.047 0 8.67 8.67 0 0 1-1.699.205 1.371 1.371 0 0 1-1.047-.282Zm.453-.588a.285.285 0 0 0-.194.147c-.1.188-.047.259 0 .282.194.265 1.229.206 2.076.065-.582-.282-1.453-.635-1.882-.506v.012Zm1.006-1.176c-.077 0-.212.059-.23.129-.041.242.588.83 1.317 1.312a2.388 2.388 0 0 0-.629-1.347.543.543 0 0 0-.323-.106l-.135.012Z"/><path fill="#000" d="m149.569 219.365 4.322.841 1.776-4.851-4.404-1.882-1.694 5.892Z" opacity=".2"/><path fill="#3A76F0" d="m149.94 216.549 5.363 1.993s14.306-35.768 17.246-35.868c2.94-.1 32.875 13.636 40.378 6.003 7.502-7.632-3.346-26.013-3.346-26.013s-18.046-2.575-19.404 1.5a28.684 28.684 0 0 0-.765 3.657c-.205 1.247-.346 2.293-.346 2.293-.559-.141-18.675-4.816-25.814 0-7.244 4.881-13.312 46.435-13.312 46.435Z"/><path fill="#E4897B" d="m180.804 239.875 3.851-.988-.741-5.527-.688-5.069-4.762.423 1.234 5.91 1.106 5.251Z"/><path fill="#263238" d="M185.696 238.728c0-.435-5.398-.03-5.398-.03s-3.275 3.411-6.468 4.21c-3.193.8-1.387 2.705 2.211 2.664l8.902-.112c2.535-.058.912-2.216.753-6.732Z"/><path fill="#263238" d="M176.988 239.957a.514.514 0 0 1-.141-.588.579.579 0 0 1 .282-.365 2.185 2.185 0 0 1 1.211-.147c-.441-.229-.829-.511-.852-.793 0-.185.117-.337.353-.459a.814.814 0 0 1 .693 0c.735.294 1.176 1.541 1.224 1.599a.12.12 0 0 1 0 .065.113.113 0 0 1-.03.053h-.035a6.682 6.682 0 0 1-2.24.711.716.716 0 0 1-.465-.076Zm.288-.694a.303.303 0 0 0-.153.188c-.053.212 0 .271.041.288.253.206 1.241-.105 2.029-.446-.588-.13-1.511-.259-1.899-.03h-.018Zm.688-1.382c-.076.036-.194.106-.188.183 0 .241.788.652 1.593.94a2.389 2.389 0 0 0-.94-1.176.7.7 0 0 0-.212-.041.588.588 0 0 0-.235.094h-.018Z"/><path fill="#000" d="m179.728 234.741 4.216-1.276-.706-5.121-4.768.4 1.258 5.997Z" opacity=".2"/><path fill="#3A76F0" d="m157.537 216.56-7.809-2.658-.335 3.199 5.921 2.099 2.223-2.64ZM199.984 190.512s-1.223.029-20.15-.853c0 0 2.828 23.667 4.374 41.378l-5.662.964s-13.524-37.932-13.377-43.959c.147-6.027 7.056-7.791 7.056-7.791s13.489 7.768 27.759 10.261Z"/><path fill="#000" d="M199.984 190.512s-1.223.029-20.15-.853c0 0 2.828 23.667 4.374 41.378l-5.662.964s-13.524-37.932-13.377-43.959c.147-6.027 7.056-7.791 7.056-7.791s13.489 7.768 27.759 10.261Z" opacity=".3"/><path fill="#3A76F0" d="m185.037 229.297-7.779.887 1.5 3.046 6.297-.805-.018-3.128Z"/><path fill="#000" d="m189.083 170.091 10.554 2.193s-5.833-3.222-10.207-4.492c-.206 1.252-.347 2.299-.347 2.299Z" opacity=".3"/><path fill="#263238" d="m209.163 159.836.435 2.805-19.404 1.499-.512-3.322 19.481-.982Z"/><path fill="#000" d="m209.163 159.836.435 2.805-19.404 1.499-.512-3.322 19.481-.982Z" opacity=".2"/><path fill="#3A76F0" d="m203.042 164.536.959-.098-.502-4.885-.959.099.502 4.884Z"/><path fill="#fff" d="m194.421 164.052 4.248-.273-.207-3.222-4.248.273.207 3.222Z"/><path fill="#3A76F0" d="m191.143 165.048.959-.098-.502-4.884-.96.098.503 4.884Z"/><path fill="#263238" d="M209.163 159.836s-1.587-15.876-4.333-22.985a5.207 5.207 0 0 0-4.986-3.305 45.285 45.285 0 0 0-18.258 4.281s1.982 11.936 4.216 14.288c2.235 2.352 3.881 8.703 3.881 8.703l19.48-.982Z"/><path fill="#E4897B" d="M190.018 135.322c.076 1.176-.547 1.494-.547 1.494a2.347 2.347 0 0 0 .796 1.91 2.365 2.365 0 0 0 1.997.542c3.599-.729 4.316-5.21 4.316-5.21-2.746-.794-3.622-3.646-3.904-5.363a8.951 8.951 0 0 1-.135-1.358l-4.628 3.593c.485.65.923 1.334 1.311 2.046.42.721.69 1.519.794 2.346Z"/><path fill="#000" d="M187.913 130.93c.485.65.923 1.334 1.311 2.046a6.19 6.19 0 0 1 .794 2.352c2.769-.335 2.64-6.591 2.64-6.591v-.036a9.081 9.081 0 0 1-.135-1.358l-4.61 3.587Z" opacity=".2"/><path fill="#E4897B" d="M188.912 115.942c-5.004-.224-6.738 2.352-7.332 7.526-.747 6.427.476 11.072 6.797 9.996 8.603-1.511 8.85-17.152.535-17.522Z"/><path fill="#DE5753" d="M184.826 123.333a10.702 10.702 0 0 1-1.547 2.011 1.38 1.38 0 0 0 1.294.629l.253-2.64Z"/><path fill="#263238" d="M187.913 123.062c-.029.412.171.759.441.777.271.017.523-.3.547-.712.023-.412-.171-.758-.441-.776-.271-.018-.523.3-.547.711Z"/><path fill="#263238" d="m188.571 122.38-.87-.411s.394.782.87.411ZM182.809 122.627c0 .412.171.759.447.777.276.017.517-.3.547-.706.029-.406-.177-.759-.447-.782-.271-.024-.488.3-.547.711Z"/><path fill="#263238" d="m183.456 121.945-.87-.411s.405.77.87.411Z"/><path stroke="#263238" stroke-linecap="round" stroke-linejoin="round" stroke-width=".426" d="M188.16 119.511a2.61 2.61 0 0 1 2.046 1.047M184.456 119.052a2.364 2.364 0 0 0-1.929.676"/><path fill="#263238" d="M194.04 124.621s-2.158-4.216-1.664-7.374c0 0-9.743-4.498-10.678 5.551 0 0-.588-8.985 8.043-8.82 8.632.164 8.021 12.777 3.405 16.329-.029.017 2.199-3.046.894-5.686Z"/><path fill="#E4897B" d="M193.146 125.644a2.195 2.195 0 0 1 2.452-1.899c1.546.235 2.14 3.451-1.764 4.045-.547.088-.835-.464-.688-2.146Z"/><path stroke="#263238" stroke-linecap="round" stroke-linejoin="round" stroke-width=".426" d="M187.725 126.649a2.43 2.43 0 0 1-2.552 1.935"/><path fill="#fff" d="m194.363 144.307-2.534.465-.976 10.46h1.823l.429-3.134 3.322-.47 2.117 2.793 2.864-.465-7.045-9.649Zm-1.217 6.162.294-3.287 1.935 2.94-2.229.347Z" opacity=".4"/><path fill="#E4897B" d="M202.683 134.734c5.51.882.465 20.386-.929 22.48-1.393 2.093-13.841 10.584-13.841 10.584s-.512 1.881-1.464 1.681c-.953-.2-7.156-.588-7.844-1.252-.688-.665 1.176-2.058 1.705-2.405.529-.347 6.674-.435 6.674-.435s9.884-8.173 10.931-9.685c1.046-1.511 1.817-13.265 2.069-16.399.253-3.134 1.253-4.804 2.699-4.569Z"/><g clip-path="url(#b)"><path fill="url(#c)" d="M37.08 68.195a24.274 24.274 0 0 0 3.247 12.157l-3.45 12.6L49.77 89.57a24.313 24.313 0 0 0 11.623 2.959h.011c13.405 0 24.317-10.908 24.323-24.316a24.165 24.165 0 0 0-7.118-17.203c-4.592-4.596-10.699-7.128-17.206-7.13-13.407 0-24.318 10.907-24.324 24.314"/><path fill="url(#d)" d="M36.212 68.187a25.144 25.144 0 0 0 3.363 12.593L36 93.83l13.357-3.502a25.184 25.184 0 0 0 12.04 3.066h.011c13.886 0 25.19-11.3 25.197-25.188.002-6.73-2.617-13.06-7.374-17.82S68.148 43.003 61.408 43C47.52 43 36.217 54.3 36.211 68.187Zm7.954 11.935-.499-.792a20.88 20.88 0 0 1-3.201-11.141c.004-11.544 9.398-20.935 20.95-20.935a20.807 20.807 0 0 1 14.806 6.14 20.81 20.81 0 0 1 6.129 14.812c-.006 11.543-9.4 20.935-20.943 20.935H61.4a20.918 20.918 0 0 1-10.659-2.919l-.765-.453-7.926 2.078 2.116-7.725Z"/><path fill="#fff" d="M55.11 57.657c-.47-1.048-.967-1.07-1.416-1.088-.367-.016-.787-.014-1.206-.014-.42 0-1.102.158-1.679.787-.577.63-2.204 2.153-2.204 5.25 0 3.098 2.256 6.092 2.57 6.512.316.42 4.356 6.98 10.755 9.503 5.319 2.097 6.4 1.68 7.555 1.575 1.154-.105 3.725-1.523 4.25-2.993.524-1.47.524-2.73.367-2.993-.157-.262-.577-.42-1.207-.735-.63-.314-3.725-1.838-4.302-2.048-.577-.21-.997-.314-1.416.316-.42.63-1.626 2.047-1.994 2.467-.367.42-.734.473-1.363.158-.63-.316-2.658-.98-5.063-3.124-1.872-1.669-3.136-3.73-3.503-4.36-.367-.63-.04-.97.277-1.284.282-.282.63-.736.944-1.103.314-.368.419-.63.629-1.05.21-.42.105-.788-.052-1.103-.158-.314-1.381-3.428-1.941-4.673Z"/></g></g><defs><linearGradient id="c" x1="2479.47" x2="2479.47" y1="4951.05" y2="43.88" gradientUnits="userSpaceOnUse"><stop stop-color="#1FAF38"/><stop offset="1" stop-color="#60D669"/></linearGradient><linearGradient id="d" x1="2566.23" x2="2566.23" y1="5126.14" y2="43" gradientUnits="userSpaceOnUse"><stop stop-color="#F9F9F9"/><stop offset="1" stop-color="#fff"/></linearGradient><clipPath id="a"><path fill="#fff" d="M0 0h294v294H0z"/></clipPath><clipPath id="b"><path fill="#fff" d="M36 43h50.605v51H36z"/></clipPath></defs></svg>