<svg xmlns="http://www.w3.org/2000/svg" width="256" height="256" fill="none"><path fill="#F5F5F5" d="M209.408 128.046c-45.246-26.158-118.395-26.158-163.369 0-44.974 26.158-44.733 68.506.553 94.638 45.286 26.132 118.415 26.138 163.389 0 44.974-26.138 44.713-68.506-.573-94.638Z"/><path fill="#E0E0E0" d="M211.846 185.308c-8.704-5.033-22.81-5.033-31.478 0-8.668 5.033-8.617 13.2.102 18.232 8.72 5.033 22.815 5.039 31.478 0 8.663-5.038 8.617-13.194-.102-18.232ZM152.32 203.858c-8.704-5.038-22.815-5.038-31.478 0s-8.617 13.194.103 18.232c8.719 5.038 22.814 5.033 31.477 0 8.664-5.033 8.617-13.194-.102-18.232ZM72.673 211.528a.664.664 0 0 0 0 1.259l3 1.741a2.381 2.381 0 0 0 2.171 0l61.195-35.093a.662.662 0 0 0 0-1.254l-3.006-1.746a2.38 2.38 0 0 0-2.171 0l-61.189 35.093ZM49.89 200.576a.666.666 0 0 0 0 1.259l3.01 1.746a2.382 2.382 0 0 0 2.171 0l61.195-35.092a.664.664 0 0 0 0-1.255l-3.006-1.746a2.394 2.394 0 0 0-2.171 0L49.89 200.576ZM217.421 167.004c3.175-1.833 8.31-1.833 11.464 0s3.139 4.813-.036 6.656c-3.174 1.843-8.309 1.833-11.468 0-3.16-1.833-3.139-4.818.04-6.656ZM31.375 171.192c3.348-1.935 8.755-1.935 12.083 0 3.328 1.936 3.308 5.064-.041 6.999-3.348 1.936-8.755 1.936-12.083 0-3.328-1.935-3.308-5.069.04-6.999Z"/><path fill="#fff" d="m215.44 156.452 7.68.225 7.68-.225c.332 5.197-.681 10.491-2.079 13.076a3.524 3.524 0 0 1-1.536 1.536c-2.268 1.311-5.934 1.311-8.192 0a3.41 3.41 0 0 1-1.536-1.587c-1.342-2.565-2.345-7.854-2.017-13.025Z"/><path fill="#EBEBEB" d="M217.713 153.303c-3.016 1.741-3.032 4.562-.036 6.298 2.995 1.735 7.864 1.74 10.88 0 3.015-1.741 3.026-4.557.03-6.298-2.995-1.741-7.859-1.751-10.874 0Z"/><path fill="#E0E0E0" d="M218.906 153.994c-2.355 1.357-2.366 3.584-.031 4.915 2.335 1.332 6.144 1.357 8.489 0 2.345-1.356 2.36-3.558.026-4.915-2.335-1.357-6.134-1.357-8.484 0Z"/><path fill="#000" d="M218.906 153.994c-2.355 1.357-2.366 3.584-.031 4.915 2.335 1.332 6.144 1.357 8.489 0 2.345-1.356 2.36-3.558.026-4.915-2.335-1.357-6.134-1.357-8.484 0Z" opacity=".15"/><path fill="#3A76F0" d="M227.057 140.713c1.249-1.536 2.703-2.949 3.85-4.582.784-1.117 1.439-2.479 1.106-3.8a3.383 3.383 0 0 0-2.688-2.37 5.153 5.153 0 0 0-3.615.804 11.19 11.19 0 0 0-2.734 2.601 27.138 27.138 0 0 0-5.714 19.384c.014.796.261 1.571.712 2.227a2.228 2.228 0 0 0 2.299.702c2.094-.62 1.818-3.451 2.161-5.12a23.465 23.465 0 0 1 2.406-6.539 22.59 22.59 0 0 1 2.217-3.307Z"/><path fill="#fff" d="M227.057 140.713c1.249-1.536 2.703-2.949 3.85-4.582.784-1.117 1.439-2.479 1.106-3.8a3.383 3.383 0 0 0-2.688-2.37 5.153 5.153 0 0 0-3.615.804 11.19 11.19 0 0 0-2.734 2.601 27.138 27.138 0 0 0-5.714 19.384c.014.796.261 1.571.712 2.227a2.228 2.228 0 0 0 2.299.702c2.094-.62 1.818-3.451 2.161-5.12a23.465 23.465 0 0 1 2.406-6.539 22.59 22.59 0 0 1 2.217-3.307Z" opacity=".2"/><path fill="#F0F0F0" d="M220.16 153.569a.18.18 0 0 0 .144-.169c.148-3.364 1.244-14.848 9.154-21.36a.185.185 0 0 0-.029-.304.174.174 0 0 0-.143-.014.172.172 0 0 0-.063.036c-8.028 6.61-9.134 18.222-9.283 21.622a.186.186 0 0 0 .174.194l.046-.005Z"/><path fill="#3A76F0" d="M218.988 153.933c.164.739.475 1.437.915 2.052a5.62 5.62 0 0 0 1.645 1.532 7.215 7.215 0 0 0 3.886.65 16.963 16.963 0 0 0 3.947-.937c.635-.21 1.336-.512 1.403-1.285a1.396 1.396 0 0 0-.445-1.106 5.387 5.387 0 0 0-.41-.353.405.405 0 0 1 .215-.727 9.268 9.268 0 0 0 1.126-.144 4.988 4.988 0 0 0 2.361-1.065 3.97 3.97 0 0 0 1.09-1.617 1.54 1.54 0 0 0-.153-1.583 1.749 1.749 0 0 0-.876-.384 11.988 11.988 0 0 0-.85-.153.374.374 0 0 1-.087-.717l1.198-.512c.342-.112.651-.305.901-.563a1.951 1.951 0 0 0 .231-1.644c-.144-.747-.405-1.469-.579-2.212a4.749 4.749 0 0 1-.077-2.257 19.053 19.053 0 0 0-6.686.445 4.87 4.87 0 0 0-1.823.799 2.699 2.699 0 0 0-.86 2.457.17.17 0 0 1-.323.092l-.763-1.408a.91.91 0 0 0-1.187-.378 5.521 5.521 0 0 0-1.741 1.372 3.042 3.042 0 0 0-.6 1.04 3.052 3.052 0 0 0-.148 1.192c.092 1.106.277 2.202.553 3.277a.3.3 0 0 1-.297.382.3.3 0 0 1-.174-.06l-.036-.025a1.024 1.024 0 0 0-.722-.21c-.67.082-.844.763-.89 1.346-.023.909.063 1.816.256 2.704Z"/><path fill="#000" d="M218.988 153.933c.164.739.475 1.437.915 2.052a5.62 5.62 0 0 0 1.645 1.532 7.215 7.215 0 0 0 3.886.65 16.963 16.963 0 0 0 3.947-.937c.635-.21 1.336-.512 1.403-1.285a1.396 1.396 0 0 0-.445-1.106 5.387 5.387 0 0 0-.41-.353.405.405 0 0 1 .215-.727 9.268 9.268 0 0 0 1.126-.144 4.988 4.988 0 0 0 2.361-1.065 3.97 3.97 0 0 0 1.09-1.617 1.54 1.54 0 0 0-.153-1.583 1.749 1.749 0 0 0-.876-.384 11.988 11.988 0 0 0-.85-.153.374.374 0 0 1-.087-.717l1.198-.512c.342-.112.651-.305.901-.563a1.951 1.951 0 0 0 .231-1.644c-.144-.747-.405-1.469-.579-2.212a4.749 4.749 0 0 1-.077-2.257 19.053 19.053 0 0 0-6.686.445 4.87 4.87 0 0 0-1.823.799 2.699 2.699 0 0 0-.86 2.457.17.17 0 0 1-.323.092l-.763-1.408a.91.91 0 0 0-1.187-.378 5.521 5.521 0 0 0-1.741 1.372 3.042 3.042 0 0 0-.6 1.04 3.052 3.052 0 0 0-.148 1.192c.092 1.106.277 2.202.553 3.277a.3.3 0 0 1-.297.382.3.3 0 0 1-.174-.06l-.036-.025a1.024 1.024 0 0 0-.722-.21c-.67.082-.844.763-.89 1.346-.023.909.063 1.816.256 2.704Z" opacity=".2"/><path fill="#fff" d="M218.988 153.933c.164.739.475 1.437.915 2.052a5.62 5.62 0 0 0 1.645 1.532 7.215 7.215 0 0 0 3.886.65 16.963 16.963 0 0 0 3.947-.937c.635-.21 1.336-.512 1.403-1.285a1.396 1.396 0 0 0-.445-1.106 5.387 5.387 0 0 0-.41-.353.405.405 0 0 1 .215-.727 9.268 9.268 0 0 0 1.126-.144 4.988 4.988 0 0 0 2.361-1.065 3.97 3.97 0 0 0 1.09-1.617 1.54 1.54 0 0 0-.153-1.583 1.749 1.749 0 0 0-.876-.384 11.988 11.988 0 0 0-.85-.153.374.374 0 0 1-.087-.717l1.198-.512c.342-.112.651-.305.901-.563a1.951 1.951 0 0 0 .231-1.644c-.144-.747-.405-1.469-.579-2.212a4.749 4.749 0 0 1-.077-2.257 19.053 19.053 0 0 0-6.686.445 4.87 4.87 0 0 0-1.823.799 2.699 2.699 0 0 0-.86 2.457.17.17 0 0 1-.323.092l-.763-1.408a.91.91 0 0 0-1.187-.378 5.521 5.521 0 0 0-1.741 1.372 3.042 3.042 0 0 0-.6 1.04 3.052 3.052 0 0 0-.148 1.192c.092 1.106.277 2.202.553 3.277a.3.3 0 0 1-.297.382.3.3 0 0 1-.174-.06l-.036-.025a1.024 1.024 0 0 0-.722-.21c-.67.082-.844.763-.89 1.346-.023.909.063 1.816.256 2.704Z" opacity=".2"/><path fill="#F0F0F0" d="M222.53 157.312a27.15 27.15 0 0 1 1.797-5.207.17.17 0 0 1 .018-.077.173.173 0 0 1 .049-.062l.123-.271a16.776 16.776 0 0 0-1.798-5.97.19.19 0 0 1-.018-.137.182.182 0 0 1 .224-.127.184.184 0 0 1 .112.085 16.969 16.969 0 0 1 1.756 5.545 24.444 24.444 0 0 1 7.68-9.216.183.183 0 0 1 .135-.03.18.18 0 0 1 .116.076.18.18 0 0 1-.046.256c-3.861 2.688-6.303 6.42-7.783 9.513a11.232 11.232 0 0 1 6.37-.86c.04.009.076.032.101.065a.182.182 0 0 1 0 .228.18.18 0 0 1-.101.065h-.067c-.036 0-3.533-.64-6.559 1.05a27.053 27.053 0 0 0-1.786 5.161.182.182 0 0 1-.144.143h-.071a.18.18 0 0 1-.1-.094.183.183 0 0 1-.008-.136Z"/><path fill="#fff" d="m29.292 160.067 8.105.235 8.105-.235c.353 5.473-.717 11.054-2.191 13.778a3.674 3.674 0 0 1-1.608 1.633c-2.391 1.382-6.257 1.382-8.632 0a3.583 3.583 0 0 1-1.603-1.674c-1.47-2.739-2.524-8.29-2.176-13.737Z"/><path fill="#EBEBEB" d="M31.683 156.749c-3.175 1.833-3.195 4.802-.036 6.656 3.159 1.853 8.29 1.833 11.464 0 3.174-1.833 3.194-4.808.035-6.656-3.159-1.848-8.289-1.833-11.463 0Z"/><path fill="#E0E0E0" d="M32.937 157.476c-2.478 1.434-2.488 3.753 0 5.182 2.488 1.428 6.466 1.433 8.944 0 2.478-1.434 2.489-3.748 0-5.182-2.488-1.433-6.466-1.428-8.944 0Z"/><path fill="#000" d="M32.937 157.476c-2.478 1.434-2.488 3.753 0 5.182 2.488 1.428 6.466 1.433 8.944 0 2.478-1.434 2.489-3.748 0-5.182-2.488-1.433-6.466-1.428-8.944 0Z" opacity=".15"/><path fill="#3A76F0" d="M24.065 125.476c18.268 5.98 18.432 18.202 14.336 26.906-1.024 1.761-4.184 2.708-6.918-8.116l4.798.615-5.591-2.837-1.47-4.316 4.665.348-5.919-2.488a87.74 87.74 0 0 0-3.901-10.112Z"/><path fill="#000" d="M24.065 125.476c18.268 5.98 18.432 18.202 14.336 26.906-1.024 1.761-4.184 2.708-6.918-8.116l4.798.615-5.591-2.837-1.47-4.316 4.665.348-5.919-2.488a87.74 87.74 0 0 0-3.901-10.112Z" opacity=".2"/><path fill="#fff" d="M24.065 125.476c18.268 5.98 18.432 18.202 14.336 26.906-1.024 1.761-4.184 2.708-6.918-8.116l4.798.615-5.591-2.837-1.47-4.316 4.665.348-5.919-2.488a87.74 87.74 0 0 0-3.901-10.112Z" opacity=".2"/><path fill="#fff" d="M29.235 128.512c9.636 7.312 10.501 15.693 7.783 24.443.962-7.685 2.002-15.473-7.783-24.443Z"/><path fill="#3A76F0" d="M55.01 137.892c-18.008 2.534-20.194 13.89-17.803 22.676.676 1.818 3.446 3.221 7.793-6.41l-4.552-.22 5.678-1.71 2.048-3.804-4.393-.456 5.924-1.336a82.897 82.897 0 0 1 5.304-8.74Z"/><path fill="#fff" d="M55.01 137.892c-18.008 2.534-20.194 13.89-17.803 22.676.676 1.818 3.446 3.221 7.793-6.41l-4.552-.22 5.678-1.71 2.048-3.804-4.393-.456 5.924-1.336a82.897 82.897 0 0 1 5.304-8.74Z" opacity=".2"/><path fill="#000" d="M55.01 137.892c-18.008 2.534-20.194 13.89-17.803 22.676.676 1.818 3.446 3.221 7.793-6.41l-4.552-.22 5.678-1.71 2.048-3.804-4.393-.456 5.924-1.336a82.897 82.897 0 0 1 5.304-8.74Z" opacity=".1"/><path fill="#fff" d="M49.69 139.878c-10.184 5.207-12.39 12.872-11.29 21.474.364-7.337.692-14.767 11.29-21.474Z"/><path fill="#3A76F0" d="M18.796 142.146c16.517.267 19.758 10.24 18.585 18.432-.404 1.71-2.744 3.287-7.741-4.905l4.096-.711-5.31-.907-2.314-3.179 3.917-.901-5.453-.543a74.292 74.292 0 0 0-5.78-7.286Z"/><path fill="#fff" d="M23.814 143.36c9.769 3.584 12.61 10.24 12.6 18.089-1.167-6.589-2.294-13.245-12.6-18.089Z"/><path fill="#fff" d="M18.796 142.146c16.517.267 19.758 10.24 18.585 18.432-.404 1.71-2.744 3.287-7.741-4.905l4.096-.711-5.31-.907-2.314-3.179 3.917-.901-5.453-.543a74.292 74.292 0 0 0-5.78-7.286Z" opacity=".2"/><path fill="#E6E6E6" d="M137.323 25.984c2.719-1.567 5.013-.799 5.745 1.638a8.045 8.045 0 0 1 2.934-3.266c2.13-1.23 3.86-.241 3.87 2.206v1.122l2.857-1.649c1.495-.86 2.704-.169 2.709 1.536a5.932 5.932 0 0 1-2.688 4.66l-24.213 13.977c-1.49.86-2.708.174-2.708-1.536a5.938 5.938 0 0 1 2.683-4.66l2.862-1.648v-2.048c-.016-3.81 2.652-8.428 5.949-10.332Z"/><path fill="#455A64" d="m141.9 30.878-2.923 5.346 1.766-1.02.011 3.948 2.334-1.346-.01-3.948 1.761-1.019-2.939-1.96ZM140.739 39.705l.005 1.51 2.334-1.346-.005-1.51-2.334 1.346ZM140.739 41.82l.005.758 2.334-1.347-.005-.758-2.334 1.347ZM140.739 43.085l.005.456 2.334-1.347-.005-.46-2.334 1.35Z"/><g fill="#fff" opacity=".5"><path d="m141.9 30.878-2.923 5.346 1.766-1.02.011 3.948 2.334-1.346-.01-3.948 1.761-1.019-2.939-1.96ZM140.739 39.706l.005 1.51 2.334-1.347-.005-1.51-2.334 1.347ZM140.739 41.82l.005.758 2.334-1.347-.005-.757-2.334 1.346ZM140.739 43.085l.005.456 2.334-1.347-.005-.46-2.334 1.351Z"/></g><path fill="#E6E6E6" d="M51.917 35.973c3.01-1.736 5.555-.886 6.364 1.817a8.909 8.909 0 0 1 3.251-3.62c2.36-1.361 4.28-.27 4.286 2.443v1.244l3.17-1.828c1.653-.957 2.994-.19 3 1.71a6.58 6.58 0 0 1-2.98 5.166l-26.83 15.488c-1.648.958-2.994.195-3-1.705a6.59 6.59 0 0 1 2.985-5.17l3.165-1.829v-2.288c-.016-4.199 2.933-9.314 6.589-11.428Z"/><path fill="#455A64" d="m56.663 58.465 3.241-5.924-1.956 1.132-.015-4.378-2.586 1.495.016 4.378-1.956 1.126 3.256 2.171ZM57.948 48.686l-.005-1.674-2.585 1.495.005 1.669 2.585-1.49ZM57.948 46.341l-.005-.84-2.585 1.495.005.835 2.585-1.49ZM57.948 44.943l-.005-.507-2.585 1.495.005.502 2.585-1.49Z"/><g fill="#fff" opacity=".5"><path d="m56.663 58.465 3.241-5.924-1.956 1.132-.015-4.378-2.585 1.495.015 4.378-1.956 1.126 3.256 2.171ZM57.948 48.686l-.005-1.674-2.585 1.495.005 1.669 2.585-1.49ZM57.948 46.341l-.005-.84-2.585 1.495.005.835 2.585-1.49ZM57.948 44.943l-.005-.507-2.585 1.495.005.502 2.585-1.49Z"/></g><path fill="#E0E0E0" d="m147.841 72.14-.313.39 2.996 1.74-.63-2.34a5.597 5.597 0 0 1-2.053.21ZM159.708 54.937l2.345-.645-3-1.746-.205.512c.401.568.693 1.205.86 1.88ZM155.74 58.967c0-.092-.025-.184-.041-.271-.01-.05-.024-.1-.041-.149 0-.077-.035-.153-.056-.225-.02-.072-.036-.092-.056-.139-.021-.045-.046-.133-.077-.194s-.046-.082-.072-.128a1.69 1.69 0 0 0-.087-.164l-.092-.118c-.036-.046-.067-.097-.102-.138l-.108-.097a1.299 1.299 0 0 0-.118-.118c-.035-.03-.076-.051-.117-.082a2.393 2.393 0 0 0-2.361-.072c.022.17.034.341.036.512.008.144.008.287 0 .43.003.047.003.093 0 .139 0 .092 0 .184-.036.276-.036.093-.03.205-.051.307-.02.103 0 .144-.041.216-.041.071-.031.133-.051.194-.021.062-.046.184-.072.282-.025.097-.03.102-.051.158-.02.057-.067.205-.102.313l-.046.123a7.76 7.76 0 0 1-.175.43v.046c-.056.128-.112.25-.174.379l-.061.117c-.061.113-.123.23-.189.343l-.036.072-.246.4-.077.107a5.44 5.44 0 0 1-.189.282l-.108.143c-.061.077-.118.154-.179.225l-.149.185-.148.169c-.087.092-.169.184-.256.27l-.164.165-.133.123-.22.194-.133.108-.241.184-.118.082a4.909 4.909 0 0 1-.722.42l-.092.04-.077.031a2.448 2.448 0 0 0 1.112 1.956c.078.047.16.086.245.118h.062l.215.061h.056c.095.02.19.032.287.036h.066c.079.005.157.005.236 0h.113l.199-.03.154-.036.169-.046c.092-.026.179-.062.271-.093.065-.02.128-.046.19-.076l.092-.041a4.78 4.78 0 0 0 .353-.18l.369-.235.117-.087.113-.087.128-.097.133-.108.123-.107.097-.087c.045-.037.088-.076.128-.118l.169-.164.256-.276.149-.17.148-.184c.062-.071.118-.148.179-.225l.108-.143.189-.277.077-.113.246-.399.036-.066.189-.349a15.871 15.871 0 0 0 .236-.492.437.437 0 0 1 0-.05c.061-.144.118-.282.174-.425l.046-.128a6.31 6.31 0 0 0 .102-.313c0-.05.036-.107.052-.158.015-.051.051-.185.071-.277 0-.066.036-.133.051-.2 0-.071.026-.143.041-.215 0-.102.036-.204.052-.307 0-.092.025-.184.035-.276a1.062 1.062 0 0 0 0-.138v-.871c.011-.01 0-.051-.005-.097ZM142.5 69.069l-.748.2-.333-.19-1.013 2.596 3.333 1.935 1.218-3.118-2.457-1.423ZM153.466 49.981l2.494 1.45 2.099-2.622-3.333-1.935-1.782 2.222.338.2.184.685ZM144.098 68.633l-1.598.43 2.458 1.429a5.386 5.386 0 0 1-.86-1.859Z"/><path fill="#E0E0E0" d="M153.912 51.63c.45-.124.912-.196 1.377-.215H155.96l-2.493-1.45.445 1.665ZM144.174 63.56c.041-.19.087-.384.138-.579.026-.097.051-.195.082-.287.15-.537.33-1.065.538-1.582l-3.333-1.94c0 .051-.041.097-.057.148-.015.051-.061.159-.087.24-.025.083-.107.282-.153.426l-.036.092-.062.205c-.051.158-.097.317-.143.47 0 .047-.031.093-.041.134a1.429 1.429 0 0 0-.036.159c-.056.19-.102.384-.143.578l-.046.17-.046.225 3.333 1.935c.025-.128.061-.261.092-.394ZM147.794 56.14c.281-.348.573-.686.875-1.024l.092-.102c.108-.118.221-.23.333-.343l.138-.138c.2-.195.405-.39.61-.569l-3.333-1.94c-.205.184-.41.374-.61.573l-.056.052-.271.281-.144.149c-.158.163-.312.338-.466.512-.169.19-.332.389-.512.588l3.344 1.961ZM144.082 63.959l-3.333-1.94-2.34 2.068 3.333 1.935 2.34-2.063Z"/><path fill="#E0E0E0" d="m141.742 66.022-3.333-1.935.01 3.246 3.001 1.746.332.19-.01-3.247ZM150.457 50.928l-3.334-1.94-.614 3.051 3.333 1.94.615-3.05Z"/><path fill="#E0E0E0" d="m153.283 49.295-.338-.2-2.996-1.735-2.826 1.628 3.333 1.94 2.827-1.633ZM143.703 59.402l-3.339-1.935 1.234 1.705 3.333 1.94-1.228-1.71ZM147.799 56.14l-3.338-1.935-2.099-.194 3.333 1.94 2.104.19Z"/><path fill="#E0E0E0" d="m145.694 55.951-3.333-1.94-1.997 3.456 3.339 1.935 1.991-3.45ZM159.744 59.612l2.34-2.048v-3.25l-2.345.644a5.591 5.591 0 0 0-.86-1.863l.205-.512 1.024-2.591-2.007-1.147-2.099 2.621h-.671c-.466.02-.928.092-1.377.215l-.446-1.648-.184-.686-2.826 1.633-.615 3.072c-.204.18-.409.374-.609.568l-.138.139a10.67 10.67 0 0 0-.333.343l-.092.102c-.302.323-.594.66-.876 1.024l-2.099-.19-1.997 3.452 1.234 1.71a15.202 15.202 0 0 0-.537 1.582 4.15 4.15 0 0 0-.082.286c-.051.195-.098.39-.139.579-.04.19-.066.266-.092.394l-2.34 2.048v3.251l.748-.21 1.597-.43c.166.669.458 1.3.861 1.859l-1.219 3.118 2.007 1.142 1.782-2.222.312-.39a5.596 5.596 0 0 0 2.048-.21l.63 2.34 2.826-1.633.609-3.072a16.718 16.718 0 0 0 2.048-2.16l2.105.189 1.991-3.45-1.254-1.747c.374-.923.665-1.877.87-2.852Zm-3.973.512c0 .093 0 .185-.036.277-.035.092-.03.205-.051.307-.02.102 0 .143-.041.215-.041.072-.036.133-.051.2a6.455 6.455 0 0 1-.072.276c-.025.092-.03.108-.051.159-.02.051-.066.21-.102.312l-.046.128c-.057.144-.113.282-.174.425a.437.437 0 0 0 0 .051c-.057.123-.118.251-.18.374-.016.04-.035.08-.056.118l-.189.348-.036.067-.246.399-.077.113-.189.276-.108.144c-.061.076-.117.153-.179.225l-.148.184-.149.169-.256.276-.169.164c-.04.042-.083.082-.128.118l-.097.087a6.88 6.88 0 0 1-.384.313l-.113.087-.117.087-.369.235a3.523 3.523 0 0 1-.446.22c-.061.03-.124.056-.189.077a2.968 2.968 0 0 1-.276.097l-.169.046-.159.036-.2.031h-.123a1.807 1.807 0 0 1-.235 0h-.067a1.753 1.753 0 0 1-.286-.036h-.062l-.215-.061-.072-.026a1.524 1.524 0 0 1-.245-.118 2.447 2.447 0 0 1-1.111-1.956 4.384 4.384 0 0 1-.036-.511c0-2.458 1.725-5.458 3.865-6.692.166-.096.337-.181.512-.256a2.391 2.391 0 0 1 2.361.071c.041.031.082.051.117.082.042.037.081.076.118.118l.108.097c.036.041.066.092.102.139l.092.117c.032.053.061.108.087.164.026.046.051.082.072.128.02.046.051.128.077.195.025.066.041.092.056.138.015.046.041.148.056.225a1.1 1.1 0 0 1 .041.149c0 .087 0 .179.041.271.041.092 0 .087 0 .133v.446c0 .153-.005.322-.02.527l.02.015Z"/><path fill="#000" d="m147.841 72.14-.313.39 2.996 1.74-.63-2.34a5.597 5.597 0 0 1-2.053.21ZM159.708 54.937l2.345-.645-3-1.746-.205.512c.401.568.693 1.205.86 1.88ZM155.74 58.967c0-.092-.025-.184-.041-.271-.01-.05-.024-.1-.041-.149 0-.077-.035-.153-.056-.225-.02-.072-.036-.092-.056-.139-.021-.045-.046-.133-.077-.194s-.046-.082-.072-.128a1.69 1.69 0 0 0-.087-.164l-.092-.118c-.036-.046-.067-.097-.102-.138l-.108-.097a1.299 1.299 0 0 0-.118-.118c-.035-.03-.076-.051-.117-.082a2.393 2.393 0 0 0-2.361-.072c.022.17.034.341.036.512.008.144.008.287 0 .43.003.047.003.093 0 .139 0 .092 0 .184-.036.276-.036.093-.03.205-.051.307-.02.103 0 .144-.041.216-.041.071-.031.133-.051.194-.021.062-.046.184-.072.282-.025.097-.03.102-.051.158-.02.057-.067.205-.102.313l-.046.123a7.76 7.76 0 0 1-.175.43v.046c-.056.128-.112.25-.174.379l-.061.117c-.061.113-.123.23-.189.343l-.036.072-.246.4-.077.107a5.44 5.44 0 0 1-.189.282l-.108.143c-.061.077-.118.154-.179.225l-.149.185-.148.169c-.087.092-.169.184-.256.27l-.164.165-.133.123-.22.194-.133.108-.241.184-.118.082a4.909 4.909 0 0 1-.722.42l-.092.04-.077.031a2.448 2.448 0 0 0 1.112 1.956c.078.047.16.086.245.118h.062l.215.061h.056c.095.02.19.032.287.036h.066c.079.005.157.005.236 0h.113l.199-.03.154-.036.169-.046c.092-.026.179-.062.271-.093.065-.02.128-.046.19-.076l.092-.041a4.78 4.78 0 0 0 .353-.18l.369-.235.117-.087.113-.087.128-.097.133-.108.123-.107.097-.087c.045-.037.088-.076.128-.118l.169-.164.256-.276.149-.17.148-.184c.062-.071.118-.148.179-.225l.108-.143.189-.277.077-.113.246-.399.036-.066.189-.349a15.871 15.871 0 0 0 .236-.492.437.437 0 0 1 0-.05c.061-.144.118-.282.174-.425l.046-.128a6.31 6.31 0 0 0 .102-.313c0-.05.036-.107.052-.158.015-.051.051-.185.071-.277 0-.066.036-.133.051-.2 0-.071.026-.143.041-.215 0-.102.036-.204.052-.307 0-.092.025-.184.035-.276a1.062 1.062 0 0 0 0-.138v-.871c.011-.01 0-.051-.005-.097ZM142.5 69.069l-.748.2-.333-.19-1.013 2.596 3.333 1.935 1.218-3.118-2.457-1.423ZM144.098 68.633l-1.598.43 2.458 1.429a5.386 5.386 0 0 1-.86-1.859ZM153.912 51.63c.45-.124.912-.196 1.377-.215H155.96l-2.493-1.45.445 1.665ZM144.174 63.56c.041-.19.087-.384.138-.579.026-.097.051-.195.082-.287.15-.537.33-1.065.538-1.582l-3.333-1.94c0 .051-.041.097-.057.148-.015.051-.061.159-.087.24-.025.083-.107.282-.153.426l-.036.092-.062.205c-.051.158-.097.317-.143.47 0 .047-.031.093-.041.134a1.429 1.429 0 0 0-.036.159c-.056.19-.102.384-.143.578l-.046.17-.046.225 3.333 1.935c.025-.128.061-.261.092-.394Z" opacity=".2"/><path fill="#000" d="m141.742 66.022-3.333-1.935.01 3.246 3.001 1.746.332.19-.01-3.247ZM150.457 50.928l-3.334-1.94-.614 3.051 3.333 1.94.615-3.05ZM143.703 59.402l-3.339-1.935 1.234 1.705 3.333 1.94-1.228-1.71ZM147.799 56.14l-3.338-1.935-2.099-.194 3.333 1.94 2.104.19Z" opacity=".2"/><path fill="#fff" d="m153.466 49.981 2.494 1.45 2.099-2.622-3.333-1.935-1.782 2.222.338.2.184.685ZM147.794 56.14c.281-.348.573-.686.875-1.024l.092-.102c.108-.118.221-.23.333-.343l.138-.138c.2-.195.405-.39.61-.569l-3.333-1.94c-.205.184-.41.374-.61.573l-.056.052-.271.281-.144.149c-.158.163-.312.338-.466.512-.169.19-.332.389-.512.588l3.344 1.961ZM144.082 63.959l-3.333-1.94-2.34 2.068 3.333 1.935 2.34-2.063Z" opacity=".2"/><path fill="#fff" d="m153.283 49.295-.338-.2-2.996-1.735-2.826 1.628 3.333 1.94 2.827-1.633ZM145.694 55.951l-3.333-1.94-1.997 3.456 3.339 1.935 1.991-3.45Z" opacity=".2"/><path fill="#E0E0E0" d="m171.295 60.866-.221.277 2.12 1.228-.445-1.653c-.472.14-.965.19-1.454.148ZM179.712 48.696l1.659-.456-2.12-1.233-.148.373c.282.398.489.844.609 1.316ZM176.886 51.548l-.031-.195c0-.035 0-.066-.025-.102-.026-.036-.026-.107-.041-.159a.658.658 0 0 0-.041-.097 1.121 1.121 0 0 0-.051-.138l-.052-.092a.883.883 0 0 0-.066-.118l-.062-.082-.076-.097-.072-.072c-.031-.026-.056-.056-.087-.077a.516.516 0 0 0-.082-.061 1.693 1.693 0 0 0-1.669-.052 3 3 0 0 1 .025.38v.302a.527.527 0 0 1 0 .097v.194c0 .062 0 .149-.035.22l-.031.149c0 .051 0 .097-.036.143-.036.046-.031.128-.051.195l-.036.112c0 .072-.046.149-.072.22a.526.526 0 0 1-.036.093 9.32 9.32 0 0 1-.117.302v.03c-.041.093-.082.18-.128.267l-.041.087a3.685 3.685 0 0 1-.133.24.347.347 0 0 0-.026.052c-.056.097-.113.19-.174.281l-.051.077-.139.2-.076.102-.123.159-.108.128-.107.123c-.057.066-.118.128-.179.194l-.118.113-.092.087-.154.138-.092.077-.174.128-.082.062-.261.163-.251.134h-.123a1.753 1.753 0 0 0 .788 1.382l.175.082h.04l.149.046h.046c.068.005.137.005.205 0h.476l.123-.03.189-.067.133-.052.062-.03a2.885 2.885 0 0 0 .512-.297.465.465 0 0 0 .082-.057l.082-.061.092-.072.092-.077.087-.071.072-.062.092-.087.113-.117.184-.195c.037-.037.071-.076.102-.118l.108-.128.123-.158c.03-.036.051-.072.076-.108l.139-.194.051-.077c.061-.092.118-.19.174-.282a.247.247 0 0 0 .026-.051c.046-.082.092-.164.133-.246l.046-.082.123-.266v-.036c.046-.097.082-.2.123-.302l.03-.087.077-.22.031-.113c0-.066.036-.133.056-.2l.031-.138.031-.148c0-.077.025-.149.035-.22 0-.067 0-.133.026-.2s0-.062 0-.092v-.302a3.36 3.36 0 0 0 0-.318c.051.005.041-.025.041-.056ZM167.522 58.69l-.533.149-.235-.138-.717 1.833 2.36 1.372.86-2.207-1.735-1.008ZM175.278 45.189l1.761 1.024 1.485-1.848-2.361-1.373-1.254 1.572.235.139.134.486Z"/><path fill="#E0E0E0" d="m168.648 58.368-1.127.307 1.736 1.024a3.77 3.77 0 0 1-.609-1.331ZM175.616 46.356c.319-.086.647-.138.978-.153H177.065l-1.761-1.024.312 1.177ZM168.699 54.784c.031-.138.067-.277.102-.41 0-.066.036-.133.057-.2.107-.373.23-.747.379-1.12l-2.356-1.373c-.016.035-.029.071-.041.108-.025.056-.041.112-.061.169-.021.056-.077.2-.108.297-.03.097 0 .046 0 .066l-.046.149c-.03.107-.066.22-.102.332a.59.59 0 0 1-.026.093c0 .035 0 .076-.025.112a6.148 6.148 0 0 0-.103.41l-.03.123-.031.158 2.355 1.367.036-.281ZM171.264 49.551c.2-.25.405-.512.62-.716l.061-.072c.077-.082.159-.164.241-.24l.097-.103c.137-.14.28-.273.43-.4l-2.355-1.372c-.149.128-.292.267-.435.405a.265.265 0 0 0-.036.036l-.195.2c-.035.035-.071.066-.102.102-.113.117-.22.24-.328.363-.117.139-.235.277-.348.42l2.35 1.377ZM168.637 55.076l-2.355-1.367-1.659 1.459 2.355 1.372 1.659-1.464Z"/><path fill="#E0E0E0" d="m166.978 56.54-2.355-1.372.005 2.299 2.125 1.234.236.138-.011-2.299ZM173.149 45.86l-2.361-1.372-.43 2.16 2.355 1.373.436-2.161Z"/><path fill="#E0E0E0" d="m175.145 44.703-.235-.138-2.12-1.23-2.002 1.153 2.36 1.372 1.997-1.157ZM168.367 51.855l-2.356-1.372.871 1.209 2.355 1.372-.87-1.209ZM171.264 49.551l-2.355-1.372-1.49-.138 2.36 1.372 1.485.138Z"/><path fill="#000" d="m171.295 60.866-.221.277 2.12 1.228-.445-1.653c-.472.14-.965.19-1.454.148ZM179.712 48.696l1.659-.456-2.12-1.233-.148.373c.282.398.489.844.609 1.316ZM176.886 51.548l-.031-.195c0-.035 0-.066-.025-.102-.026-.036-.026-.107-.041-.159a.658.658 0 0 0-.041-.097 1.121 1.121 0 0 0-.051-.138l-.052-.092a.883.883 0 0 0-.066-.118l-.062-.082-.076-.097-.072-.072c-.031-.026-.056-.056-.087-.077a.516.516 0 0 0-.082-.061 1.693 1.693 0 0 0-1.669-.052 3 3 0 0 1 .025.38v.302a.527.527 0 0 1 0 .097v.194c0 .062 0 .149-.035.22l-.031.149c0 .051 0 .097-.036.143-.036.046-.031.128-.051.195l-.036.112c0 .072-.046.149-.072.22a.526.526 0 0 1-.036.093 9.32 9.32 0 0 1-.117.302v.03c-.041.093-.082.18-.128.267l-.041.087a3.685 3.685 0 0 1-.133.24.347.347 0 0 0-.026.052c-.056.097-.113.19-.174.281l-.051.077-.139.2-.076.102-.123.159-.108.128-.107.123c-.057.066-.118.128-.179.194l-.118.113-.092.087-.154.138-.092.077-.174.128-.082.062-.261.163-.251.134h-.123a1.753 1.753 0 0 0 .788 1.382l.175.082h.04l.149.046h.046c.068.005.137.005.205 0h.476l.123-.03.189-.067.133-.052.062-.03a2.885 2.885 0 0 0 .512-.297.465.465 0 0 0 .082-.057l.082-.061.092-.072.092-.077.087-.071.072-.062.092-.087.113-.117.184-.195c.037-.037.071-.076.102-.118l.108-.128.123-.158c.03-.036.051-.072.076-.108l.139-.194.051-.077c.061-.092.118-.19.174-.282a.247.247 0 0 0 .026-.051c.046-.082.092-.164.133-.246l.046-.082.123-.266v-.036c.046-.097.082-.2.123-.302l.03-.087.077-.22.031-.113c0-.066.036-.133.056-.2l.031-.138.031-.148c0-.077.025-.149.035-.22 0-.067 0-.133.026-.2s0-.062 0-.092v-.302a3.36 3.36 0 0 0 0-.318c.051.005.041-.025.041-.056ZM167.522 58.69l-.533.149-.235-.138-.717 1.833 2.36 1.372.86-2.207-1.735-1.008Z" opacity=".2"/><path fill="#000" d="m168.648 58.368-1.127.307 1.736 1.024a3.77 3.77 0 0 1-.609-1.331ZM175.616 46.356c.319-.086.647-.138.978-.153H177.065l-1.761-1.024.312 1.177ZM168.699 54.784c.031-.138.067-.277.102-.41 0-.066.036-.133.057-.2.107-.373.23-.747.379-1.12l-2.356-1.373c-.016.035-.029.071-.041.108-.025.056-.041.112-.061.169-.021.056-.077.2-.108.297-.03.097 0 .046 0 .066l-.046.149c-.03.107-.066.22-.102.332a.59.59 0 0 1-.026.093c0 .035 0 .076-.025.112a6.148 6.148 0 0 0-.103.41l-.03.123-.031.158 2.355 1.367.036-.281ZM166.978 56.54l-2.355-1.372.005 2.299 2.125 1.234.236.138-.011-2.299ZM173.149 45.86l-2.361-1.372-.43 2.16 2.355 1.373.436-2.161Z" opacity=".2"/><path fill="#000" d="m168.367 51.855-2.356-1.372.871 1.209 2.355 1.372-.87-1.209ZM171.264 49.551l-2.355-1.372-1.49-.138 2.36 1.372 1.485.138Z" opacity=".2"/><path fill="#E0E0E0" d="m169.78 49.413-2.361-1.372-1.408 2.442 2.356 1.372 1.413-2.442Z"/><path fill="#fff" d="m175.278 45.189 1.761 1.024 1.485-1.848-2.361-1.373-1.254 1.572.235.139.134.486ZM171.264 49.551c.2-.25.405-.512.62-.716l.061-.072c.077-.082.159-.164.241-.24l.097-.103c.137-.14.28-.273.43-.4l-2.355-1.372c-.149.128-.292.267-.435.405a.265.265 0 0 0-.036.036l-.195.2c-.035.035-.071.066-.102.102-.113.117-.22.24-.328.363-.117.139-.235.277-.348.42l2.35 1.377ZM168.637 55.076l-2.355-1.367-1.659 1.459 2.355 1.372 1.659-1.464Z" opacity=".2"/><path fill="#fff" d="m175.145 44.703-.235-.138-2.12-1.23-2.002 1.153 2.36 1.372 1.997-1.157ZM169.78 49.413l-2.361-1.372-1.408 2.442 2.356 1.372 1.413-2.442Z" opacity=".2"/><path fill="#E0E0E0" d="m179.712 52.004 1.659-1.464v-2.3l-1.659.456a3.958 3.958 0 0 0-.609-1.316l.148-.373.712-1.833-1.418-.81-1.485 1.85h-.471a4.545 4.545 0 0 0-.978.153l-.312-1.168-.133-.512-1.997 1.157-.435 2.161c-.147.13-.291.263-.431.4l-.097.102a4.908 4.908 0 0 0-.24.24l-.062.072c-.215.23-.42.466-.619.717l-1.485-.138-1.413 2.442.87 1.208a12.32 12.32 0 0 0-.379 1.122c0 .066-.036.133-.056.204a8.925 8.925 0 0 0-.103.41l-.061.276-1.659 1.465v2.299l.512-.149 1.127-.307c.116.474.322.92.609 1.316l-.86 2.207 1.418.809 1.259-1.572.221-.277c.489.042.982-.009 1.454-.148l.445 1.653 1.997-1.151.435-2.161c.526-.47 1.01-.984 1.449-1.536l1.485.133 1.413-2.442-.87-1.209c.263-.643.471-1.307.619-1.986Zm-2.811.348c0 .067 0 .133-.025.2-.026.066 0 .143-.036.22l-.031.148-.031.139c0 .066-.035.133-.056.2l-.031.112-.076.22-.031.087c-.041.103-.077.205-.123.302v.036l-.123.266-.046.082a5.921 5.921 0 0 1-.133.246.247.247 0 0 1-.026.051c-.056.092-.112.19-.174.282l-.051.077-.138.194c-.026.036-.046.072-.077.108l-.123.158-.107.128c-.032.042-.066.081-.103.118l-.184.195-.113.117-.092.088-.072.06c-.087.078-.179.15-.271.221l-.082.062a.465.465 0 0 1-.082.056 5.04 5.04 0 0 1-.261.169 3.68 3.68 0 0 1-.312.158l-.133.052-.195.071-.123.031h-.553a1.324 1.324 0 0 1-.205 0h-.046l-.148-.046h-.051l-.174-.082a1.756 1.756 0 0 1-.789-1.382c0-.123 0-.251-.026-.384a6.056 6.056 0 0 1 2.74-4.736c.118-.068.242-.128.368-.18a1.696 1.696 0 0 1 1.669.052c.03.017.057.038.082.061.031 0 .057.051.087.077l.072.072.077.097.061.082a.882.882 0 0 1 .067.118l.051.092c.02.045.037.09.051.138a.5.5 0 0 1 .041.097c0 .051 0 .103.041.159.041.056 0 .067.026.102l.03.195v.092c.006.106.006.212 0 .318.002.135-.005.27-.02.404h.01Z"/><path fill="#455A64" d="M115.881 39.52c-.409-1.428-3.317-4.151-6.205-4.095-.278.01-.553.064-.814.159L52.736 67.532a5.417 5.417 0 0 0-2.713 4.67v121.472c0 3.072 3.584 6.047 6.917 4.608a1.28 1.28 0 0 0 .215-.087l56.161-32a5.387 5.387 0 0 0 2.714-4.67V40.105a1.364 1.364 0 0 0-.149-.584Z"/><path fill="#3A76F0" d="M57.856 85.038a2.693 2.693 0 0 1 1.357-2.335l52.142-29.665a1.343 1.343 0 0 1 2.007 1.168v97.95a2.702 2.702 0 0 1-1.357 2.335l-52.142 29.696a1.34 1.34 0 0 1-2.007-1.147V85.038Z"/><path fill="#000" d="M57.856 85.038a2.693 2.693 0 0 1 1.357-2.335l52.142-29.665a1.343 1.343 0 0 1 2.007 1.168v97.95a2.702 2.702 0 0 1-1.357 2.335l-52.142 29.696a1.34 1.34 0 0 1-2.007-1.147V85.038Z" opacity=".2"/><path fill="#000" d="M49.997 72.192v121.482c0 3.072 3.584 6.047 6.917 4.608a1.34 1.34 0 0 1-1.222-.161 1.339 1.339 0 0 1-.57-1.093V75.556a5.365 5.365 0 0 1 .907-2.965l-5.5-2.75a5.387 5.387 0 0 0-.532 2.351Z" opacity=".3"/><path fill="#fff" d="M109.681 35.42c-.278.01-.553.064-.814.159L52.736 67.533a5.366 5.366 0 0 0-2.16 2.31l5.498 2.748a5.442 5.442 0 0 1 1.808-1.704l56.161-31.95a1.337 1.337 0 0 1 1.532.154c.139.12.252.266.332.43-.431-1.433-3.339-4.157-6.226-4.1Z" opacity=".1"/><path fill="#263238" d="M92.504 58.998c.394-.23.721-.052.721.399a1.576 1.576 0 0 1-.716 1.244L81.49 67.005c-.394.226-.711.036-.711-.42a1.535 1.535 0 0 1 .706-1.228l11.019-6.36ZM78.658 66.99c.394-.225.712-.046.712.41a1.587 1.587 0 0 1-.707 1.239c-.394.225-.722.04-.727-.415a1.594 1.594 0 0 1 .722-1.234ZM85.709 58.071c.788-.456 1.423-.092 1.428.814a3.154 3.154 0 0 1-1.418 2.473c-.789.456-1.444.082-1.444-.82a3.148 3.148 0 0 1 1.434-2.467ZM85.714 172.431c1.602-.927 2.898-.189 2.903 1.654a6.42 6.42 0 0 1-2.883 5.038c-1.608.927-2.939.169-2.944-1.674a6.402 6.402 0 0 1 2.924-5.018Z"/><path fill="#3A76F0" d="M132.347 65.024c-.369-1.295-3.006-3.768-5.632-3.717-.252.01-.501.06-.737.149l-50.97 28.969a4.956 4.956 0 0 0-2.463 4.239v110.259c0 2.806 3.241 5.489 6.277 4.199a1.76 1.76 0 0 0 .2-.077l50.975-29.051a4.89 4.89 0 0 0 1.802-1.785 4.89 4.89 0 0 0 .661-2.449V65.536c0-.177-.038-.351-.113-.512Z"/><path fill="#fff" d="M72.545 94.664v110.259c0 2.806 3.241 5.488 6.278 4.198a1.2 1.2 0 0 1-1.487-.578 1.207 1.207 0 0 1-.137-.558V97.71a4.854 4.854 0 0 1 .82-2.693l-4.987-2.494a4.837 4.837 0 0 0-.487 2.14Z" opacity=".2"/><path fill="#fff" d="M126.72 61.276a2.37 2.37 0 0 0-.737.149l-50.975 29a4.863 4.863 0 0 0-1.956 2.099l4.987 2.493a4.904 4.904 0 0 1 1.644-1.536l50.974-29a1.217 1.217 0 0 1 .956-.11 1.204 1.204 0 0 1 .734.623c-.363-1.296-3-3.769-5.627-3.718Z" opacity=".4"/><path fill="#fff" d="M132.347 65.024c-.369-1.295-3.006-3.768-5.632-3.717-.252.01-.501.06-.737.149l-50.97 28.969a4.956 4.956 0 0 0-2.463 4.239v110.259c0 2.806 3.241 5.489 6.277 4.199a1.76 1.76 0 0 0 .2-.077l50.975-29.051a4.89 4.89 0 0 0 1.802-1.785 4.89 4.89 0 0 0 .661-2.449V65.536c0-.177-.038-.351-.113-.512Z" opacity=".3"/><path fill="#3A76F0" d="M123.489 92.641a2.295 2.295 0 0 1 1.797-.333c.691.22 1.142.927 1.142 2.007v6.185a6.195 6.195 0 0 1-1.132 3.318 5.738 5.738 0 0 1-1.792 1.741 2.27 2.27 0 0 1-1.792.328c-.696-.215-1.141-.922-1.147-2.007V97.7a6.147 6.147 0 0 1 1.132-3.323 5.626 5.626 0 0 1 1.792-1.736Z"/><path fill="#fff" d="M123.469 85.156c.988-.573 1.797-.113 1.797 1.024v6.144a2.288 2.288 0 0 0-1.797.333 5.633 5.633 0 0 0-1.787 1.736v-6.144a3.944 3.944 0 0 1 1.787-3.093Z" opacity=".3"/><path fill="#3A76F0" d="m125.318 103.818.066 23.24a3.937 3.937 0 0 1-1.787 3.097c-.988.574-1.797.113-1.797-1.024l-.066-23.239a2.274 2.274 0 0 0 1.792-.328 5.743 5.743 0 0 0 1.792-1.746Z"/><path fill="#fff" d="M114.821 90.143c.988-.569 1.797-.108 1.797 1.024l.051 17.065a2.291 2.291 0 0 0-1.797.332 5.722 5.722 0 0 0-1.792 1.736l-.046-17.06a3.941 3.941 0 0 1 1.787-3.097Z" opacity=".3"/><path fill="#3A76F0" d="M114.873 108.569a2.276 2.276 0 0 1 1.797-.332c.691.215 1.141.921 1.147 2.007v6.174a6.145 6.145 0 0 1-1.132 3.323 5.76 5.76 0 0 1-1.787 1.736 2.239 2.239 0 0 1-1.797.333c-.696-.215-1.147-.922-1.147-2.002v-6.18a6.197 6.197 0 0 1 1.132-3.323 5.696 5.696 0 0 1 1.787-1.736Z"/><path fill="#3A76F0" d="M113.116 121.81a2.245 2.245 0 0 0 1.797-.333 5.736 5.736 0 0 0 1.787-1.735l.036 12.288a3.949 3.949 0 0 1-1.787 3.072c-.988.573-1.797.112-1.797-1.024l-.036-12.268ZM106.184 98.903a2.268 2.268 0 0 1 1.792-.333c.696.215 1.146.922 1.146 2.007v6.185a6.18 6.18 0 0 1-1.09 3.318 5.727 5.727 0 0 1-1.792 1.741 2.25 2.25 0 0 1-.864.341 2.251 2.251 0 0 1-.928-.034c-.691-.215-1.137-.921-1.142-2.002v-6.185a6.155 6.155 0 0 1 1.126-3.318 5.732 5.732 0 0 1 1.752-1.72Z"/><path fill="#fff" d="M106.173 95.14c.989-.569 1.792-.113 1.797 1.024v2.401a2.277 2.277 0 0 0-1.792.333 5.729 5.729 0 0 0-1.792 1.741v-2.407a3.945 3.945 0 0 1 1.787-3.092Z" opacity=".3"/><path fill="#3A76F0" d="M104.448 112.128c.306.073.624.082.934.026.309-.057.603-.177.864-.354a5.717 5.717 0 0 0 1.786-1.72l.077 26.967a3.943 3.943 0 0 1-1.787 3.072c-.988.574-1.797.113-1.802-1.024l-.072-26.967ZM95.832 137.108a2.292 2.292 0 0 0 1.797-.332 5.63 5.63 0 0 0 1.786-1.736v6.999a3.94 3.94 0 0 1-1.781 3.098c-.994.568-1.797.112-1.802-1.024v-7.005Z"/><path fill="#3A76F0" d="M97.593 123.863a2.27 2.27 0 0 1 1.792-.333c.696.22 1.142.922 1.147 2.007v6.18a6.141 6.141 0 0 1-1.132 3.323 5.63 5.63 0 0 1-1.787 1.736 2.283 2.283 0 0 1-1.797.332c-.69-.22-1.142-.926-1.142-2.007v-6.179a6.179 6.179 0 0 1 1.132-3.318c.46-.706 1.07-1.3 1.787-1.741Z"/><path fill="#fff" d="M97.526 100.132c.988-.574 1.792-.108 1.797 1.024l.062 22.369a2.28 2.28 0 0 0-1.792.333 5.666 5.666 0 0 0-1.792 1.741l-.067-22.375a3.95 3.95 0 0 1 1.792-3.092Z" opacity=".3"/><path fill="#3A76F0" d="M88.909 117.094a2.286 2.286 0 0 1 1.792-.332c.696.215 1.147.921 1.147 2.007v6.174a6.184 6.184 0 0 1-1.132 3.323 5.7 5.7 0 0 1-1.792 1.736 2.245 2.245 0 0 1-1.797.333c-.691-.215-1.137-.922-1.142-2.007v-6.175a6.144 6.144 0 0 1 1.127-3.323 5.713 5.713 0 0 1 1.797-1.736Z"/><path fill="#000" d="M123.489 92.641a2.295 2.295 0 0 1 1.797-.333c.691.22 1.142.927 1.142 2.007v6.185a6.195 6.195 0 0 1-1.132 3.318 5.738 5.738 0 0 1-1.792 1.741 2.27 2.27 0 0 1-1.792.328c-.696-.215-1.141-.922-1.147-2.007V97.7a6.147 6.147 0 0 1 1.132-3.323 5.626 5.626 0 0 1 1.792-1.736ZM114.873 108.569a2.276 2.276 0 0 1 1.797-.332c.691.215 1.141.921 1.147 2.007v6.174a6.145 6.145 0 0 1-1.132 3.323 5.76 5.76 0 0 1-1.787 1.736 2.239 2.239 0 0 1-1.797.333c-.696-.215-1.147-.922-1.147-2.002v-6.18a6.197 6.197 0 0 1 1.132-3.323 5.696 5.696 0 0 1 1.787-1.736ZM106.184 98.903a2.268 2.268 0 0 1 1.792-.333c.696.215 1.146.922 1.146 2.007v6.185a6.18 6.18 0 0 1-1.09 3.318 5.727 5.727 0 0 1-1.792 1.741 2.25 2.25 0 0 1-.864.341 2.251 2.251 0 0 1-.928-.034c-.691-.215-1.137-.921-1.142-2.002v-6.185a6.155 6.155 0 0 1 1.126-3.318 5.732 5.732 0 0 1 1.752-1.72ZM97.593 123.863a2.27 2.27 0 0 1 1.792-.333c.696.22 1.142.922 1.147 2.007v6.18a6.141 6.141 0 0 1-1.132 3.323 5.63 5.63 0 0 1-1.787 1.736 2.283 2.283 0 0 1-1.797.332c-.69-.22-1.142-.926-1.142-2.007v-6.179a6.179 6.179 0 0 1 1.132-3.318c.46-.706 1.07-1.3 1.787-1.741ZM88.909 117.094a2.286 2.286 0 0 1 1.792-.332c.696.215 1.147.921 1.147 2.007v6.174a6.184 6.184 0 0 1-1.132 3.323 5.7 5.7 0 0 1-1.792 1.736 2.245 2.245 0 0 1-1.797.333c-.691-.215-1.137-.922-1.142-2.007v-6.175a6.144 6.144 0 0 1 1.127-3.323 5.713 5.713 0 0 1 1.797-1.736Z" opacity=".3"/><path fill="#fff" d="M88.873 105.124c.993-.568 1.797-.107 1.797 1.024l.03 10.609a2.28 2.28 0 0 0-1.791.333 5.71 5.71 0 0 0-1.792 1.735l-.03-10.608a3.945 3.945 0 0 1 1.786-3.093Z" opacity=".3"/><path fill="#3A76F0" d="M87.148 130.335a2.245 2.245 0 0 0 1.797-.333 5.702 5.702 0 0 0 1.792-1.736l.051 18.765a3.926 3.926 0 0 1-1.787 3.098c-.988.573-1.797.113-1.797-1.024l-.056-18.77Z"/><path fill="#fff" d="m102.257 148.516-16.267 9.39.01 4.265 16.272-9.39-.015-4.265Z"/><path fill="#3A76F0" d="m125.471 171.07-3.292 1.899c.619.087 1.024.64 1.024 1.536a4.678 4.678 0 0 1-1.024 2.729l3.292-1.899a4.1 4.1 0 0 0 1.848-3.206c.005-1.172-.824-1.633-1.848-1.059Z"/><path fill="#fff" d="M121.903 168.095a4.734 4.734 0 0 1 1.024-2.724l-3.318 1.915a4.061 4.061 0 0 0-1.848 3.21c0 1.178.834 1.649 1.858 1.055l3.318-1.915c-.62-.092-1.029-.64-1.034-1.541ZM121.882 160.942a4.734 4.734 0 0 1 1.024-2.724l-3.318 1.915a4.064 4.064 0 0 0-1.827 3.195c0 1.172.834 1.648 1.858 1.055l3.318-1.915c-.635-.077-1.05-.63-1.055-1.526Z"/><path fill="#3A76F0" d="M123.157 153.037a4.752 4.752 0 0 1-1.024 2.729l3.287-1.9a4.087 4.087 0 0 0 1.848-3.205c0-1.172-.834-1.648-1.858-1.055l-3.292 1.9c.619.087 1.034.635 1.039 1.531Z"/><path fill="#fff" d="M121.856 146.632a4.719 4.719 0 0 1 1.024-2.729l-3.323 1.92a4.054 4.054 0 0 0-1.848 3.2c0 1.178.834 1.654 1.858 1.06l3.318-1.915c-.624-.087-1.029-.64-1.029-1.536Z"/><path fill="#3A76F0" d="M123.116 138.752a4.75 4.75 0 0 1-1.024 2.729l3.292-1.905a4.053 4.053 0 0 0 1.848-3.2c0-1.177-.834-1.653-1.858-1.059l-3.303 1.899c.625.061 1.04.614 1.045 1.536ZM122.179 172.969a1.838 1.838 0 0 0-1.157.287l-1.536.875a4.787 4.787 0 0 0-2.176 3.769c0 1.387.983 1.945 2.186 1.249l1.536-.87a4.162 4.162 0 0 0 1.152-1.024 4.676 4.676 0 0 0 1.024-2.729c.005-.917-.409-1.47-1.029-1.557ZM125.594 163.451l-1.536.876a3.988 3.988 0 0 0-1.152 1.024 4.734 4.734 0 0 0-1.024 2.723c0 .902.414 1.449 1.024 1.536.407.036.814-.065 1.157-.286l1.536-.871a4.784 4.784 0 0 0 2.176-3.773c.005-1.352-.973-1.925-2.181-1.229ZM125.574 156.298l-1.536.871a4.017 4.017 0 0 0-1.152 1.024 4.725 4.725 0 0 0-1.024 2.724c0 .896.419 1.448 1.024 1.536.406.035.814-.066 1.157-.287l1.536-.876a4.794 4.794 0 0 0 2.176-3.768c.005-1.362-.973-1.92-2.181-1.224ZM119.465 157.696l1.511-.875a4.05 4.05 0 0 0 1.157-1.024 4.752 4.752 0 0 0 1.024-2.729c0-.896-.42-1.444-1.024-1.536a1.85 1.85 0 0 0-1.157.286l-1.511.876a4.775 4.775 0 0 0-2.176 3.768c-.01 1.362.983 1.92 2.176 1.234ZM125.532 141.988l-1.536.876a4.053 4.053 0 0 0-1.147 1.024 4.716 4.716 0 0 0-1.024 2.729c0 .896.42 1.449 1.024 1.536.407.035.814-.066 1.157-.287l1.536-.876a4.768 4.768 0 0 0 2.176-3.773c0-1.367-.977-1.905-2.186-1.229Z"/><path fill="#3A76F0" d="m119.424 143.36 1.51-.875a4.103 4.103 0 0 0 1.152-1.024c.62-.78.978-1.735 1.024-2.729 0-.902-.42-1.455-1.024-1.536a1.865 1.865 0 0 0-1.152.286l-1.51.876a4.787 4.787 0 0 0-2.176 3.768c0 1.383.968 1.946 2.176 1.234Z"/><g fill="#000" opacity=".3"><path d="M122.179 172.969a1.832 1.832 0 0 0-1.157.287l-1.536.875a4.787 4.787 0 0 0-2.176 3.769c0 1.387.983 1.945 2.186 1.249l1.536-.871a4.13 4.13 0 0 0 1.152-1.024 4.67 4.67 0 0 0 1.024-2.728c.005-.917-.409-1.47-1.029-1.557ZM125.594 163.451l-1.536.876a3.988 3.988 0 0 0-1.152 1.024 4.734 4.734 0 0 0-1.024 2.723c0 .901.415 1.449 1.024 1.536.407.036.814-.065 1.157-.286l1.536-.871a4.784 4.784 0 0 0 2.176-3.773c.005-1.352-.973-1.925-2.181-1.229ZM125.573 156.298l-1.536.871a4.044 4.044 0 0 0-1.152 1.024 4.734 4.734 0 0 0-1.024 2.724c0 .896.42 1.449 1.024 1.536.407.035.814-.066 1.157-.287l1.536-.876a4.775 4.775 0 0 0 2.176-3.768c.005-1.362-.973-1.92-2.181-1.224ZM119.465 157.696l1.511-.876a4.02 4.02 0 0 0 1.157-1.024 4.746 4.746 0 0 0 1.024-2.728c0-.896-.42-1.444-1.024-1.536a1.844 1.844 0 0 0-1.157.286l-1.511.876a4.775 4.775 0 0 0-2.176 3.768c-.01 1.362.983 1.92 2.176 1.234ZM125.532 141.988l-1.536.876a4.038 4.038 0 0 0-1.147 1.024 4.72 4.72 0 0 0-1.024 2.728c0 .896.42 1.449 1.024 1.536.407.036.814-.065 1.158-.286l1.536-.876a4.784 4.784 0 0 0 2.176-3.773c0-1.367-.978-1.905-2.187-1.229ZM119.424 143.36l1.51-.875a4.103 4.103 0 0 0 1.152-1.024c.62-.78.978-1.735 1.024-2.729 0-.902-.42-1.455-1.024-1.536a1.865 1.865 0 0 0-1.152.286l-1.51.876a4.787 4.787 0 0 0-2.176 3.768c0 1.383.968 1.946 2.176 1.234Z"/></g><path fill="#fff" d="m86.093 193.685.01 4.265 19.871-11.474-.011-4.265-19.87 11.474ZM102.339 177.137l-16.271 9.395.015 4.26 16.266-9.395-.01-4.26ZM104.351 168.811l-18.304 10.563.016 4.26 18.298-10.563-.01-4.26ZM97.73 165.463l-11.698 6.759.01 4.259 11.7-6.753-.011-4.265ZM105.882 153.59l-19.87 11.474.01 4.259 19.87-11.468-.01-4.265Z"/><path fill="#3A76F0" d="M180.065 190.797a4.402 4.402 0 0 0 3.313 1.218 10.004 10.004 0 0 0 3.502-.88c1.121-.461 2.529-1.751 3.737-1.726a29.155 29.155 0 0 0 3.543-.246 18.536 18.536 0 0 0-.512-4.797l-5.657-.148c-1.536 2.088-4.496 3.829-6.743 4.48a1.973 1.973 0 0 0-1.393 1.489v.036c.044.2.115.393.21.574Z"/><path fill="#263238" d="M190.617 189.41c-1.208-.026-2.616 1.264-3.737 1.725a10.006 10.006 0 0 1-3.502.881 4.404 4.404 0 0 1-3.313-1.219 2.32 2.32 0 0 1-.2-.573v-.036a1.798 1.798 0 0 0 0 .752c.042.201.109.395.2.579a4.42 4.42 0 0 0 3.313 1.213 10.004 10.004 0 0 0 3.502-.88c1.121-.461 2.529-1.751 3.737-1.726a25.719 25.719 0 0 0 3.487-.204c.031-.251.046-.512.056-.758a29.155 29.155 0 0 1-3.543.246ZM208.046 193.951a8.871 8.871 0 0 1-.184 1.838 4.25 4.25 0 0 1-1.679 2.683 5.38 5.38 0 0 1-2.678.711 5.884 5.884 0 0 1-2.448-.251 2.769 2.769 0 0 1-1.428-1.167.08.08 0 0 0 0 .031 2.56 2.56 0 0 0 1.649 1.715c.789.255 1.623.34 2.447.251a5.4 5.4 0 0 0 2.673-.712 4.263 4.263 0 0 0 1.684-2.683 8.84 8.84 0 0 0 .179-1.843 3.102 3.102 0 0 1 .988-2.248c.152-.14.295-.289.431-.445a1.07 1.07 0 0 0 .261-.799c0-.118 0-.23-.036-.338-.22.261-.748.881-.876 1.024a3.108 3.108 0 0 0-.983 2.233Z"/><path fill="#3A76F0" d="M203.402 187.536a6.726 6.726 0 0 1-.471 3.732 14.232 14.232 0 0 1-1.976 3.246c-.39.469-.733.975-1.024 1.51a2.722 2.722 0 0 0-.292 1.741c.329.541.833.953 1.428 1.168a5.9 5.9 0 0 0 2.448.251 5.39 5.39 0 0 0 2.678-.712 4.248 4.248 0 0 0 1.679-2.683 8.871 8.871 0 0 0 .184-1.838 3.108 3.108 0 0 1 .988-2.253c.128-.123.656-.742.876-1.024a6.84 6.84 0 0 0-.906-2.606l-5.612-.532Z"/><path fill="#3A76F0" d="M187.766 134.625s-1.429 18.791-1.306 24.018c.123 5.228.651 25.882.651 25.882 2.928 1.71 7.168.435 7.168.435.343-16.491 1.899-20.034.839-26.071.748-4.48 1.777-14.92 1.777-14.92 1.459 12.555 2.514 19.026 2.514 19.026l3.487 25.134c2.862 1.496 6.471 0 6.471 0 0-14.336.307-20.387-1.183-29.844-.081-14.556-.814-23.404-.814-23.404l-19.604-.256Z"/><path fill="#000" d="M187.766 134.625s-1.429 18.791-1.306 24.018c.123 5.228.651 25.882.651 25.882 2.928 1.71 7.168.435 7.168.435.343-16.491 1.899-20.034.839-26.071.748-4.48 1.777-14.92 1.777-14.92 1.459 12.555 2.514 19.026 2.514 19.026l3.487 25.134c2.862 1.496 6.471 0 6.471 0 0-14.336.307-20.387-1.183-29.844-.081-14.556-.814-23.404-.814-23.404l-19.604-.256Z" opacity=".25"/><path fill="#000" d="M191.227 139.479c.998 2.447 4.132 2.447 4.132 2.447l.558 2.78-.21 9.918c.604-4.813 1.177-10.634 1.177-10.634l-.389-2.975a8.292 8.292 0 0 1-5.268-1.536Z" opacity=".3"/><path fill="#FFA8A7" d="m168.929 108.011 7.127 7.645 2.243-2.013 3.502 5.336-6.774 5.478-7.895-12.821 1.797-3.625Z"/><path fill="#455A64" d="M189.05 105.298c-3.046-.174-3.845 1.418-5.77 3.215-1.925 1.797-5.55 5.284-5.55 5.284a7.236 7.236 0 0 0 4.03 5.678l6.707-4.951.583-9.226Z"/><path fill="#fff" d="M189.05 105.298c-3.046-.174-3.845 1.418-5.77 3.215-1.925 1.797-5.55 5.284-5.55 5.284a7.236 7.236 0 0 0 4.03 5.678l6.707-4.951.583-9.226Z" opacity=".2"/><path fill="#455A64" d="M207.872 136.048s-11.361 4.158-20.588-1.024c0 0 .559-6.61.722-10.465.164-3.855-1.162-11.295-1.362-13.312-.199-2.017.067-5.448 2.417-5.97 4.362-.922 12.559 0 12.559 0l4.895 5.407a101.363 101.363 0 0 1 1.357 25.364Z"/><path fill="#FFA8A7" d="m195.738 119.808-2.714 7.009 3.006 4.68c4.372-1.987 3.476-1.423 6.497-8.704l-6.789-2.985Z"/><path fill="#455A64" d="M201.61 105.298c-3.277 3.881-4.511 10.542-6.206 14.848 1.895 3.584 7.168 3.236 7.168 3.236 4.844-10.087 6.887-17.68-.962-18.084Z"/><path fill="#fff" d="M201.61 105.298c-3.277 3.881-4.511 10.542-6.206 14.848 1.895 3.584 7.168 3.236 7.168 3.236 4.844-10.087 6.887-17.68-.962-18.084Z" opacity=".2"/><path fill="#FFA8A7" d="M201.661 96.256a1.665 1.665 0 0 0-1.065-.947 1.532 1.532 0 0 0-1.362.456 2.637 2.637 0 0 0-.665 1.32c-.091.491-.145.987-.164 1.486a18.008 18.008 0 0 1-.41 2.621 3.343 3.343 0 0 1-1.699 2.217l-.057.031a10.226 10.226 0 0 1-3.963 1.054v1.49c-1.09 1.485-1.397 4.332 1.485 3.482 2.883-.85 4.757-2.765 4.757-4.649 0-.799.036-1.818.056-2.734.031-1.229.051-2.258.051-2.258.268.313.645.511 1.055.553.185.023.372.013.553-.031a2.085 2.085 0 0 0 1.229-1.05c.245-.499.38-1.046.394-1.602a3.25 3.25 0 0 0-.195-1.439Z"/><path fill="#37474F" d="M200.704 91.044a3.583 3.583 0 0 0-2.263-1.203l-11.832 1.1c-1.368 2.888-.277 4.803-.277 4.803-.184 4.408-.338 7.214 1.603 8.141a9.045 9.045 0 0 0 4.321.599 10.254 10.254 0 0 0 3.963-1.055l.061-.031a3.369 3.369 0 0 0 1.7-2.227c.199-.859.334-1.732.405-2.61.018-.5.073-.995.163-1.486.092-.495.323-.953.666-1.32a1.538 1.538 0 0 1 1.362-.456c.085.02.168.051.246.092.358-1.961.455-3.661-.118-4.347Z"/><path fill="#FFA8A7" d="M196.393 91.382a4.094 4.094 0 0 0 .154 2.478c.31.782.562 1.586.752 2.406a3.93 3.93 0 0 1-.322 2.432 2.87 2.87 0 0 1-1.889 1.505c-1.27.267-2.509-.47-3.789-.722a5.297 5.297 0 0 0-3.559.63.624.624 0 0 1-.611.008.619.619 0 0 1-.32-.52c-.149-2.56-.149-6.512.225-8.381l9.359.164Z"/><path fill="#37474F" d="m187.238 89.088-1.475-1.024a3.13 3.13 0 0 0 .563 2.898 4.687 4.687 0 0 0 2.596 1.536 9.8 9.8 0 0 0 3.047.138 22.156 22.156 0 0 0 4.403-.803 3.581 3.581 0 0 0 1.73-.907 2.295 2.295 0 0 0 .093-2.698 3.47 3.47 0 0 0-2.438-1.408 9.24 9.24 0 0 0-2.923.23 8.843 8.843 0 0 1-2.929.21 3.048 3.048 0 0 1-2.36-1.561c-.83 1.341-.307 3.39-.307 3.39Z"/><path fill="#F28F8F" d="m190.95 95.883-2.16 2.61 1.981.702.179-3.312ZM192.583 100.49l-1.669.512a1.027 1.027 0 0 0 1.122.512.92.92 0 0 0 .547-1.024Z"/><path fill="#000" d="m192.583 100.49-1.669.512a1.027 1.027 0 0 0 1.122.512.92.92 0 0 0 .547-1.024Z" opacity=".3"/><path fill="#F28F8F" d="M191.488 101.488a.9.9 0 0 0 .543.031.825.825 0 0 0 .543-.753 1.03 1.03 0 0 0-.646.118 1 1 0 0 0-.44.604Z"/><path fill="#263238" d="M193.884 96.456a.594.594 0 1 1-.337-.57.594.594 0 0 1 .305.34.583.583 0 0 1 .032.23ZM188.928 95.995a.588.588 0 0 1-.396.529.595.595 0 1 1 .396-.529ZM188.478 93.609l-1.362.84a.835.835 0 0 1 .307-.917 1.023 1.023 0 0 1 1.055.077ZM193.536 93.809l1.265.978a.857.857 0 0 0-.205-.943 1.024 1.024 0 0 0-1.06-.035Z"/><path fill="#000" d="M197.038 103.352a3.8 3.8 0 0 0 .691-1.433 3.334 3.334 0 0 1-1.434 1.479l-.056.031a10.245 10.245 0 0 1-3.963 1.055v1.024a9.865 9.865 0 0 0 2.34-.512 5.31 5.31 0 0 0 2.422-1.644Z" opacity=".2"/><path fill="#E0E0E0" d="M179.927 149.729c0-2.76-1.296-5.924-3.231-8.33l-2.708 1.536-.436.251 1.224 12.549 3.072-1.772c1.275-.619 2.069-2.089 2.079-4.234Z"/><path fill="#000" d="M179.927 149.729c0-2.76-1.296-5.924-3.231-8.33l-2.708 1.536-.436.251 1.224 12.549 3.072-1.772c1.275-.619 2.069-2.089 2.079-4.234Z" opacity=".1"/><path fill="#E0E0E0" d="M181.386 85.504c0-3.738-1.966-8.084-4.787-11.064l-3.149 1.802 2.017 4.639.348 11.51 3.313-1.895c1.388-.83 2.253-2.55 2.258-4.992Z"/><path fill="#000" d="M181.386 85.504c0-3.738-1.966-8.084-4.787-11.064l-3.149 1.802 2.017 4.639.348 11.51 3.313-1.895c1.388-.83 2.253-2.55 2.258-4.992Z" opacity=".2"/><path fill="#E0E0E0" d="m170.531 70.968-.025 8.591-3.144 1.803.026-8.592 3.143-1.802Z"/><path fill="#000" d="m170.531 70.968-.025 8.591-3.144 1.803.026-8.592 3.143-1.802Z" opacity=".2"/><path fill="#E0E0E0" d="m170.506 79.56 3.026 3.794-3.144 1.802-3.026-3.794 3.144-1.802Z"/><path fill="#000" d="m170.506 79.56 3.026 3.794-3.144 1.802-3.026-3.794 3.144-1.802Z" opacity=".1"/><path fill="#E0E0E0" d="m170.388 85.156 3.144-1.802-.102 1.51-3.042.292Z"/><path fill="#000" d="m170.388 85.156 3.144-1.802-.102 1.51-3.042.292Z" opacity=".2"/><path fill="#E0E0E0" d="M170.399 94.208a3.783 3.783 0 0 1 1.715 2.975l-.082 39.721c0 1.095-.773 1.536-1.725.988a3.774 3.774 0 0 1-1.716-2.975l.062-39.72c.02-1.097.819-1.537 1.746-.989Z"/><path fill="#000" d="M170.399 94.208a3.783 3.783 0 0 1 1.715 2.975l-.082 39.721c0 1.095-.773 1.536-1.725.988a3.774 3.774 0 0 1-1.716-2.975l.062-39.72c.02-1.097.819-1.537 1.746-.989Z" opacity=".15"/><path fill="#E0E0E0" d="M173.568 143.201c1.935 2.407 3.235 5.566 3.225 8.325 0 3.072-1.633 4.782-3.947 4.583l.025-8.842-2.514-3.149-2.524.24v8.868c-2.34-2.473-3.983-6.082-3.973-9.18 0-2.76 1.321-4.413 3.262-4.582l.092-50.376c-2.693-2.97-4.557-7.168-4.547-10.803 0-3.707 1.971-5.755 4.762-5.514l-.026 8.59 3.026 3.795 3.041-.292v-8.627c2.827 2.98 4.803 7.327 4.793 11.059 0 3.635-1.9 5.673-4.608 5.53l-.087 50.375Zm-1.536-6.297.061-39.721a3.784 3.784 0 0 0-1.715-2.975c-.947-.548-1.726-.108-1.726.988l-.061 39.721a3.773 3.773 0 0 0 1.715 2.975c.953.548 1.726.107 1.726-.988Z"/><path fill="#E0E0E0" d="m170.342 144.117-2.524.241-.011 2.084-.015 6.784 3.144-1.797.02-6.538-.614-.774Z"/><path fill="#000" d="m170.342 144.117-2.524.241-.011 2.084-.015 6.784 3.144-1.797.02-6.538-.614-.774Z" opacity=".2"/><path fill="#E0E0E0" d="m168.084 71.46-3.241 1.859 2.56-.548 3.144-1.803a4.134 4.134 0 0 0-2.463.492Z"/><path fill="#000" d="m168.084 71.46-3.241 1.859 2.56-.548 3.144-1.803a4.134 4.134 0 0 0-2.463.492Z" opacity=".1"/><path fill="#E0E0E0" d="m173.645 92.826-.046 32.671-.031 17.705 3.144-1.803.092-49.75a3.934 3.934 0 0 1-3.159 1.177Z"/><path fill="#000" d="m173.645 92.826-.046 32.671-.031 17.705 3.144-1.803.092-49.75a3.934 3.934 0 0 1-3.159 1.177Z" opacity=".2"/><path fill="#FFA8A7" d="M174.776 133.55a6.358 6.358 0 0 1-2.678-3.492 1.022 1.022 0 0 1 .776-1.303c.187-.038.382-.023.561.044 1.09.384 2.447.696 3.281.174v-1.91c2.048 0 3.518 1.152 5.064 2.483a42.633 42.633 0 0 0 9.252-2.683 19.396 19.396 0 0 1 2.678-.957 4.873 4.873 0 0 1 2.8.077 2.8 2.8 0 0 1 1.175.788c.319.358.54.792.643 1.26a3.001 3.001 0 0 1-1.024 2.632 7.343 7.343 0 0 1-2.56 1.392c-3.866 1.357-18.186 2.601-19.968 1.495ZM167.132 111.616l-.164-.225a11.616 11.616 0 0 1-2.324-7.645l.051-1.024a1.914 1.914 0 0 1 .676-1.351l1.695-1.444a2.165 2.165 0 0 1 1.403-.512h.957a.616.616 0 0 1 .604.512.607.607 0 0 1-.512.681l-1.106.179-.993 1.024 1.372-.573.932.051a.878.878 0 0 1 .835.906l-.098 2.632a.877.877 0 0 1-.891.845h-.757l-1.685.885.005 5.059Z"/><path fill="#263238" d="M137.805 216.013c-.307.65-1.29 1.249-2.371 1.428a10.858 10.858 0 0 1-3.251-.21 21.658 21.658 0 0 0-4.848-.123 25.874 25.874 0 0 1-3.021.215 4.81 4.81 0 0 1-2.842-.896 2.93 2.93 0 0 1-1.065-1.812 2.762 2.762 0 0 0 1.065 2.442 4.847 4.847 0 0 0 2.842.901 25.038 25.038 0 0 0 3.021-.22 21.659 21.659 0 0 1 4.848.128c1.081.149 2.253.461 3.328.282 1.075-.18 2.048-.779 2.371-1.429l-.077-.706Z"/><path fill="#fff" d="M126.029 214.093c.901 0 .568-1.342 1.433-2.238-.353 0-.701.026-1.054 0-.773 1.137-.968 2.238-.379 2.238ZM127.908 214.016c.911 0 .671-1.597 1.567-2.529-.203.072-.41.132-.62.179a8.168 8.168 0 0 1-.512.097c-.824 1.132-1.054 2.253-.435 2.253Z"/><path fill="#455A64" d="M136.868 210.944a1.217 1.217 0 0 0-.471-.738l-4.89-.122a4.181 4.181 0 0 1-2.048 1.392c-.896.932-.655 2.53-1.566 2.53-.62 0-.39-1.127.409-2.253-.287.041-.568.066-.855.087-.865.896-.512 2.237-1.434 2.237-.614 0-.394-1.101.379-2.217h-.686c-.21 0-.414 0-.624-.036-1.803 1.424-1.956 2.97-1.721 5.392.31.055.623.088.937.097a26.078 26.078 0 0 0 3.021-.215c1.616-.141 3.242-.1 4.849.123a10.89 10.89 0 0 0 3.251.21c1.08-.179 2.048-.778 2.37-1.429l-.921-5.058Z"/><path fill="#fff" d="M125.097 211.835a7.845 7.845 0 0 0-2.447 0 2.923 2.923 0 0 0-2.202 1.92 2.131 2.131 0 0 0-.041.86 2.93 2.93 0 0 0 1.065 1.812c.56.419 1.214.693 1.905.799-.236-2.422-.082-3.968 1.72-5.391Z"/><path fill="#AD615F" d="M131.364 208.707v2.355a.963.963 0 0 0 .601.895.947.947 0 0 0 .371.072h2.463a1.588 1.588 0 0 0 1.592-1.536l.057-1.786h-5.084Z"/><path fill="#263238" d="M147.671 207.657a1.802 1.802 0 0 1-1.485 1.024 3.16 3.16 0 0 1-1.879-.461c-.844-.543-1.177-1.387-1.756-2.15a12.842 12.842 0 0 0-2.048-2.002 6.766 6.766 0 0 1-1.956-2.268 3.03 3.03 0 0 1-.23-.83 2.96 2.96 0 0 0 .23 1.598 6.803 6.803 0 0 0 1.956 2.263c.755.589 1.442 1.26 2.048 2.002.579.763.912 1.612 1.756 2.15a3.16 3.16 0 0 0 1.879.461 1.81 1.81 0 0 0 1.485-1.024c.102-.431.133-.875.092-1.316 0 .188-.031.375-.092.553Z"/><path fill="#fff" d="M142.111 202.481a.622.622 0 0 0-.118.404.42.42 0 0 0 .266.302.59.59 0 0 0 .553-.138c.14-.14.267-.293.379-.456a2.872 2.872 0 0 1 2.012-1.085l-.609-.558a3.036 3.036 0 0 0-2.483 1.536v-.005Z"/><path fill="#fff" d="M142.244 200.535a3.125 3.125 0 0 0-1.367 1.26.622.622 0 0 0-.118.404.42.42 0 0 0 .266.302.597.597 0 0 0 .553-.138c.14-.14.267-.293.379-.456a2.82 2.82 0 0 1 2.499-1.08l-.584-.553a3.07 3.07 0 0 0-1.628.261Z"/><path fill="#fff" d="M143.462 199.926a6.48 6.48 0 0 0-1.92-1.285 2.561 2.561 0 0 0-2.642.363 2.311 2.311 0 0 0-.584 1.982c.037.286.115.565.231.829.159.347.364.671.609.963.236-2.105 2.064-3.098 4.306-2.852Z"/><path fill="#455A64" d="M147.722 205.589a4.414 4.414 0 0 0-.481-2.048l-1.188-1.25-.85-.773a2.88 2.88 0 0 0-2.012 1.086 3.233 3.233 0 0 1-.379.455.58.58 0 0 1-.553.139.422.422 0 0 1-.266-.302.623.623 0 0 1 .118-.405 3.054 3.054 0 0 1 2.483-1.536l-.138-.123a2.82 2.82 0 0 0-2.499 1.081 3.233 3.233 0 0 1-.379.455.594.594 0 0 1-.553.138.415.415 0 0 1-.266-.302.622.622 0 0 1 .118-.404 3.13 3.13 0 0 1 1.367-1.26 3.076 3.076 0 0 1 1.608-.261c-.118-.112-.241-.22-.364-.327-2.242-.241-4.07.747-4.306 2.851a10.2 10.2 0 0 0 1.347 1.306c.755.589 1.442 1.26 2.048 2.002.578.763.911 1.608 1.756 2.15.563.347 1.22.508 1.879.461a1.812 1.812 0 0 0 1.485-1.024c.06-.178.092-.365.092-.553a14.702 14.702 0 0 0-.067-1.556Z"/><path fill="#AD615F" d="m143.426 201.861.144 2.534c1.592.917 3.271.415 3.834-.164l.103-2.37h-4.081ZM146.575 147.174a2.223 2.223 0 0 1-.245-.87l-.134-2.171-15.472.993a74.766 74.766 0 0 0-.615 3.922 23.011 23.011 0 0 0 16.466-1.874Z"/><path fill="#AD615F" d="m146.268 138.414 3.298 6.369-2.991 5.013 3.308 5.238 4.997-7.762a4.357 4.357 0 0 0 .512-3.584 61.163 61.163 0 0 0-3.246-8.837l-5.878 3.563Z"/><path fill="#EBEBEB" d="M143.652 126.116c3.794-.707 5.959.558 9.165 9.139-1.311 2.934-6.861 4.019-6.861 4.019l-2.304-13.158Z"/><path fill="#fff" d="m136.551 127.124-4.142.814c-.917 1.675-1.849 3.252-2.765 4.926-.686 1.259-1.398 2.601-1.342 4.034a4.1 4.1 0 0 0 2.479 3.584l-.477 5.632c6.498 1.987 14.449.241 16.195-1.264.512-2.366.968-4.885 1.48-7.255.38-1.529.615-3.091.701-4.665a8.236 8.236 0 0 0-1.096-4.531l-.025-.041a5.058 5.058 0 0 0-5.079-2.181l-5.929.947Z"/><path fill="#455A64" d="M146.816 147.574a2.132 2.132 0 0 1-.24-.4 23.012 23.012 0 0 1-16.466 1.874c-1.168 8.679-2.171 23.378-1.536 33.075.512 11.29 2.56 27.275 2.56 27.275 2.708.809 4.741.312 5.509-.272.901-11.197 2.888-18.877 1.357-26.281 1.024-5.176 1.684-11.678 1.684-11.678l.784 11.438 2.647 20.106a4.74 4.74 0 0 0 4.756-.241c1.925-11.494 2.647-19.287.963-24.996 2.585-18.867 2.718-23.695-2.018-29.9Z"/><path fill="#000" d="m140.831 168.904 1.423-5.955c1.654-.271 4.245-1.357 5.601-3.625a11.414 11.414 0 0 1-6.866 2.422l-1.295 9.421.277 4.024.107-1.464c.125-1.625.377-3.238.753-4.823Z" opacity=".3"/><path fill="#AD615F" d="m105.749 120.32 4.173 10.752a4.283 4.283 0 0 0 3.271 2.683l7.127 1.27a6.293 6.293 0 0 0 1.26-6.687 34.568 34.568 0 0 1-6.415-.707s-4.501-5.473-6.38-8.299l1.342-4.444a1.546 1.546 0 0 0-.139-1.204l-.722-1.254a1.534 1.534 0 0 0-.829-.686l-1.024-.353a1.833 1.833 0 0 0-1.439.107l-1.582.83a.6.6 0 0 0-.328.547.605.605 0 0 0 .328.512l.594.303.819 1.392a4.389 4.389 0 0 0-.056 5.238Z"/><path fill="#EBEBEB" d="M131.763 127.867c-2.56.118-6.411.543-10.189.471a6.293 6.293 0 0 1-1.255 6.687l8.894 1.536a3.822 3.822 0 0 0 4.296-2.816c.276-1.127.573-2.074.747-3.17a2.386 2.386 0 0 0-2.493-2.708Z"/><path fill="#37474F" d="M131.507 115.999a7.206 7.206 0 0 1-.814-3.814 4.133 4.133 0 0 1 2.002-3.226 2.911 2.911 0 0 1 3.584.63 6.656 6.656 0 0 1 9.82 6.364c-.087 1.372-.589 2.719-.435 4.096.092.804.41 1.613.195 2.391a2.465 2.465 0 0 1-1.301 1.475c-.599.312-1.997.23-2.657.368-2.017 1.838-4.552 1.147-6.144-.512-1.593-1.659-4.25-7.772-4.25-7.772Z"/><path fill="#914746" d="m131.087 117.821-1.259 2.192 1.377.507-.118-2.699Z"/><path fill="#AD615F" d="M130.944 116.843c.205-1.925.763-3.737 2.017-4.654a10.393 10.393 0 0 0 1.439 6.876 3.04 3.04 0 0 1 .932-1.648 1.736 1.736 0 0 1 1.792-.379c.417.196.74.547.901.978a2.337 2.337 0 0 1-2.918 3.072 4.475 4.475 0 0 0 3.445 3.492 5.763 5.763 0 0 0 3.344-.318l.512 2.591c-2.11 2.253-5.714.737-5.714.737l-.476-2.56c-4.148.246-4.532.174-4.992-2.109a22.395 22.395 0 0 1-.282-6.078Z"/><path fill="#000" d="M140.129 114.053a7.278 7.278 0 0 1 3.302-3.942 6.955 6.955 0 0 1 2.663 5.842c-.087 1.372-.589 2.718-.436 4.096.093.803.41 1.612.195 2.391a2.452 2.452 0 0 1-.497.872 2.448 2.448 0 0 1-.803.602c-.6.313-1.997.231-2.658.369-.087.082-.174.148-.266.22a20.026 20.026 0 0 1-1.638-4.214 10.772 10.772 0 0 1 .138-6.236Z" opacity=".3"/><path fill="#37474F" d="M141.281 112.64a5.285 5.285 0 0 1 10.077-.128c1.249 3.789-1.956 7.813-1.255 11.74.256 1.418 1.024 2.703 1.26 4.096a6.096 6.096 0 0 1-5.264 7.168c.901-.993.917-2.524.405-3.763-.512-1.239-1.429-2.258-2.217-3.339-3.185-4.398-4.572-10.629-3.006-15.774Z"/><path fill="#3A76F0" d="M213.171 69.438a2.392 2.392 0 0 0-.906-.917l-19.809-11.233c-1.091-.63-3.671.22-3.671 1.976v14.244a2.428 2.428 0 0 0 1.223 2.115l9.216 5.268-1.274-.727.809 2.268a.124.124 0 0 0 .113.089.127.127 0 0 0 .05-.007c.144-.072.768-.41 1.127-.645 0 0 .025 0 .031-.03l.199-.318 9.513 5.325a2.403 2.403 0 0 0 3.676-1.977V70.656a2.455 2.455 0 0 0-.297-1.219Z"/><path fill="#fff" d="m200.1 81.818-.031.03a15.55 15.55 0 0 1-1.126.645.125.125 0 0 0 .044-.017.124.124 0 0 0 .033-.034l.773-1.254-.154-.087.681.389-.22.328Z" opacity=".2"/><path fill="#fff" d="M210.755 70.815a2.596 2.596 0 0 0-.65-.82 2.296 2.296 0 0 0-.292-.199l-19.809-11.233a.81.81 0 0 0-1.214.701c0-1.756 2.56-2.606 3.671-1.976l19.81 11.233c.38.217.693.534.906.917l-2.422 1.377Z" opacity=".4"/><path fill="#fff" d="M211.026 86.118V71.905a1.777 1.777 0 0 0 0-.292 2.552 2.552 0 0 0-.251-.799l2.417-1.377c.208.373.316.792.312 1.219v14.218a2.397 2.397 0 0 1-2.48 2.342 2.403 2.403 0 0 1-1.196-.366.817.817 0 0 0 1.098-.325.812.812 0 0 0 .1-.407Z" opacity=".2"/><path fill="#E0E0E0" d="M195.257 70.61a1.022 1.022 0 0 0-.906-.133.92.92 0 0 0-.482.926c.018.53.183 1.044.477 1.485.226.37.536.68.906.906a1.021 1.021 0 0 0 .906.139.918.918 0 0 0 .481-.927 2.87 2.87 0 0 0-.471-1.48 2.833 2.833 0 0 0-.911-.916Z"/><path fill="#fff" d="M195.256 70.61c.37.231.682.545.911.916v-5.918a2.012 2.012 0 0 0-.906-1.572c-.512-.287-.906-.056-.906.512v5.919a1.023 1.023 0 0 1 .901.143ZM195.252 73.794a2.73 2.73 0 0 1-.906-.906v1.5a1.987 1.987 0 0 0 .901 1.562c.512.292.911.061.911-.512v-1.505a1.023 1.023 0 0 1-.906-.139ZM199.849 67.932c.371.227.682.54.907.912v-.594a2 2 0 0 0-.907-1.572c-.512-.287-.906-.056-.911.512v.594a1.023 1.023 0 0 1 .911.148ZM199.839 71.117a2.74 2.74 0 0 1-.901-.911v6.825a2.01 2.01 0 0 0 .901 1.566c.512.287.912.057.912-.512V71.26a1.058 1.058 0 0 1-.912-.143Z"/><path fill="#E0E0E0" d="M205.312 75.397a2.752 2.752 0 0 0-.906-.911 1.026 1.026 0 0 0-.906-.133.921.921 0 0 0-.512.927c.021.528.185 1.042.476 1.484.227.369.538.679.906.907a1.026 1.026 0 0 0 .942.153.92.92 0 0 0 .481-.927 2.868 2.868 0 0 0-.481-1.5Z"/><path fill="#fff" d="M204.405 77.67a2.793 2.793 0 0 1-.906-.906v2.908a1.976 1.976 0 0 0 .901 1.567c.512.287.912.056.912-.512v-2.913a1.024 1.024 0 0 1-.907-.143Z"/><path fill="#000" d="M195.252 73.794a2.73 2.73 0 0 1-.906-.906v1.5a1.987 1.987 0 0 0 .901 1.562c.512.292.911.061.911-.512v-1.505a1.023 1.023 0 0 1-.906-.139ZM199.839 71.117a2.74 2.74 0 0 1-.901-.911v6.825a2.01 2.01 0 0 0 .901 1.566c.512.287.912.057.912-.512V71.26a1.058 1.058 0 0 1-.912-.143ZM204.405 77.67a2.793 2.793 0 0 1-.906-.906v2.908a1.976 1.976 0 0 0 .901 1.567c.512.287.912.056.912-.512v-2.913a1.024 1.024 0 0 1-.907-.143Z" opacity=".3"/><path fill="#fff" d="M204.416 74.486c.37.228.68.54.906.911v-4.505a2 2 0 0 0-.906-1.572c-.512-.287-.906-.057-.911.512v4.51a1.023 1.023 0 0 1 .911.144Z"/><path fill="#E0E0E0" d="M199.849 67.932a1.021 1.021 0 0 0-.906-.138.924.924 0 0 0-.481.932c.015.528.18 1.041.476 1.48.224.37.533.683.901.91a1.052 1.052 0 0 0 .911.14.933.933 0 0 0 .512-.933 2.845 2.845 0 0 0-.481-1.48 2.711 2.711 0 0 0-.932-.91Z"/></svg>