<svg width="30" height="31" viewBox="0 0 30 31" fill="none" xmlns="http://www.w3.org/2000/svg">
<path d="M30 14.7772V16.6518C29.9751 16.8442 29.9479 17.0344 29.9275 17.2268C29.6432 20.1395 28.4979 22.9017 26.6374 25.162C24.3781 27.9772 21.1651 29.8682 17.6054 30.4777C17.0525 30.5796 16.4906 30.6339 15.9309 30.7041H14.0547C13.8621 30.6792 13.6718 30.652 13.4792 30.6317C10.3318 30.2853 7.52662 29.1239 5.15873 27.0093C1.32933 23.5953 -0.376929 19.296 0.0694571 14.1931C0.331149 11.0618 1.62447 8.10561 3.74704 5.78705C6.67461 2.52017 10.3522 0.819966 14.7413 0.711296C17.543 0.622278 20.3088 1.36096 22.6924 2.83488C26.5581 5.21203 28.9373 8.64189 29.7689 13.1155C29.8708 13.6724 29.9252 14.2271 30 14.7772ZM15.0313 22.3388V22.2732C15.2579 22.2732 15.4619 22.2732 15.6771 22.2732C17.7346 22.1781 19.792 22.1124 21.8472 21.9698C23.0391 21.8883 23.8231 21.1661 24.0225 19.9866C24.1838 18.9661 24.2874 17.9374 24.3329 16.9053C24.4424 15.1405 24.355 13.369 24.0724 11.6235C23.8458 10.3308 23.0912 9.60183 21.7838 9.45694C20.891 9.35732 19.9937 9.28486 19.0987 9.24638C15.5755 9.07389 12.0449 9.12456 8.52815 9.39807C6.86044 9.5407 6.08775 10.272 5.85663 11.9201C5.6227 13.5344 5.54681 15.1676 5.63003 16.7966C5.68302 17.897 5.79649 18.9937 5.96992 20.0816C6.13987 21.0778 6.81283 21.6823 7.80078 21.9087C8.09832 21.9792 8.40171 22.0224 8.70714 22.0377C10.819 22.1441 12.924 22.2392 15.0313 22.3388Z" fill="white"/>
<path d="M18.0065 15.7144L13.1461 18.5104V12.9162L18.0065 15.7144Z" fill="white"/>
</svg>
